{"glyphs":{"0":{"ha":753,"x_min":65,"x_max":801,"o":"m 221 -22 q 101 24 136 -22 q 65 135 65 71 q 66 153 65 144 q 68 171 67 161 q 140 375 82 278 q 280 553 197 472 q 450 686 363 633 l 476 701 q 458 713 465 703 q 451 732 451 722 q 468 753 451 749 q 551 763 508 763 q 591 760 571 763 q 629 753 611 757 q 642 753 636 753 q 654 754 649 754 q 713 745 686 754 q 765 714 740 736 q 774 697 774 708 q 757 671 774 681 q 790 608 778 643 q 801 533 801 574 q 756 363 801 454 q 650 213 714 282 q 511 90 586 143 q 361 8 436 38 q 221 -22 286 -22 m 222 32 q 345 58 278 32 q 481 131 413 83 q 608 244 549 179 q 707 388 668 310 q 738 465 728 428 q 747 532 747 501 q 713 640 747 597 q 622 700 679 683 q 513 660 571 692 q 402 586 456 628 q 308 504 349 544 q 247 438 267 464 q 153 273 189 357 q 118 132 118 189 q 192 35 118 44 q 206 33 199 33 q 222 32 214 32 z "},"1":{"ha":410,"x_min":69,"x_max":564,"o":"m 104 -3 q 81 8 92 -3 q 69 32 69 18 q 74 47 69 39 l 508 717 q 531 728 515 728 q 553 719 543 728 q 564 699 564 710 q 560 685 564 692 l 122 7 q 104 -3 117 -3 z "},"2":{"ha":717,"x_min":53,"x_max":822,"o":"m 506 8 q 392 19 456 8 q 267 42 329 31 q 158 53 204 53 q 110 46 131 53 q 83 40 97 40 q 60 49 68 40 q 53 69 53 58 q 62 96 53 83 q 86 111 71 108 q 340 242 236 185 q 518 351 444 300 q 688 483 629 426 q 757 581 746 540 q 761 608 761 596 q 735 665 761 640 q 642 689 708 689 q 517 663 574 689 q 419 603 461 636 q 350 549 376 571 q 322 535 335 535 q 303 558 303 535 q 322 600 303 578 q 393 658 346 625 q 504 717 440 692 q 642 743 568 743 q 777 705 732 743 q 822 610 822 667 q 822 595 822 603 q 819 581 821 588 q 735 448 807 515 q 557 311 664 381 q 408 222 493 269 q 189 101 322 175 q 276 88 228 99 q 375 69 324 78 q 474 61 426 61 q 514 64 494 61 q 551 72 533 67 q 577 85 558 75 q 608 110 596 96 q 626 118 617 118 q 642 110 636 118 q 649 90 649 101 q 640 67 649 79 q 506 8 589 8 z "},"3":{"ha":890,"x_min":115,"x_max":979,"o":"m 353 1 q 233 15 286 1 q 147 59 179 29 q 115 136 115 89 q 136 211 115 178 q 188 271 157 244 q 215 285 203 285 q 231 276 226 285 q 236 257 236 268 q 225 229 236 238 q 188 190 203 211 q 169 149 172 169 q 219 78 169 104 q 343 53 269 53 q 514 73 425 53 q 681 129 603 93 q 809 215 758 165 q 864 322 860 264 q 844 378 867 356 q 787 415 822 401 q 714 431 751 428 q 671 417 700 426 q 610 399 642 407 q 554 390 579 390 q 515 418 515 390 q 625 481 515 460 q 682 485 650 485 q 691 484 686 485 q 700 483 696 483 l 701 485 q 838 560 782 519 q 913 625 894 600 q 918 638 917 632 q 919 647 919 643 q 904 671 919 663 q 864 679 889 679 q 760 669 815 679 q 656 644 706 660 q 575 614 607 629 q 567 613 572 613 q 551 635 551 613 q 557 656 551 646 q 572 671 563 665 q 687 713 613 690 q 874 736 761 736 q 951 717 922 736 q 979 656 979 699 q 950 582 979 617 q 878 519 921 547 q 793 468 835 490 q 888 415 849 450 q 921 321 928 379 q 873 208 915 260 q 765 115 831 156 q 618 46 699 74 q 485 13 554 24 q 353 1 415 1 z "},"4":{"ha":815,"x_min":101,"x_max":824,"o":"m 354 -4 q 331 6 342 -4 q 321 31 321 17 q 326 47 321 40 l 435 213 q 369 231 400 221 q 311 251 339 242 q 247 274 276 265 q 201 283 217 283 q 160 269 182 283 q 126 257 139 257 q 107 268 113 257 q 101 290 101 279 q 108 311 101 307 l 211 368 q 376 463 282 408 q 572 584 469 518 q 768 724 674 650 q 789 735 775 735 q 813 726 801 735 q 824 704 824 717 q 819 692 824 699 l 533 253 q 578 247 557 249 q 621 246 600 246 q 679 251 649 246 q 732 265 710 256 q 748 271 740 269 q 761 272 756 272 q 785 250 785 272 q 763 218 785 226 q 687 194 728 200 q 625 189 646 189 q 561 192 593 189 q 499 199 529 194 l 374 7 q 354 -4 367 -4 m 468 264 l 686 597 q 513 478 600 529 q 335 378 425 428 l 249 331 q 468 264 374 285 z "},"5":{"ha":804,"x_min":28,"x_max":824,"o":"m 324 583 q 304 610 304 583 q 313 635 304 622 q 388 692 344 678 q 478 706 431 706 q 526 703 501 706 q 572 699 550 701 q 628 693 599 696 q 686 690 657 690 q 731 692 708 690 q 772 700 753 694 q 799 704 789 704 q 824 686 824 704 q 813 664 824 676 q 786 646 803 651 q 743 638 765 640 q 697 636 721 636 q 639 639 668 636 q 582 644 610 642 q 531 649 556 647 q 485 650 507 650 q 463 650 474 650 q 442 647 453 650 q 388 630 415 646 q 342 593 360 614 q 324 583 333 583 m 229 -15 q 86 17 144 -15 q 28 111 28 49 q 39 153 28 140 q 61 167 50 167 q 81 156 72 167 q 89 126 90 146 q 129 68 86 90 q 257 42 179 42 q 391 63 319 42 q 533 131 463 83 q 663 258 604 179 q 697 315 685 289 q 708 364 708 342 q 678 422 708 400 q 579 443 649 443 q 454 426 515 443 q 344 386 393 410 q 269 340 296 363 q 246 331 258 331 q 221 357 221 331 q 222 367 221 361 q 228 378 224 372 l 378 592 q 399 601 386 601 q 419 594 410 601 q 429 575 429 586 q 425 561 429 569 l 344 449 q 458 485 396 471 q 583 499 519 499 q 722 461 682 499 q 763 371 763 424 q 750 305 763 338 q 718 240 738 272 q 580 99 664 156 q 403 13 496 42 q 229 -15 310 -15 z "},"6":{"ha":743,"x_min":64,"x_max":793,"o":"m 268 -29 q 124 10 183 -29 q 64 140 64 50 q 112 308 64 229 q 238 451 160 386 q 407 569 315 517 q 588 659 499 621 q 749 721 678 697 q 768 725 761 725 q 788 717 782 725 q 793 699 793 708 q 783 675 793 678 q 674 634 739 660 q 534 573 608 608 q 388 493 460 538 q 256 395 315 449 q 160 280 196 342 q 124 149 124 218 q 161 53 124 86 q 256 19 199 19 q 271 20 263 19 q 288 22 279 21 q 269 49 275 31 q 264 90 264 68 q 276 157 264 126 q 332 244 296 203 q 416 313 368 286 q 515 340 464 340 q 594 317 565 340 q 622 253 622 294 q 586 148 622 199 q 495 57 550 97 q 379 -6 440 17 q 268 -29 318 -29 m 344 39 q 408 64 372 43 q 479 117 444 85 q 537 184 514 149 q 560 250 560 219 q 547 278 560 269 q 515 288 535 288 q 430 258 474 288 q 356 185 386 229 q 326 96 326 140 q 344 39 326 63 z "},"7":{"ha":508,"x_min":60,"x_max":728,"o":"m 89 -15 q 69 -6 79 -15 q 60 13 60 3 q 67 28 60 21 l 65 28 q 97 68 65 28 q 181 175 128 108 q 301 320 233 242 q 441 476 368 399 q 583 617 514 554 q 565 615 574 615 q 546 615 556 615 q 489 618 518 615 q 428 624 460 621 q 381 628 406 626 q 333 631 357 631 q 289 627 311 631 q 246 614 267 624 q 222 599 240 611 q 192 572 203 588 q 172 563 183 563 q 157 570 164 563 q 150 589 150 578 q 157 610 150 599 q 194 650 172 636 q 225 667 215 664 q 292 681 257 676 q 364 685 328 685 q 392 684 379 685 q 419 682 406 683 q 473 677 446 679 q 525 672 500 675 q 553 671 538 672 q 582 669 568 669 q 617 672 600 669 q 650 682 635 675 q 658 687 654 685 q 667 693 663 689 q 704 710 688 710 q 722 700 717 710 q 728 679 728 690 q 718 654 728 661 l 675 622 q 655 608 665 615 q 633 592 644 600 l 633 593 q 488 449 563 529 q 345 290 414 369 q 222 142 276 210 q 137 34 168 75 q 106 -7 106 -7 q 89 -15 97 -15 z "},"8":{"ha":714,"x_min":54,"x_max":979,"o":"m 243 -35 q 160 -17 204 -35 q 85 32 117 0 q 54 110 54 64 q 54 119 54 115 q 56 129 54 124 q 107 213 68 174 q 199 288 146 253 q 306 350 253 322 q 401 397 360 378 q 368 501 368 447 q 406 610 368 560 q 507 691 444 660 q 643 722 569 722 q 731 703 688 722 q 800 654 774 683 q 807 636 807 644 q 800 618 807 626 q 782 610 793 610 q 750 625 765 610 q 716 652 738 640 q 658 668 694 664 q 552 648 604 671 q 467 585 500 625 q 433 497 433 546 q 457 419 433 460 l 557 465 q 697 528 626 494 q 828 606 768 563 q 922 707 888 650 q 951 729 936 729 q 972 717 964 729 q 976 694 979 706 q 910 610 956 651 q 807 533 865 569 q 686 465 749 496 q 568 408 624 433 q 532 392 551 401 q 494 375 513 382 q 503 368 500 369 q 574 287 539 333 q 608 185 608 240 q 608 173 608 179 q 606 160 607 167 q 533 55 589 99 q 400 -12 476 11 q 243 -35 324 -35 m 258 19 q 356 31 306 19 q 449 63 406 42 q 518 115 492 85 q 544 183 544 144 q 518 258 544 224 q 464 321 492 292 l 435 353 q 353 313 404 339 q 251 255 303 288 q 162 188 200 222 q 115 119 124 153 q 113 109 114 114 q 113 100 113 104 q 156 39 113 58 q 258 19 199 19 z "},"9":{"ha":724,"x_min":92,"x_max":772,"o":"m 114 -47 l 111 -47 q 92 -25 92 -47 q 99 -6 92 -15 q 125 10 107 4 q 226 44 175 25 q 324 92 276 64 q 458 179 390 129 q 583 287 525 229 q 675 406 640 344 q 710 526 710 467 q 691 603 710 567 q 638 664 672 640 q 556 688 603 688 q 465 660 513 688 q 378 590 418 632 q 317 501 339 547 q 302 460 308 483 q 296 414 296 438 q 312 360 296 383 q 369 336 328 336 q 462 360 418 336 q 544 419 506 383 q 553 430 550 425 q 567 435 557 435 q 584 427 576 435 q 589 408 592 419 q 553 360 581 383 q 490 321 526 338 q 418 294 454 304 q 357 285 382 285 q 274 310 308 285 q 242 351 251 326 q 233 403 233 376 q 242 462 233 432 q 263 515 250 492 q 338 619 290 569 q 444 700 386 668 q 560 732 503 732 q 722 672 671 732 q 765 517 772 611 q 720 377 760 446 q 617 244 681 308 q 478 126 554 181 q 324 31 401 71 q 215 -17 268 3 q 114 -47 161 -37 z "},"\r":{"ha":267,"x_min":0,"x_max":0,"o":""}," ":{"ha":278,"x_min":0,"x_max":0,"o":""}," ":{"ha":278,"x_min":0,"x_max":0,"o":""},"A":{"ha":906,"x_min":106,"x_max":1201,"o":"m 743 -232 q 665 -204 699 -232 q 631 -107 631 -176 q 652 3 631 -62 q 707 138 674 68 q 579 37 649 85 q 433 -40 510 -11 q 278 -64 357 -68 q 166 -11 200 -60 q 132 106 132 38 q 160 249 133 175 q 231 393 188 324 q 318 515 274 463 q 158 622 218 560 q 119 681 132 650 q 106 739 106 711 q 135 813 106 782 q 222 843 164 843 q 326 821 268 843 q 344 800 344 815 q 338 785 344 792 q 322 778 332 778 q 310 781 314 778 q 226 799 261 799 q 174 783 192 799 q 157 743 157 767 q 206 647 157 701 q 353 554 254 593 q 513 689 424 628 q 706 786 601 750 q 925 822 810 822 q 947 822 936 822 q 967 821 957 822 q 1144 766 1086 814 q 1201 658 1201 718 q 1143 540 1201 599 q 974 456 1085 481 q 935 447 956 451 q 950 424 950 442 q 946 407 950 415 q 916 369 938 397 q 854 293 894 342 q 842 278 847 286 q 765 142 801 215 q 704 2 728 69 q 681 -108 681 -65 q 699 -169 681 -151 q 744 -186 718 -186 q 810 -168 776 -186 q 864 -128 844 -150 q 882 -118 872 -118 q 899 -125 892 -118 q 907 -142 907 -132 q 901 -157 907 -150 q 830 -211 874 -190 q 743 -232 786 -232 m 408 535 q 509 513 447 525 q 645 493 571 501 q 794 485 719 485 q 961 501 886 485 q 1105 565 1060 525 q 1150 649 1150 606 q 1101 729 1150 693 q 963 771 1053 765 q 940 772 951 772 q 918 772 929 772 q 636 706 768 772 q 404 536 504 639 l 408 535 m 182 106 q 297 -15 182 -15 q 444 17 371 -15 q 583 99 517 49 q 706 206 650 150 q 803 310 763 261 q 855 385 829 351 q 903 440 881 419 q 907 444 906 443 q 786 438 853 438 q 568 453 682 438 q 368 497 454 469 q 286 389 322 446 q 210 237 238 311 q 182 106 182 163 z "},"Æ":{"ha":1803,"x_min":106,"x_max":1838,"o":"m 743 -232 q 665 -203 699 -232 q 631 -107 631 -175 q 652 2 631 -62 q 707 138 674 67 q 579 36 649 83 q 433 -40 510 -11 q 278 -64 357 -68 q 166 -11 200 -60 q 132 106 132 38 q 160 249 133 175 q 231 393 188 324 q 318 515 274 463 q 158 622 218 560 q 119 681 132 650 q 106 739 106 711 q 135 813 106 782 q 222 843 164 843 q 326 821 268 843 q 344 800 344 815 q 338 785 344 792 q 322 778 332 778 q 310 781 314 778 q 228 799 261 799 q 175 783 193 799 q 157 742 157 767 q 206 647 157 701 q 353 553 254 593 q 513 689 424 628 q 706 786 601 750 q 925 822 810 822 q 1127 777 1060 822 q 1200 671 1194 732 q 1204 674 1201 671 q 1381 769 1275 729 q 1613 808 1488 808 q 1640 808 1626 808 q 1668 806 1654 807 q 1797 765 1756 797 q 1838 692 1838 732 q 1792 599 1838 646 q 1663 526 1746 553 q 1556 505 1617 513 q 1429 497 1496 497 q 1291 506 1361 497 q 1156 532 1221 514 q 1151 507 1151 519 q 1203 435 1151 464 q 1368 406 1254 406 q 1394 385 1394 406 q 1385 366 1394 375 q 1361 354 1376 357 q 1328 356 1344 356 q 1297 357 1313 357 q 1059 315 1157 357 q 910 208 961 272 q 860 79 860 144 q 930 -50 860 6 q 1147 -106 1000 -106 q 1375 -83 1278 -106 q 1542 -24 1472 -60 q 1656 49 1611 13 q 1683 78 1663 56 q 1722 127 1704 100 q 1740 172 1740 154 q 1736 185 1740 181 q 1724 210 1724 197 q 1746 229 1724 229 q 1774 215 1760 229 q 1788 172 1788 201 q 1772 113 1788 143 q 1733 56 1756 82 q 1690 14 1710 31 q 1565 -67 1640 -29 q 1385 -128 1489 -104 q 1146 -153 1282 -153 q 953 -121 1029 -153 q 841 -37 878 -89 q 804 75 804 15 q 846 208 804 142 q 968 326 888 275 q 1164 394 1049 376 q 1110 446 1125 417 q 1099 506 1096 475 q 1042 477 1074 490 q 974 456 1011 464 l 935 447 q 950 424 950 440 q 946 407 950 415 q 916 369 938 397 q 854 293 894 342 l 842 278 q 765 142 801 215 q 704 3 728 69 q 681 -108 681 -64 q 699 -169 681 -151 q 744 -186 718 -186 q 810 -168 776 -186 q 864 -128 844 -150 q 882 -118 872 -118 q 899 -125 892 -118 q 907 -142 907 -132 q 901 -157 907 -150 q 830 -211 874 -190 q 743 -232 786 -232 m 794 485 q 961 501 886 485 q 1105 565 1060 525 q 1150 649 1150 606 q 1101 729 1150 693 q 963 771 1053 765 q 942 772 953 772 q 919 772 931 772 q 638 706 769 772 q 404 536 506 639 q 406 535 406 536 q 408 535 407 535 q 509 513 447 525 q 645 493 571 501 q 794 485 719 485 m 1429 543 q 1639 571 1551 543 q 1748 625 1714 594 q 1782 683 1782 656 q 1751 732 1782 711 q 1663 757 1719 753 q 1637 759 1650 758 q 1611 760 1624 760 q 1426 733 1514 760 q 1274 664 1339 706 q 1178 576 1210 622 q 1182 575 1179 575 q 1304 551 1240 558 q 1429 543 1368 543 m 299 -15 q 445 17 372 -15 q 585 99 518 49 q 707 206 651 150 q 803 310 763 263 q 856 385 831 351 q 903 440 881 419 q 907 443 906 443 q 851 439 881 440 q 790 438 822 438 q 570 453 685 438 q 368 497 456 469 q 325 444 346 471 q 286 389 304 417 q 210 237 238 311 q 182 106 182 163 q 299 -15 182 -15 z "},"Ǽ":{"ha":1803,"x_min":106,"x_max":1838,"o":"m 743 -232 q 665 -203 699 -232 q 631 -107 631 -175 q 652 2 631 -62 q 707 138 674 67 q 579 36 649 83 q 433 -40 510 -11 q 278 -64 357 -68 q 166 -11 200 -60 q 132 106 132 38 q 160 249 133 175 q 231 393 188 324 q 318 515 274 463 q 158 622 218 560 q 119 681 132 650 q 106 739 106 711 q 135 813 106 782 q 222 843 164 843 q 326 821 268 843 q 344 800 344 815 q 338 785 344 792 q 322 778 332 778 q 310 781 314 778 q 228 799 261 799 q 175 783 193 799 q 157 742 157 767 q 206 647 157 701 q 353 553 254 593 q 513 689 424 628 q 706 786 601 750 q 925 822 810 822 q 1127 777 1060 822 q 1200 671 1194 732 q 1204 674 1201 671 q 1381 769 1275 729 q 1613 808 1488 808 q 1640 808 1626 808 q 1668 806 1654 807 q 1797 765 1756 797 q 1838 692 1838 732 q 1792 599 1838 646 q 1663 526 1746 553 q 1556 505 1617 513 q 1429 497 1496 497 q 1291 506 1361 497 q 1156 532 1221 514 q 1151 507 1151 519 q 1203 435 1151 464 q 1368 406 1254 406 q 1394 385 1394 406 q 1385 366 1394 375 q 1361 354 1376 357 q 1328 356 1344 356 q 1297 357 1313 357 q 1059 315 1157 357 q 910 208 961 272 q 860 79 860 144 q 930 -50 860 6 q 1147 -106 1000 -106 q 1375 -83 1278 -106 q 1542 -24 1472 -60 q 1656 49 1611 13 q 1683 78 1663 56 q 1722 127 1704 100 q 1740 172 1740 154 q 1736 185 1740 181 q 1724 210 1724 197 q 1746 229 1724 229 q 1774 215 1760 229 q 1788 172 1788 201 q 1772 113 1788 143 q 1733 56 1756 82 q 1690 14 1710 31 q 1565 -67 1640 -29 q 1385 -128 1489 -104 q 1146 -153 1282 -153 q 953 -121 1029 -153 q 841 -37 878 -89 q 804 75 804 15 q 846 208 804 142 q 968 326 888 275 q 1164 394 1049 376 q 1110 446 1125 417 q 1099 506 1096 475 q 1042 477 1074 490 q 974 456 1011 464 l 935 447 q 950 424 950 440 q 946 407 950 415 q 916 369 938 397 q 854 293 894 342 l 842 278 q 765 142 801 215 q 704 3 728 69 q 681 -108 681 -64 q 699 -169 681 -151 q 744 -186 718 -186 q 810 -168 776 -186 q 864 -128 844 -150 q 882 -118 872 -118 q 899 -125 892 -118 q 907 -142 907 -132 q 901 -157 907 -150 q 830 -211 874 -190 q 743 -232 786 -232 m 794 485 q 961 501 886 485 q 1105 565 1060 525 q 1150 649 1150 606 q 1101 729 1150 693 q 963 771 1053 765 q 942 772 953 772 q 919 772 931 772 q 638 706 769 772 q 404 536 506 639 q 406 535 406 536 q 408 535 407 535 q 509 513 447 525 q 645 493 571 501 q 794 485 719 485 m 1429 543 q 1639 571 1551 543 q 1748 625 1714 594 q 1782 683 1782 656 q 1751 732 1782 711 q 1663 757 1719 753 q 1637 759 1650 758 q 1611 760 1624 760 q 1426 733 1514 760 q 1274 664 1339 706 q 1178 576 1210 622 q 1182 575 1179 575 q 1304 551 1240 558 q 1429 543 1368 543 m 299 -15 q 445 17 372 -15 q 585 99 518 49 q 707 206 651 150 q 803 310 763 263 q 856 385 831 351 q 903 440 881 419 q 907 443 906 443 q 851 439 881 440 q 790 438 822 438 q 570 453 685 438 q 368 497 456 469 q 325 444 346 471 q 286 389 304 417 q 210 237 238 311 q 182 106 182 163 q 299 -15 182 -15 m 1190 874 q 1180 878 1185 875 q 1172 893 1175 882 l 1172 896 q 1175 904 1172 901 q 1181 910 1178 907 l 1358 1007 q 1371 1010 1363 1010 q 1385 998 1378 1008 q 1393 981 1393 988 q 1379 964 1393 969 l 1199 875 q 1190 874 1196 874 z "},"Á":{"ha":906,"x_min":106,"x_max":1201,"o":"m 743 -232 q 665 -204 699 -232 q 631 -107 631 -176 q 652 3 631 -62 q 707 138 674 68 q 579 37 649 85 q 433 -40 510 -11 q 278 -64 357 -68 q 166 -11 200 -60 q 132 106 132 38 q 160 249 133 175 q 231 393 188 324 q 318 515 274 463 q 158 622 218 560 q 119 681 132 650 q 106 739 106 711 q 135 813 106 782 q 222 843 164 843 q 326 821 268 843 q 344 800 344 815 q 338 785 344 792 q 322 778 332 778 q 310 781 314 778 q 226 799 261 799 q 174 783 192 799 q 157 743 157 767 q 206 647 157 701 q 353 554 254 593 q 513 689 424 628 q 706 786 601 750 q 925 822 810 822 q 947 822 936 822 q 967 821 957 822 q 1144 766 1086 814 q 1201 658 1201 718 q 1143 540 1201 599 q 974 456 1085 481 q 935 447 956 451 q 950 424 950 442 q 946 407 950 415 q 916 369 938 397 q 854 293 894 342 q 842 278 847 286 q 765 142 801 215 q 704 2 728 69 q 681 -108 681 -65 q 699 -169 681 -151 q 744 -186 718 -186 q 810 -168 776 -186 q 864 -128 844 -150 q 882 -118 872 -118 q 899 -125 892 -118 q 907 -142 907 -132 q 901 -157 907 -150 q 830 -211 874 -190 q 743 -232 786 -232 m 408 535 q 509 513 447 525 q 645 493 571 501 q 794 485 719 485 q 961 501 886 485 q 1105 565 1060 525 q 1150 649 1150 606 q 1101 729 1150 693 q 963 771 1053 765 q 940 772 951 772 q 918 772 929 772 q 636 706 768 772 q 404 536 504 639 l 408 535 m 182 106 q 297 -15 182 -15 q 444 17 371 -15 q 583 99 517 49 q 706 206 650 150 q 803 310 763 261 q 855 385 829 351 q 903 440 881 419 q 907 444 906 443 q 786 438 853 438 q 568 453 682 438 q 368 497 454 469 q 286 389 322 446 q 210 237 238 311 q 182 106 182 163 m 988 906 q 977 910 982 907 q 969 925 972 914 l 969 928 q 972 936 969 933 q 978 942 975 939 l 1156 1039 q 1168 1042 1160 1042 q 1183 1030 1175 1040 q 1190 1013 1190 1019 q 1176 996 1190 1001 l 996 907 q 988 906 993 906 z "},"Ă":{"ha":906,"x_min":106,"x_max":1207,"o":"m 743 -232 q 665 -204 699 -232 q 631 -107 631 -176 q 652 3 631 -62 q 707 138 674 68 q 579 37 649 85 q 433 -40 510 -11 q 278 -64 357 -68 q 166 -11 200 -60 q 132 106 132 38 q 160 249 133 175 q 231 393 188 324 q 318 515 274 463 q 158 622 218 560 q 119 681 132 650 q 106 739 106 711 q 135 813 106 782 q 222 843 164 843 q 326 821 268 843 q 344 800 344 815 q 338 785 344 792 q 322 778 332 778 q 310 781 314 778 q 226 799 261 799 q 174 783 192 799 q 157 743 157 767 q 206 647 157 701 q 353 554 254 593 q 513 689 424 628 q 706 786 601 750 q 925 822 810 822 q 947 822 936 822 q 967 821 957 822 q 1144 766 1086 814 q 1201 658 1201 718 q 1143 540 1201 599 q 974 456 1085 481 q 935 447 956 451 q 950 424 950 442 q 946 407 950 415 q 916 369 938 397 q 854 293 894 342 q 842 278 847 286 q 765 142 801 215 q 704 2 728 69 q 681 -108 681 -65 q 699 -169 681 -151 q 744 -186 718 -186 q 810 -168 776 -186 q 864 -128 844 -150 q 882 -118 872 -118 q 899 -125 892 -118 q 907 -142 907 -132 q 901 -157 907 -150 q 830 -211 874 -190 q 743 -232 786 -232 m 408 535 q 509 513 447 525 q 645 493 571 501 q 794 485 719 485 q 961 501 886 485 q 1105 565 1060 525 q 1150 649 1150 606 q 1101 729 1150 693 q 963 771 1053 765 q 940 772 951 772 q 918 772 929 772 q 636 706 768 772 q 404 536 504 639 l 408 535 m 182 106 q 297 -15 182 -15 q 444 17 371 -15 q 583 99 517 49 q 706 206 650 150 q 803 310 763 261 q 855 385 829 351 q 903 440 881 419 q 907 444 906 443 q 786 438 853 438 q 568 453 682 438 q 368 497 454 469 q 286 389 322 446 q 210 237 238 311 q 182 106 182 163 m 1044 904 q 949 930 981 904 q 918 986 918 956 q 928 1013 918 1001 q 947 1024 938 1024 q 957 1014 957 1024 q 977 966 957 982 q 1047 950 997 950 q 1118 967 1085 950 q 1165 1013 1151 983 q 1176 1025 1169 1022 q 1188 1028 1182 1028 q 1199 1024 1190 1028 q 1203 1007 1207 1019 q 1149 936 1192 968 q 1044 904 1106 904 z "},"Ắ":{"ha":906,"x_min":106,"x_max":1231,"o":"m 743 -232 q 665 -204 699 -232 q 631 -107 631 -176 q 652 3 631 -62 q 707 138 674 68 q 579 37 649 85 q 433 -40 510 -11 q 278 -64 357 -68 q 166 -11 200 -60 q 132 106 132 38 q 160 249 133 175 q 231 393 188 324 q 318 515 274 463 q 158 622 218 560 q 119 681 132 650 q 106 739 106 711 q 135 813 106 782 q 222 843 164 843 q 326 821 268 843 q 344 800 344 815 q 338 785 344 792 q 322 778 332 778 q 310 781 314 778 q 226 799 261 799 q 174 783 192 799 q 157 743 157 767 q 206 647 157 701 q 353 554 254 593 q 513 689 424 628 q 706 786 601 750 q 925 822 810 822 q 947 822 936 822 q 967 821 957 822 q 1144 766 1086 814 q 1201 658 1201 718 q 1143 540 1201 599 q 974 456 1085 481 q 935 447 956 451 q 950 424 950 442 q 946 407 950 415 q 916 369 938 397 q 854 293 894 342 q 842 278 847 286 q 765 142 801 215 q 704 2 728 69 q 681 -108 681 -65 q 699 -169 681 -151 q 744 -186 718 -186 q 810 -168 776 -186 q 864 -128 844 -150 q 882 -118 872 -118 q 899 -125 892 -118 q 907 -142 907 -132 q 901 -157 907 -150 q 830 -211 874 -190 q 743 -232 786 -232 m 408 535 q 509 513 447 525 q 645 493 571 501 q 794 485 719 485 q 961 501 886 485 q 1105 565 1060 525 q 1150 649 1150 606 q 1101 729 1150 693 q 963 771 1053 765 q 940 772 951 772 q 918 772 929 772 q 636 706 768 772 q 404 536 504 639 l 408 535 m 182 106 q 297 -15 182 -15 q 444 17 371 -15 q 583 99 517 49 q 706 206 650 150 q 803 310 763 261 q 855 385 829 351 q 903 440 881 419 q 907 444 906 443 q 786 438 853 438 q 568 453 682 438 q 368 497 454 469 q 286 389 322 446 q 210 237 238 311 q 182 106 182 163 m 1044 904 q 949 930 981 904 q 918 986 918 956 q 928 1013 918 1001 q 947 1024 938 1024 q 957 1014 957 1024 q 977 966 957 982 q 1047 950 997 950 q 1118 967 1085 950 q 1165 1013 1151 983 q 1176 1025 1169 1022 q 1188 1028 1182 1028 q 1199 1024 1190 1028 q 1203 1007 1207 1019 q 1149 936 1192 968 q 1044 904 1106 904 m 1028 1056 q 1017 1060 1022 1057 q 1010 1075 1013 1064 l 1010 1078 q 1013 1086 1010 1083 q 1018 1092 1015 1089 l 1196 1189 q 1208 1192 1200 1192 q 1223 1180 1215 1190 q 1231 1163 1231 1169 q 1217 1146 1231 1151 l 1036 1057 q 1028 1056 1033 1056 z "},"Ặ":{"ha":906,"x_min":106,"x_max":1207,"o":"m 743 -232 q 665 -204 699 -232 q 631 -107 631 -176 q 652 3 631 -62 q 707 138 674 68 q 579 37 649 85 q 433 -40 510 -11 q 278 -64 357 -68 q 166 -11 200 -60 q 132 106 132 38 q 160 249 133 175 q 231 393 188 324 q 318 515 274 463 q 158 622 218 560 q 119 681 132 650 q 106 739 106 711 q 135 813 106 782 q 222 843 164 843 q 326 821 268 843 q 344 800 344 815 q 338 785 344 792 q 322 778 332 778 q 310 781 314 778 q 226 799 261 799 q 174 783 192 799 q 157 743 157 767 q 206 647 157 701 q 353 554 254 593 q 513 689 424 628 q 706 786 601 750 q 925 822 810 822 q 947 822 936 822 q 967 821 957 822 q 1144 766 1086 814 q 1201 658 1201 718 q 1143 540 1201 599 q 974 456 1085 481 q 935 447 956 451 q 950 424 950 442 q 946 407 950 415 q 916 369 938 397 q 854 293 894 342 q 842 278 847 286 q 765 142 801 215 q 704 2 728 69 q 681 -108 681 -65 q 699 -169 681 -151 q 744 -186 718 -186 q 810 -168 776 -186 q 864 -128 844 -150 q 882 -118 872 -118 q 899 -125 892 -118 q 907 -142 907 -132 q 901 -157 907 -150 q 830 -211 874 -190 q 743 -232 786 -232 m 408 535 q 509 513 447 525 q 645 493 571 501 q 794 485 719 485 q 961 501 886 485 q 1105 565 1060 525 q 1150 649 1150 606 q 1101 729 1150 693 q 963 771 1053 765 q 940 772 951 772 q 918 772 929 772 q 636 706 768 772 q 404 536 504 639 l 408 535 m 182 106 q 297 -15 182 -15 q 444 17 371 -15 q 583 99 517 49 q 706 206 650 150 q 803 310 763 261 q 855 385 829 351 q 903 440 881 419 q 907 444 906 443 q 786 438 853 438 q 568 453 682 438 q 368 497 454 469 q 286 389 322 446 q 210 237 238 311 q 182 106 182 163 m 342 -224 q 314 -212 325 -224 q 303 -185 303 -200 q 314 -158 303 -168 q 342 -147 325 -147 q 369 -158 358 -147 q 379 -185 379 -168 q 369 -212 379 -200 q 342 -224 358 -224 m 1044 904 q 949 930 981 904 q 918 986 918 956 q 928 1013 918 1001 q 947 1024 938 1024 q 957 1014 957 1024 q 977 966 957 982 q 1047 950 997 950 q 1118 967 1085 950 q 1165 1013 1151 983 q 1176 1025 1169 1022 q 1188 1028 1182 1028 q 1199 1024 1190 1028 q 1203 1007 1207 1019 q 1149 936 1192 968 q 1044 904 1106 904 z "},"Ằ":{"ha":906,"x_min":106,"x_max":1207,"o":"m 743 -232 q 665 -204 699 -232 q 631 -107 631 -176 q 652 3 631 -62 q 707 138 674 68 q 579 37 649 85 q 433 -40 510 -11 q 278 -64 357 -68 q 166 -11 200 -60 q 132 106 132 38 q 160 249 133 175 q 231 393 188 324 q 318 515 274 463 q 158 622 218 560 q 119 681 132 650 q 106 739 106 711 q 135 813 106 782 q 222 843 164 843 q 326 821 268 843 q 344 800 344 815 q 338 785 344 792 q 322 778 332 778 q 310 781 314 778 q 226 799 261 799 q 174 783 192 799 q 157 743 157 767 q 206 647 157 701 q 353 554 254 593 q 513 689 424 628 q 706 786 601 750 q 925 822 810 822 q 947 822 936 822 q 967 821 957 822 q 1144 766 1086 814 q 1201 658 1201 718 q 1143 540 1201 599 q 974 456 1085 481 q 935 447 956 451 q 950 424 950 442 q 946 407 950 415 q 916 369 938 397 q 854 293 894 342 q 842 278 847 286 q 765 142 801 215 q 704 2 728 69 q 681 -108 681 -65 q 699 -169 681 -151 q 744 -186 718 -186 q 810 -168 776 -186 q 864 -128 844 -150 q 882 -118 872 -118 q 899 -125 892 -118 q 907 -142 907 -132 q 901 -157 907 -150 q 830 -211 874 -190 q 743 -232 786 -232 m 408 535 q 509 513 447 525 q 645 493 571 501 q 794 485 719 485 q 961 501 886 485 q 1105 565 1060 525 q 1150 649 1150 606 q 1101 729 1150 693 q 963 771 1053 765 q 940 772 951 772 q 918 772 929 772 q 636 706 768 772 q 404 536 504 639 l 408 535 m 182 106 q 297 -15 182 -15 q 444 17 371 -15 q 583 99 517 49 q 706 206 650 150 q 803 310 763 261 q 855 385 829 351 q 903 440 881 419 q 907 444 906 443 q 786 438 853 438 q 568 453 682 438 q 368 497 454 469 q 286 389 322 446 q 210 237 238 311 q 182 106 182 163 m 1044 904 q 949 930 981 904 q 918 986 918 956 q 928 1013 918 1001 q 947 1024 938 1024 q 957 1014 957 1024 q 977 966 957 982 q 1047 950 997 950 q 1118 967 1085 950 q 1165 1013 1151 983 q 1176 1025 1169 1022 q 1188 1028 1182 1028 q 1199 1024 1190 1028 q 1203 1007 1207 1019 q 1149 936 1192 968 q 1044 904 1106 904 m 1140 1056 q 1132 1057 1135 1056 l 951 1146 q 938 1161 940 1150 l 938 1163 q 945 1180 938 1169 q 960 1192 953 1190 q 972 1189 968 1192 l 1150 1092 q 1156 1085 1153 1089 q 1158 1075 1160 1082 q 1151 1060 1156 1064 q 1140 1056 1147 1057 z "},"Ẳ":{"ha":906,"x_min":106,"x_max":1207,"o":"m 743 -232 q 665 -204 699 -232 q 631 -107 631 -176 q 652 3 631 -62 q 707 138 674 68 q 579 37 649 85 q 433 -40 510 -11 q 278 -64 357 -68 q 166 -11 200 -60 q 132 106 132 38 q 160 249 133 175 q 231 393 188 324 q 318 515 274 463 q 158 622 218 560 q 119 681 132 650 q 106 739 106 711 q 135 813 106 782 q 222 843 164 843 q 326 821 268 843 q 344 800 344 815 q 338 785 344 792 q 322 778 332 778 q 310 781 314 778 q 226 799 261 799 q 174 783 192 799 q 157 743 157 767 q 206 647 157 701 q 353 554 254 593 q 513 689 424 628 q 706 786 601 750 q 925 822 810 822 q 947 822 936 822 q 967 821 957 822 q 1144 766 1086 814 q 1201 658 1201 718 q 1143 540 1201 599 q 974 456 1085 481 q 935 447 956 451 q 950 424 950 442 q 946 407 950 415 q 916 369 938 397 q 854 293 894 342 q 842 278 847 286 q 765 142 801 215 q 704 2 728 69 q 681 -108 681 -65 q 699 -169 681 -151 q 744 -186 718 -186 q 810 -168 776 -186 q 864 -128 844 -150 q 882 -118 872 -118 q 899 -125 892 -118 q 907 -142 907 -132 q 901 -157 907 -150 q 830 -211 874 -190 q 743 -232 786 -232 m 408 535 q 509 513 447 525 q 645 493 571 501 q 794 485 719 485 q 961 501 886 485 q 1105 565 1060 525 q 1150 649 1150 606 q 1101 729 1150 693 q 963 771 1053 765 q 940 772 951 772 q 918 772 929 772 q 636 706 768 772 q 404 536 504 639 l 408 535 m 182 106 q 297 -15 182 -15 q 444 17 371 -15 q 583 99 517 49 q 706 206 650 150 q 803 310 763 261 q 855 385 829 351 q 903 440 881 419 q 907 444 906 443 q 786 438 853 438 q 568 453 682 438 q 368 497 454 469 q 286 389 322 446 q 210 237 238 311 q 182 106 182 163 m 1044 904 q 949 930 981 904 q 918 986 918 956 q 928 1013 918 1001 q 947 1024 938 1024 q 957 1014 957 1024 q 977 966 957 982 q 1047 950 997 950 q 1118 967 1085 950 q 1165 1013 1151 983 q 1176 1025 1169 1022 q 1188 1028 1182 1028 q 1199 1024 1190 1028 q 1203 1007 1207 1019 q 1149 936 1192 968 q 1044 904 1106 904 m 1079 1042 q 1068 1051 1068 1042 q 1074 1064 1068 1058 q 1119 1096 1097 1083 q 1142 1135 1142 1108 q 1133 1162 1142 1154 q 1113 1169 1124 1169 q 1074 1160 1092 1169 q 1042 1144 1056 1151 q 1029 1140 1033 1140 q 1018 1150 1018 1140 q 1019 1163 1018 1153 q 1031 1178 1021 1172 q 1078 1203 1056 1193 q 1129 1214 1100 1214 q 1178 1192 1161 1214 q 1194 1146 1194 1169 q 1169 1088 1194 1108 q 1117 1053 1144 1068 q 1079 1042 1099 1042 z "},"Ẵ":{"ha":906,"x_min":106,"x_max":1235,"o":"m 743 -232 q 665 -204 699 -232 q 631 -107 631 -176 q 652 3 631 -62 q 707 138 674 68 q 579 37 649 85 q 433 -40 510 -11 q 278 -64 357 -68 q 166 -11 200 -60 q 132 106 132 38 q 160 249 133 175 q 231 393 188 324 q 318 515 274 463 q 158 622 218 560 q 119 681 132 650 q 106 739 106 711 q 135 813 106 782 q 222 843 164 843 q 326 821 268 843 q 344 800 344 815 q 338 785 344 792 q 322 778 332 778 q 310 781 314 778 q 226 799 261 799 q 174 783 192 799 q 157 743 157 767 q 206 647 157 701 q 353 554 254 593 q 513 689 424 628 q 706 786 601 750 q 925 822 810 822 q 947 822 936 822 q 967 821 957 822 q 1144 766 1086 814 q 1201 658 1201 718 q 1143 540 1201 599 q 974 456 1085 481 q 935 447 956 451 q 950 424 950 442 q 946 407 950 415 q 916 369 938 397 q 854 293 894 342 q 842 278 847 286 q 765 142 801 215 q 704 2 728 69 q 681 -108 681 -65 q 699 -169 681 -151 q 744 -186 718 -186 q 810 -168 776 -186 q 864 -128 844 -150 q 882 -118 872 -118 q 899 -125 892 -118 q 907 -142 907 -132 q 901 -157 907 -150 q 830 -211 874 -190 q 743 -232 786 -232 m 408 535 q 509 513 447 525 q 645 493 571 501 q 794 485 719 485 q 961 501 886 485 q 1105 565 1060 525 q 1150 649 1150 606 q 1101 729 1150 693 q 963 771 1053 765 q 940 772 951 772 q 918 772 929 772 q 636 706 768 772 q 404 536 504 639 l 408 535 m 182 106 q 297 -15 182 -15 q 444 17 371 -15 q 583 99 517 49 q 706 206 650 150 q 803 310 763 261 q 855 385 829 351 q 903 440 881 419 q 907 444 906 443 q 786 438 853 438 q 568 453 682 438 q 368 497 454 469 q 286 389 322 446 q 210 237 238 311 q 182 106 182 163 m 1044 904 q 949 930 981 904 q 918 986 918 956 q 928 1013 918 1001 q 947 1024 938 1024 q 957 1014 957 1024 q 977 966 957 982 q 1047 950 997 950 q 1118 967 1085 950 q 1165 1013 1151 983 q 1176 1025 1169 1022 q 1188 1028 1182 1028 q 1199 1024 1190 1028 q 1203 1007 1207 1019 q 1149 936 1192 968 q 1044 904 1106 904 m 964 1047 q 946 1068 946 1047 q 950 1082 946 1076 q 992 1128 969 1110 q 1043 1147 1014 1147 q 1079 1136 1063 1147 q 1108 1117 1096 1125 q 1133 1103 1119 1110 q 1153 1097 1146 1097 q 1177 1105 1163 1097 q 1197 1128 1192 1113 q 1203 1133 1200 1131 q 1213 1136 1207 1136 q 1229 1126 1224 1136 q 1229 1104 1235 1115 q 1151 1049 1203 1049 q 1111 1063 1129 1049 q 1082 1082 1093 1076 q 1036 1100 1050 1100 q 1008 1089 1025 1100 q 976 1054 992 1078 q 964 1047 972 1047 z "},"Ǎ":{"ha":906,"x_min":106,"x_max":1224,"o":"m 1210 1035 q 1220 1026 1217 1035 q 1224 1011 1224 1018 q 1215 993 1224 997 l 1056 908 q 1042 904 1050 904 q 1029 908 1033 904 l 939 994 q 935 1004 935 999 q 946 1025 935 1014 q 968 1026 957 1036 l 1049 958 l 1196 1029 q 1210 1035 1206 1035 m 743 -232 q 665 -204 699 -232 q 631 -107 631 -176 q 652 3 631 -62 q 707 138 674 68 q 579 37 649 85 q 433 -40 510 -11 q 278 -64 357 -68 q 166 -11 200 -60 q 132 106 132 38 q 160 249 133 175 q 231 393 188 324 q 318 515 274 463 q 158 622 218 560 q 119 681 132 650 q 106 739 106 711 q 135 813 106 782 q 222 843 164 843 q 326 821 268 843 q 344 800 344 815 q 338 785 344 792 q 322 778 332 778 q 310 781 314 778 q 226 799 261 799 q 174 783 192 799 q 157 743 157 767 q 206 647 157 701 q 353 554 254 593 q 513 689 424 628 q 706 786 601 750 q 925 822 810 822 q 947 822 936 822 q 967 821 957 822 q 1144 766 1086 814 q 1201 658 1201 718 q 1143 540 1201 599 q 974 456 1085 481 q 935 447 956 451 q 950 424 950 442 q 946 407 950 415 q 916 369 938 397 q 854 293 894 342 q 842 278 847 286 q 765 142 801 215 q 704 2 728 69 q 681 -108 681 -65 q 699 -169 681 -151 q 744 -186 718 -186 q 810 -168 776 -186 q 864 -128 844 -150 q 882 -118 872 -118 q 899 -125 892 -118 q 907 -142 907 -132 q 901 -157 907 -150 q 830 -211 874 -190 q 743 -232 786 -232 m 408 535 q 509 513 447 525 q 645 493 571 501 q 794 485 719 485 q 961 501 886 485 q 1105 565 1060 525 q 1150 649 1150 606 q 1101 729 1150 693 q 963 771 1053 765 q 940 772 951 772 q 918 772 929 772 q 636 706 768 772 q 404 536 504 639 l 408 535 m 182 106 q 297 -15 182 -15 q 444 17 371 -15 q 583 99 517 49 q 706 206 650 150 q 803 310 763 261 q 855 385 829 351 q 903 440 881 419 q 907 444 906 443 q 786 438 853 438 q 568 453 682 438 q 368 497 454 469 q 286 389 322 446 q 210 237 238 311 q 182 106 182 163 z "},"Â":{"ha":906,"x_min":106,"x_max":1201,"o":"m 743 -232 q 665 -204 699 -232 q 631 -107 631 -176 q 652 3 631 -62 q 707 138 674 68 q 579 37 649 85 q 433 -40 510 -11 q 278 -64 357 -68 q 166 -11 200 -60 q 132 106 132 38 q 160 249 133 175 q 231 393 188 324 q 318 515 274 463 q 158 622 218 560 q 119 681 132 650 q 106 739 106 711 q 135 813 106 782 q 222 843 164 843 q 326 821 268 843 q 344 800 344 815 q 338 785 344 792 q 322 778 332 778 q 310 781 314 778 q 226 799 261 799 q 174 783 192 799 q 157 743 157 767 q 206 647 157 701 q 353 554 254 593 q 513 689 424 628 q 706 786 601 750 q 925 822 810 822 q 947 822 936 822 q 967 821 957 822 q 1144 766 1086 814 q 1201 658 1201 718 q 1143 540 1201 599 q 974 456 1085 481 q 935 447 956 451 q 950 424 950 442 q 946 407 950 415 q 916 369 938 397 q 854 293 894 342 q 842 278 847 286 q 765 142 801 215 q 704 2 728 69 q 681 -108 681 -65 q 699 -169 681 -151 q 744 -186 718 -186 q 810 -168 776 -186 q 864 -128 844 -150 q 882 -118 872 -118 q 899 -125 892 -118 q 907 -142 907 -132 q 901 -157 907 -150 q 830 -211 874 -190 q 743 -232 786 -232 m 408 535 q 509 513 447 525 q 645 493 571 501 q 794 485 719 485 q 961 501 886 485 q 1105 565 1060 525 q 1150 649 1150 606 q 1101 729 1150 693 q 963 771 1053 765 q 940 772 951 772 q 918 772 929 772 q 636 706 768 772 q 404 536 504 639 l 408 535 m 182 106 q 297 -15 182 -15 q 444 17 371 -15 q 583 99 517 49 q 706 206 650 150 q 803 310 763 261 q 855 385 829 351 q 903 440 881 419 q 907 444 906 443 q 786 438 853 438 q 568 453 682 438 q 368 497 454 469 q 286 389 322 446 q 210 237 238 311 q 182 106 182 163 m 913 896 q 903 905 907 896 q 899 919 899 914 q 907 938 899 933 l 1067 1022 q 1081 1026 1074 1026 q 1093 1022 1089 1026 l 1183 936 q 1188 926 1188 932 q 1176 906 1188 917 q 1154 904 1165 894 l 1074 972 l 926 901 q 913 896 917 896 z "},"Ấ":{"ha":906,"x_min":106,"x_max":1390,"o":"m 743 -232 q 665 -204 699 -232 q 631 -107 631 -176 q 652 3 631 -62 q 707 138 674 68 q 579 37 649 85 q 433 -40 510 -11 q 278 -64 357 -68 q 166 -11 200 -60 q 132 106 132 38 q 160 249 133 175 q 231 393 188 324 q 318 515 274 463 q 158 622 218 560 q 119 681 132 650 q 106 739 106 711 q 135 813 106 782 q 222 843 164 843 q 326 821 268 843 q 344 800 344 815 q 338 785 344 792 q 322 778 332 778 q 310 781 314 778 q 226 799 261 799 q 174 783 192 799 q 157 743 157 767 q 206 647 157 701 q 353 554 254 593 q 513 689 424 628 q 706 786 601 750 q 925 822 810 822 q 947 822 936 822 q 967 821 957 822 q 1144 766 1086 814 q 1201 658 1201 718 q 1143 540 1201 599 q 974 456 1085 481 q 935 447 956 451 q 950 424 950 442 q 946 407 950 415 q 916 369 938 397 q 854 293 894 342 q 842 278 847 286 q 765 142 801 215 q 704 2 728 69 q 681 -108 681 -65 q 699 -169 681 -151 q 744 -186 718 -186 q 810 -168 776 -186 q 864 -128 844 -150 q 882 -118 872 -118 q 899 -125 892 -118 q 907 -142 907 -132 q 901 -157 907 -150 q 830 -211 874 -190 q 743 -232 786 -232 m 408 535 q 509 513 447 525 q 645 493 571 501 q 794 485 719 485 q 961 501 886 485 q 1105 565 1060 525 q 1150 649 1150 606 q 1101 729 1150 693 q 963 771 1053 765 q 940 772 951 772 q 918 772 929 772 q 636 706 768 772 q 404 536 504 639 l 408 535 m 182 106 q 297 -15 182 -15 q 444 17 371 -15 q 583 99 517 49 q 706 206 650 150 q 803 310 763 261 q 855 385 829 351 q 903 440 881 419 q 907 444 906 443 q 786 438 853 438 q 568 453 682 438 q 368 497 454 469 q 286 389 322 446 q 210 237 238 311 q 182 106 182 163 m 913 896 q 903 905 907 896 q 899 919 899 914 q 907 938 899 933 l 1067 1022 q 1081 1026 1074 1026 q 1093 1022 1089 1026 l 1183 936 q 1188 926 1188 932 q 1176 906 1188 917 q 1154 904 1165 894 l 1074 972 l 926 901 q 913 896 917 896 m 1188 1004 q 1177 1009 1182 1006 q 1169 1024 1172 1013 l 1169 1026 q 1172 1035 1169 1032 q 1178 1040 1175 1038 l 1356 1138 q 1368 1140 1360 1140 q 1383 1128 1375 1139 q 1390 1111 1390 1118 q 1376 1094 1390 1100 l 1196 1006 q 1188 1004 1193 1004 z "},"Ậ":{"ha":906,"x_min":106,"x_max":1201,"o":"m 743 -232 q 665 -204 699 -232 q 631 -107 631 -176 q 652 3 631 -62 q 707 138 674 68 q 579 37 649 85 q 433 -40 510 -11 q 278 -64 357 -68 q 166 -11 200 -60 q 132 106 132 38 q 160 249 133 175 q 231 393 188 324 q 318 515 274 463 q 158 622 218 560 q 119 681 132 650 q 106 739 106 711 q 135 813 106 782 q 222 843 164 843 q 326 821 268 843 q 344 800 344 815 q 338 785 344 792 q 322 778 332 778 q 310 781 314 778 q 226 799 261 799 q 174 783 192 799 q 157 743 157 767 q 206 647 157 701 q 353 554 254 593 q 513 689 424 628 q 706 786 601 750 q 925 822 810 822 q 947 822 936 822 q 967 821 957 822 q 1144 766 1086 814 q 1201 658 1201 718 q 1143 540 1201 599 q 974 456 1085 481 q 935 447 956 451 q 950 424 950 442 q 946 407 950 415 q 916 369 938 397 q 854 293 894 342 q 842 278 847 286 q 765 142 801 215 q 704 2 728 69 q 681 -108 681 -65 q 699 -169 681 -151 q 744 -186 718 -186 q 810 -168 776 -186 q 864 -128 844 -150 q 882 -118 872 -118 q 899 -125 892 -118 q 907 -142 907 -132 q 901 -157 907 -150 q 830 -211 874 -190 q 743 -232 786 -232 m 408 535 q 509 513 447 525 q 645 493 571 501 q 794 485 719 485 q 961 501 886 485 q 1105 565 1060 525 q 1150 649 1150 606 q 1101 729 1150 693 q 963 771 1053 765 q 940 772 951 772 q 918 772 929 772 q 636 706 768 772 q 404 536 504 639 l 408 535 m 182 106 q 297 -15 182 -15 q 444 17 371 -15 q 583 99 517 49 q 706 206 650 150 q 803 310 763 261 q 855 385 829 351 q 903 440 881 419 q 907 444 906 443 q 786 438 853 438 q 568 453 682 438 q 368 497 454 469 q 286 389 322 446 q 210 237 238 311 q 182 106 182 163 m 342 -224 q 314 -212 325 -224 q 303 -185 303 -200 q 314 -158 303 -168 q 342 -147 325 -147 q 369 -158 358 -147 q 379 -185 379 -168 q 369 -212 379 -200 q 342 -224 358 -224 m 913 896 q 903 905 907 896 q 899 919 899 914 q 907 938 899 933 l 1067 1022 q 1081 1026 1074 1026 q 1093 1022 1089 1026 l 1183 936 q 1188 926 1188 932 q 1176 906 1188 917 q 1154 904 1165 894 l 1074 972 l 926 901 q 913 896 917 896 z "},"Ầ":{"ha":906,"x_min":106,"x_max":1224,"o":"m 743 -232 q 665 -204 699 -232 q 631 -107 631 -176 q 652 3 631 -62 q 707 138 674 68 q 579 37 649 85 q 433 -40 510 -11 q 278 -64 357 -68 q 166 -11 200 -60 q 132 106 132 38 q 160 249 133 175 q 231 393 188 324 q 318 515 274 463 q 158 622 218 560 q 119 681 132 650 q 106 739 106 711 q 135 813 106 782 q 222 843 164 843 q 326 821 268 843 q 344 800 344 815 q 338 785 344 792 q 322 778 332 778 q 310 781 314 778 q 226 799 261 799 q 174 783 192 799 q 157 743 157 767 q 206 647 157 701 q 353 554 254 593 q 513 689 424 628 q 706 786 601 750 q 925 822 810 822 q 947 822 936 822 q 967 821 957 822 q 1144 766 1086 814 q 1201 658 1201 718 q 1143 540 1201 599 q 974 456 1085 481 q 935 447 956 451 q 950 424 950 442 q 946 407 950 415 q 916 369 938 397 q 854 293 894 342 q 842 278 847 286 q 765 142 801 215 q 704 2 728 69 q 681 -108 681 -65 q 699 -169 681 -151 q 744 -186 718 -186 q 810 -168 776 -186 q 864 -128 844 -150 q 882 -118 872 -118 q 899 -125 892 -118 q 907 -142 907 -132 q 901 -157 907 -150 q 830 -211 874 -190 q 743 -232 786 -232 m 408 535 q 509 513 447 525 q 645 493 571 501 q 794 485 719 485 q 961 501 886 485 q 1105 565 1060 525 q 1150 649 1150 606 q 1101 729 1150 693 q 963 771 1053 765 q 940 772 951 772 q 918 772 929 772 q 636 706 768 772 q 404 536 504 639 l 408 535 m 182 106 q 297 -15 182 -15 q 444 17 371 -15 q 583 99 517 49 q 706 206 650 150 q 803 310 763 261 q 855 385 829 351 q 903 440 881 419 q 907 444 906 443 q 786 438 853 438 q 568 453 682 438 q 368 497 454 469 q 286 389 322 446 q 210 237 238 311 q 182 106 182 163 m 913 896 q 903 905 907 896 q 899 919 899 914 q 907 938 899 933 l 1067 1022 q 1081 1026 1074 1026 q 1093 1022 1089 1026 l 1183 936 q 1188 926 1188 932 q 1176 906 1188 917 q 1154 904 1165 894 l 1074 972 l 926 901 q 913 896 917 896 m 1204 1038 q 1196 1039 1199 1038 l 1015 1128 q 1001 1143 1004 1132 l 1001 1144 q 1009 1162 1001 1151 q 1024 1174 1017 1172 q 1036 1171 1032 1174 l 1214 1074 q 1220 1067 1217 1071 q 1222 1057 1224 1064 q 1215 1042 1219 1046 q 1204 1038 1211 1039 z "},"Ẩ":{"ha":906,"x_min":106,"x_max":1311,"o":"m 743 -232 q 665 -204 699 -232 q 631 -107 631 -176 q 652 3 631 -62 q 707 138 674 68 q 579 37 649 85 q 433 -40 510 -11 q 278 -64 357 -68 q 166 -11 200 -60 q 132 106 132 38 q 160 249 133 175 q 231 393 188 324 q 318 515 274 463 q 158 622 218 560 q 119 681 132 650 q 106 739 106 711 q 135 813 106 782 q 222 843 164 843 q 326 821 268 843 q 344 800 344 815 q 338 785 344 792 q 322 778 332 778 q 310 781 314 778 q 226 799 261 799 q 174 783 192 799 q 157 743 157 767 q 206 647 157 701 q 353 554 254 593 q 513 689 424 628 q 706 786 601 750 q 925 822 810 822 q 947 822 936 822 q 967 821 957 822 q 1144 766 1086 814 q 1201 658 1201 718 q 1143 540 1201 599 q 974 456 1085 481 q 935 447 956 451 q 950 424 950 442 q 946 407 950 415 q 916 369 938 397 q 854 293 894 342 q 842 278 847 286 q 765 142 801 215 q 704 2 728 69 q 681 -108 681 -65 q 699 -169 681 -151 q 744 -186 718 -186 q 810 -168 776 -186 q 864 -128 844 -150 q 882 -118 872 -118 q 899 -125 892 -118 q 907 -142 907 -132 q 901 -157 907 -150 q 830 -211 874 -190 q 743 -232 786 -232 m 408 535 q 509 513 447 525 q 645 493 571 501 q 794 485 719 485 q 961 501 886 485 q 1105 565 1060 525 q 1150 649 1150 606 q 1101 729 1150 693 q 963 771 1053 765 q 940 772 951 772 q 918 772 929 772 q 636 706 768 772 q 404 536 504 639 l 408 535 m 182 106 q 297 -15 182 -15 q 444 17 371 -15 q 583 99 517 49 q 706 206 650 150 q 803 310 763 261 q 855 385 829 351 q 903 440 881 419 q 907 444 906 443 q 786 438 853 438 q 568 453 682 438 q 368 497 454 469 q 286 389 322 446 q 210 237 238 311 q 182 106 182 163 m 913 896 q 903 905 907 896 q 899 919 899 914 q 907 938 899 933 l 1067 1022 q 1081 1026 1074 1026 q 1093 1022 1089 1026 l 1183 936 q 1188 926 1188 932 q 1176 906 1188 917 q 1154 904 1165 894 l 1074 972 l 926 901 q 913 896 917 896 m 1196 1011 q 1185 1021 1185 1011 q 1190 1033 1185 1028 q 1236 1065 1214 1053 q 1258 1104 1258 1078 q 1249 1131 1258 1124 q 1229 1139 1240 1139 q 1190 1130 1208 1139 q 1158 1114 1172 1121 q 1146 1110 1150 1110 q 1135 1119 1135 1110 q 1136 1132 1135 1122 q 1147 1147 1138 1142 q 1194 1173 1172 1163 q 1246 1183 1217 1183 q 1294 1161 1278 1183 q 1311 1115 1311 1139 q 1286 1058 1311 1078 q 1233 1022 1261 1038 q 1196 1011 1215 1011 z "},"Ẫ":{"ha":906,"x_min":106,"x_max":1242,"o":"m 743 -232 q 665 -204 699 -232 q 631 -107 631 -176 q 652 3 631 -62 q 707 138 674 68 q 579 37 649 85 q 433 -40 510 -11 q 278 -64 357 -68 q 166 -11 200 -60 q 132 106 132 38 q 160 249 133 175 q 231 393 188 324 q 318 515 274 463 q 158 622 218 560 q 119 681 132 650 q 106 739 106 711 q 135 813 106 782 q 222 843 164 843 q 326 821 268 843 q 344 800 344 815 q 338 785 344 792 q 322 778 332 778 q 310 781 314 778 q 226 799 261 799 q 174 783 192 799 q 157 743 157 767 q 206 647 157 701 q 353 554 254 593 q 513 689 424 628 q 706 786 601 750 q 925 822 810 822 q 947 822 936 822 q 967 821 957 822 q 1144 766 1086 814 q 1201 658 1201 718 q 1143 540 1201 599 q 974 456 1085 481 q 935 447 956 451 q 950 424 950 442 q 946 407 950 415 q 916 369 938 397 q 854 293 894 342 q 842 278 847 286 q 765 142 801 215 q 704 2 728 69 q 681 -108 681 -65 q 699 -169 681 -151 q 744 -186 718 -186 q 810 -168 776 -186 q 864 -128 844 -150 q 882 -118 872 -118 q 899 -125 892 -118 q 907 -142 907 -132 q 901 -157 907 -150 q 830 -211 874 -190 q 743 -232 786 -232 m 408 535 q 509 513 447 525 q 645 493 571 501 q 794 485 719 485 q 961 501 886 485 q 1105 565 1060 525 q 1150 649 1150 606 q 1101 729 1150 693 q 963 771 1053 765 q 940 772 951 772 q 918 772 929 772 q 636 706 768 772 q 404 536 504 639 l 408 535 m 182 106 q 297 -15 182 -15 q 444 17 371 -15 q 583 99 517 49 q 706 206 650 150 q 803 310 763 261 q 855 385 829 351 q 903 440 881 419 q 907 444 906 443 q 786 438 853 438 q 568 453 682 438 q 368 497 454 469 q 286 389 322 446 q 210 237 238 311 q 182 106 182 163 m 913 896 q 903 905 907 896 q 899 919 899 914 q 907 938 899 933 l 1067 1022 q 1081 1026 1074 1026 q 1093 1022 1089 1026 l 1183 936 q 1188 926 1188 932 q 1176 906 1188 917 q 1154 904 1165 894 l 1074 972 l 926 901 q 913 896 917 896 m 971 1049 q 953 1069 953 1049 q 957 1083 953 1078 q 999 1130 976 1111 q 1050 1149 1021 1149 q 1086 1138 1069 1149 q 1115 1118 1103 1126 q 1140 1105 1126 1111 q 1160 1099 1153 1099 q 1184 1106 1169 1099 q 1204 1129 1199 1114 q 1210 1135 1207 1132 q 1219 1138 1214 1138 q 1236 1127 1231 1138 q 1236 1106 1242 1117 q 1158 1050 1210 1050 q 1118 1064 1136 1050 q 1089 1083 1100 1078 q 1043 1101 1057 1101 q 1015 1090 1032 1101 q 983 1056 999 1079 q 971 1049 979 1049 z "},"Ȁ":{"ha":906,"x_min":106,"x_max":1201,"o":"m 1093 897 q 1086 900 1088 899 l 932 1031 q 922 1049 922 1038 l 922 1050 q 935 1065 925 1057 q 951 1072 944 1074 q 963 1067 960 1071 l 1111 929 q 1116 922 1114 926 q 1115 911 1118 918 q 1105 899 1110 901 q 1093 897 1100 897 m 989 899 q 981 901 983 900 l 810 1008 q 799 1025 799 1014 l 799 1026 q 808 1043 799 1033 q 824 1053 817 1053 q 836 1049 832 1053 l 1003 933 q 1008 926 1006 931 q 1008 917 1011 922 q 999 903 1004 906 q 989 899 994 900 m 743 -232 q 665 -204 699 -232 q 631 -107 631 -176 q 652 3 631 -62 q 707 138 674 68 q 579 37 649 85 q 433 -40 510 -11 q 278 -64 357 -68 q 166 -11 200 -60 q 132 106 132 38 q 160 249 133 175 q 231 393 188 324 q 318 515 274 463 q 158 622 218 560 q 119 681 132 650 q 106 739 106 711 q 135 813 106 782 q 222 843 164 843 q 326 821 268 843 q 344 800 344 815 q 338 785 344 792 q 322 778 332 778 q 310 781 314 778 q 226 799 261 799 q 174 783 192 799 q 157 743 157 767 q 206 647 157 701 q 353 554 254 593 q 513 689 424 628 q 706 786 601 750 q 925 822 810 822 q 947 822 936 822 q 967 821 957 822 q 1144 766 1086 814 q 1201 658 1201 718 q 1143 540 1201 599 q 974 456 1085 481 q 935 447 956 451 q 950 424 950 442 q 946 407 950 415 q 916 369 938 397 q 854 293 894 342 q 842 278 847 286 q 765 142 801 215 q 704 2 728 69 q 681 -108 681 -65 q 699 -169 681 -151 q 744 -186 718 -186 q 810 -168 776 -186 q 864 -128 844 -150 q 882 -118 872 -118 q 899 -125 892 -118 q 907 -142 907 -132 q 901 -157 907 -150 q 830 -211 874 -190 q 743 -232 786 -232 m 408 535 q 509 513 447 525 q 645 493 571 501 q 794 485 719 485 q 961 501 886 485 q 1105 565 1060 525 q 1150 649 1150 606 q 1101 729 1150 693 q 963 771 1053 765 q 940 772 951 772 q 918 772 929 772 q 636 706 768 772 q 404 536 504 639 l 408 535 m 182 106 q 297 -15 182 -15 q 444 17 371 -15 q 583 99 517 49 q 706 206 650 150 q 803 310 763 261 q 855 385 829 351 q 903 440 881 419 q 907 444 906 443 q 786 438 853 438 q 568 453 682 438 q 368 497 454 469 q 286 389 322 446 q 210 237 238 311 q 182 106 182 163 z "},"Ä":{"ha":906,"x_min":106,"x_max":1201,"o":"m 743 -232 q 665 -204 699 -232 q 631 -107 631 -176 q 652 3 631 -62 q 707 138 674 68 q 579 37 649 85 q 433 -40 510 -11 q 278 -64 357 -68 q 166 -11 200 -60 q 132 106 132 38 q 160 249 133 175 q 231 393 188 324 q 318 515 274 463 q 158 622 218 560 q 119 681 132 650 q 106 739 106 711 q 135 813 106 782 q 222 843 164 843 q 326 821 268 843 q 344 800 344 815 q 338 785 344 792 q 322 778 332 778 q 310 781 314 778 q 226 799 261 799 q 174 783 192 799 q 157 743 157 767 q 206 647 157 701 q 353 554 254 593 q 513 689 424 628 q 706 786 601 750 q 925 822 810 822 q 947 822 936 822 q 967 821 957 822 q 1144 766 1086 814 q 1201 658 1201 718 q 1143 540 1201 599 q 974 456 1085 481 q 935 447 956 451 q 950 424 950 442 q 946 407 950 415 q 916 369 938 397 q 854 293 894 342 q 842 278 847 286 q 765 142 801 215 q 704 2 728 69 q 681 -108 681 -65 q 699 -169 681 -151 q 744 -186 718 -186 q 810 -168 776 -186 q 864 -128 844 -150 q 882 -118 872 -118 q 899 -125 892 -118 q 907 -142 907 -132 q 901 -157 907 -150 q 830 -211 874 -190 q 743 -232 786 -232 m 408 535 q 509 513 447 525 q 645 493 571 501 q 794 485 719 485 q 961 501 886 485 q 1105 565 1060 525 q 1150 649 1150 606 q 1101 729 1150 693 q 963 771 1053 765 q 940 772 951 772 q 918 772 929 772 q 636 706 768 772 q 404 536 504 639 l 408 535 m 182 106 q 297 -15 182 -15 q 444 17 371 -15 q 583 99 517 49 q 706 206 650 150 q 803 310 763 261 q 855 385 829 351 q 903 440 881 419 q 907 444 906 443 q 786 438 853 438 q 568 453 682 438 q 368 497 454 469 q 286 389 322 446 q 210 237 238 311 q 182 106 182 163 m 1128 906 q 1100 917 1111 906 q 1089 944 1089 929 q 1100 972 1089 961 q 1128 982 1111 982 q 1155 972 1144 982 q 1165 944 1165 961 q 1155 917 1165 929 q 1128 906 1144 906 m 964 906 q 936 917 947 906 q 925 944 925 929 q 936 972 925 961 q 964 982 947 982 q 991 972 981 982 q 1001 944 1001 961 q 991 917 1001 929 q 964 906 981 906 z "},"Ạ":{"ha":906,"x_min":106,"x_max":1201,"o":"m 743 -232 q 665 -204 699 -232 q 631 -107 631 -176 q 652 3 631 -62 q 707 138 674 68 q 579 37 649 85 q 433 -40 510 -11 q 278 -64 357 -68 q 166 -11 200 -60 q 132 106 132 38 q 160 249 133 175 q 231 393 188 324 q 318 515 274 463 q 158 622 218 560 q 119 681 132 650 q 106 739 106 711 q 135 813 106 782 q 222 843 164 843 q 326 821 268 843 q 344 800 344 815 q 338 785 344 792 q 322 778 332 778 q 310 781 314 778 q 226 799 261 799 q 174 783 192 799 q 157 743 157 767 q 206 647 157 701 q 353 554 254 593 q 513 689 424 628 q 706 786 601 750 q 925 822 810 822 q 947 822 936 822 q 967 821 957 822 q 1144 766 1086 814 q 1201 658 1201 718 q 1143 540 1201 599 q 974 456 1085 481 q 935 447 956 451 q 950 424 950 442 q 946 407 950 415 q 916 369 938 397 q 854 293 894 342 q 842 278 847 286 q 765 142 801 215 q 704 2 728 69 q 681 -108 681 -65 q 699 -169 681 -151 q 744 -186 718 -186 q 810 -168 776 -186 q 864 -128 844 -150 q 882 -118 872 -118 q 899 -125 892 -118 q 907 -142 907 -132 q 901 -157 907 -150 q 830 -211 874 -190 q 743 -232 786 -232 m 408 535 q 509 513 447 525 q 645 493 571 501 q 794 485 719 485 q 961 501 886 485 q 1105 565 1060 525 q 1150 649 1150 606 q 1101 729 1150 693 q 963 771 1053 765 q 940 772 951 772 q 918 772 929 772 q 636 706 768 772 q 404 536 504 639 l 408 535 m 182 106 q 297 -15 182 -15 q 444 17 371 -15 q 583 99 517 49 q 706 206 650 150 q 803 310 763 261 q 855 385 829 351 q 903 440 881 419 q 907 444 906 443 q 786 438 853 438 q 568 453 682 438 q 368 497 454 469 q 286 389 322 446 q 210 237 238 311 q 182 106 182 163 m 342 -224 q 314 -212 325 -224 q 303 -185 303 -200 q 314 -158 303 -168 q 342 -147 325 -147 q 369 -158 358 -147 q 379 -185 379 -168 q 369 -212 379 -200 q 342 -224 358 -224 z "},"À":{"ha":906,"x_min":106,"x_max":1201,"o":"m 743 -232 q 665 -204 699 -232 q 631 -107 631 -176 q 652 3 631 -62 q 707 138 674 68 q 579 37 649 85 q 433 -40 510 -11 q 278 -64 357 -68 q 166 -11 200 -60 q 132 106 132 38 q 160 249 133 175 q 231 393 188 324 q 318 515 274 463 q 158 622 218 560 q 119 681 132 650 q 106 739 106 711 q 135 813 106 782 q 222 843 164 843 q 326 821 268 843 q 344 800 344 815 q 338 785 344 792 q 322 778 332 778 q 310 781 314 778 q 226 799 261 799 q 174 783 192 799 q 157 743 157 767 q 206 647 157 701 q 353 554 254 593 q 513 689 424 628 q 706 786 601 750 q 925 822 810 822 q 947 822 936 822 q 967 821 957 822 q 1144 766 1086 814 q 1201 658 1201 718 q 1143 540 1201 599 q 974 456 1085 481 q 935 447 956 451 q 950 424 950 442 q 946 407 950 415 q 916 369 938 397 q 854 293 894 342 q 842 278 847 286 q 765 142 801 215 q 704 2 728 69 q 681 -108 681 -65 q 699 -169 681 -151 q 744 -186 718 -186 q 810 -168 776 -186 q 864 -128 844 -150 q 882 -118 872 -118 q 899 -125 892 -118 q 907 -142 907 -132 q 901 -157 907 -150 q 830 -211 874 -190 q 743 -232 786 -232 m 408 535 q 509 513 447 525 q 645 493 571 501 q 794 485 719 485 q 961 501 886 485 q 1105 565 1060 525 q 1150 649 1150 606 q 1101 729 1150 693 q 963 771 1053 765 q 940 772 951 772 q 918 772 929 772 q 636 706 768 772 q 404 536 504 639 l 408 535 m 182 106 q 297 -15 182 -15 q 444 17 371 -15 q 583 99 517 49 q 706 206 650 150 q 803 310 763 261 q 855 385 829 351 q 903 440 881 419 q 907 444 906 443 q 786 438 853 438 q 568 453 682 438 q 368 497 454 469 q 286 389 322 446 q 210 237 238 311 q 182 106 182 163 m 1100 906 q 1092 907 1094 906 l 911 996 q 897 1011 900 1000 l 897 1013 q 905 1030 897 1019 q 919 1042 913 1040 q 932 1039 928 1042 l 1110 942 q 1116 935 1113 939 q 1118 925 1119 932 q 1111 910 1115 914 q 1100 906 1107 907 z "},"Ả":{"ha":906,"x_min":106,"x_max":1201,"o":"m 743 -232 q 665 -204 699 -232 q 631 -107 631 -176 q 652 3 631 -62 q 707 138 674 68 q 579 37 649 85 q 433 -40 510 -11 q 278 -64 357 -68 q 166 -11 200 -60 q 132 106 132 38 q 160 249 133 175 q 231 393 188 324 q 318 515 274 463 q 158 622 218 560 q 119 681 132 650 q 106 739 106 711 q 135 813 106 782 q 222 843 164 843 q 326 821 268 843 q 344 800 344 815 q 338 785 344 792 q 322 778 332 778 q 310 781 314 778 q 226 799 261 799 q 174 783 192 799 q 157 743 157 767 q 206 647 157 701 q 353 554 254 593 q 513 689 424 628 q 706 786 601 750 q 925 822 810 822 q 947 822 936 822 q 967 821 957 822 q 1144 766 1086 814 q 1201 658 1201 718 q 1143 540 1201 599 q 974 456 1085 481 q 935 447 956 451 q 950 424 950 442 q 946 407 950 415 q 916 369 938 397 q 854 293 894 342 q 842 278 847 286 q 765 142 801 215 q 704 2 728 69 q 681 -108 681 -65 q 699 -169 681 -151 q 744 -186 718 -186 q 810 -168 776 -186 q 864 -128 844 -150 q 882 -118 872 -118 q 899 -125 892 -118 q 907 -142 907 -132 q 901 -157 907 -150 q 830 -211 874 -190 q 743 -232 786 -232 m 408 535 q 509 513 447 525 q 645 493 571 501 q 794 485 719 485 q 961 501 886 485 q 1105 565 1060 525 q 1150 649 1150 606 q 1101 729 1150 693 q 963 771 1053 765 q 940 772 951 772 q 918 772 929 772 q 636 706 768 772 q 404 536 504 639 l 408 535 m 182 106 q 297 -15 182 -15 q 444 17 371 -15 q 583 99 517 49 q 706 206 650 150 q 803 310 763 261 q 855 385 829 351 q 903 440 881 419 q 907 444 906 443 q 786 438 853 438 q 568 453 682 438 q 368 497 454 469 q 286 389 322 446 q 210 237 238 311 q 182 106 182 163 m 1039 892 q 1028 901 1028 892 q 1033 914 1028 908 q 1079 946 1057 933 q 1101 985 1101 958 q 1092 1012 1101 1004 q 1072 1019 1083 1019 q 1033 1010 1051 1019 q 1001 994 1015 1001 q 989 990 993 990 q 978 1000 978 990 q 979 1013 978 1003 q 990 1028 981 1022 q 1038 1053 1015 1043 q 1089 1064 1060 1064 q 1138 1042 1121 1064 q 1154 996 1154 1019 q 1129 938 1154 958 q 1076 903 1104 918 q 1039 892 1058 892 z "},"Ȃ":{"ha":906,"x_min":106,"x_max":1201,"o":"m 1064 1019 q 1160 994 1129 1019 q 1190 938 1190 969 q 1181 911 1190 922 q 1161 900 1172 900 q 1151 910 1151 900 q 1131 958 1151 942 q 1061 974 1111 974 q 991 957 1024 974 q 943 911 958 940 q 933 899 939 901 q 921 896 926 896 q 910 900 918 896 q 906 917 901 904 q 960 988 917 957 q 1064 1019 1003 1019 m 743 -232 q 665 -204 699 -232 q 631 -107 631 -176 q 652 3 631 -62 q 707 138 674 68 q 579 37 649 85 q 433 -40 510 -11 q 278 -64 357 -68 q 166 -11 200 -60 q 132 106 132 38 q 160 249 133 175 q 231 393 188 324 q 318 515 274 463 q 158 622 218 560 q 119 681 132 650 q 106 739 106 711 q 135 813 106 782 q 222 843 164 843 q 326 821 268 843 q 344 800 344 815 q 338 785 344 792 q 322 778 332 778 q 310 781 314 778 q 226 799 261 799 q 174 783 192 799 q 157 743 157 767 q 206 647 157 701 q 353 554 254 593 q 513 689 424 628 q 706 786 601 750 q 925 822 810 822 q 947 822 936 822 q 967 821 957 822 q 1144 766 1086 814 q 1201 658 1201 718 q 1143 540 1201 599 q 974 456 1085 481 q 935 447 956 451 q 950 424 950 442 q 946 407 950 415 q 916 369 938 397 q 854 293 894 342 q 842 278 847 286 q 765 142 801 215 q 704 2 728 69 q 681 -108 681 -65 q 699 -169 681 -151 q 744 -186 718 -186 q 810 -168 776 -186 q 864 -128 844 -150 q 882 -118 872 -118 q 899 -125 892 -118 q 907 -142 907 -132 q 901 -157 907 -150 q 830 -211 874 -190 q 743 -232 786 -232 m 408 535 q 509 513 447 525 q 645 493 571 501 q 794 485 719 485 q 961 501 886 485 q 1105 565 1060 525 q 1150 649 1150 606 q 1101 729 1150 693 q 963 771 1053 765 q 940 772 951 772 q 918 772 929 772 q 636 706 768 772 q 404 536 504 639 l 408 535 m 182 106 q 297 -15 182 -15 q 444 17 371 -15 q 583 99 517 49 q 706 206 650 150 q 803 310 763 261 q 855 385 829 351 q 903 440 881 419 q 907 444 906 443 q 786 438 853 438 q 568 453 682 438 q 368 497 454 469 q 286 389 322 446 q 210 237 238 311 q 182 106 182 163 z "},"Ā":{"ha":906,"x_min":106,"x_max":1201,"o":"m 743 -232 q 665 -204 699 -232 q 631 -107 631 -176 q 652 3 631 -62 q 707 138 674 68 q 579 37 649 85 q 433 -40 510 -11 q 278 -64 357 -68 q 166 -11 200 -60 q 132 106 132 38 q 160 249 133 175 q 231 393 188 324 q 318 515 274 463 q 158 622 218 560 q 119 681 132 650 q 106 739 106 711 q 135 813 106 782 q 222 843 164 843 q 326 821 268 843 q 344 800 344 815 q 338 785 344 792 q 322 778 332 778 q 310 781 314 778 q 226 799 261 799 q 174 783 192 799 q 157 743 157 767 q 206 647 157 701 q 353 554 254 593 q 513 689 424 628 q 706 786 601 750 q 925 822 810 822 q 947 822 936 822 q 967 821 957 822 q 1144 766 1086 814 q 1201 658 1201 718 q 1143 540 1201 599 q 974 456 1085 481 q 935 447 956 451 q 950 424 950 442 q 946 407 950 415 q 916 369 938 397 q 854 293 894 342 q 842 278 847 286 q 765 142 801 215 q 704 2 728 69 q 681 -108 681 -65 q 699 -169 681 -151 q 744 -186 718 -186 q 810 -168 776 -186 q 864 -128 844 -150 q 882 -118 872 -118 q 899 -125 892 -118 q 907 -142 907 -132 q 901 -157 907 -150 q 830 -211 874 -190 q 743 -232 786 -232 m 408 535 q 509 513 447 525 q 645 493 571 501 q 794 485 719 485 q 961 501 886 485 q 1105 565 1060 525 q 1150 649 1150 606 q 1101 729 1150 693 q 963 771 1053 765 q 940 772 951 772 q 918 772 929 772 q 636 706 768 772 q 404 536 504 639 l 408 535 m 182 106 q 297 -15 182 -15 q 444 17 371 -15 q 583 99 517 49 q 706 206 650 150 q 803 310 763 261 q 855 385 829 351 q 903 440 881 419 q 907 444 906 443 q 786 438 853 438 q 568 453 682 438 q 368 497 454 469 q 286 389 322 446 q 210 237 238 311 q 182 106 182 163 m 913 915 q 893 924 900 915 q 886 939 886 932 q 893 955 886 947 q 913 963 900 963 l 1146 963 q 1166 955 1160 963 q 1172 939 1172 947 q 1166 924 1172 932 q 1146 915 1160 915 l 913 915 z "},"Ą":{"ha":906,"x_min":106,"x_max":1201,"o":"m 743 -232 q 665 -204 699 -232 q 631 -107 631 -176 q 652 3 631 -62 q 707 138 674 68 q 579 37 649 85 q 433 -40 510 -11 q 278 -64 357 -68 q 166 -11 200 -60 q 132 106 132 38 q 160 249 133 175 q 231 393 188 324 q 318 515 274 463 q 158 622 218 560 q 119 681 132 650 q 106 739 106 711 q 135 813 106 782 q 222 843 164 843 q 326 821 268 843 q 344 800 344 815 q 338 785 344 792 q 322 778 332 778 q 310 781 314 778 q 226 799 261 799 q 174 783 192 799 q 157 743 157 767 q 206 647 157 701 q 353 554 254 593 q 513 689 424 628 q 706 786 601 750 q 925 822 810 822 q 947 822 936 822 q 967 821 957 822 q 1144 766 1086 814 q 1201 658 1201 718 q 1143 540 1201 599 q 974 456 1085 481 q 935 447 956 451 q 950 424 950 442 q 946 407 950 415 q 916 369 938 397 q 854 293 894 342 q 842 278 847 286 q 765 142 801 215 q 704 2 728 69 q 681 -108 681 -65 q 699 -169 681 -151 q 744 -186 718 -186 q 810 -168 776 -186 q 864 -128 844 -150 q 882 -118 872 -118 q 899 -125 892 -118 q 907 -142 907 -132 q 901 -157 907 -150 q 830 -211 874 -190 q 743 -232 786 -232 m 408 535 q 509 513 447 525 q 645 493 571 501 q 794 485 719 485 q 961 501 886 485 q 1105 565 1060 525 q 1150 649 1150 606 q 1101 729 1150 693 q 963 771 1053 765 q 940 772 951 772 q 918 772 929 772 q 636 706 768 772 q 404 536 504 639 l 408 535 m 182 106 q 297 -15 182 -15 q 444 17 371 -15 q 583 99 517 49 q 706 206 650 150 q 803 310 763 261 q 855 385 829 351 q 903 440 881 419 q 907 444 906 443 q 786 438 853 438 q 568 453 682 438 q 368 497 454 469 q 286 389 322 446 q 210 237 238 311 q 182 106 182 163 m 646 -453 q 592 -437 614 -453 q 571 -387 571 -422 q 592 -315 571 -350 q 638 -251 613 -279 q 681 -210 664 -222 q 704 -201 689 -201 q 720 -212 711 -201 q 721 -231 729 -224 q 651 -306 681 -268 q 621 -371 621 -344 q 633 -395 621 -385 q 668 -406 646 -406 q 728 -387 708 -406 q 769 -346 747 -368 q 786 -364 786 -346 q 769 -401 786 -382 q 710 -445 736 -437 q 646 -453 685 -453 z "},"Å":{"ha":906,"x_min":106,"x_max":1201,"o":"m 743 -232 q 665 -204 699 -232 q 631 -107 631 -176 q 652 3 631 -62 q 707 138 674 68 q 579 37 649 85 q 433 -40 510 -11 q 278 -64 357 -68 q 166 -11 200 -60 q 132 106 132 38 q 160 249 133 175 q 231 393 188 324 q 318 515 274 463 q 158 622 218 560 q 119 681 132 650 q 106 739 106 711 q 135 813 106 782 q 222 843 164 843 q 326 821 268 843 q 344 800 344 815 q 338 785 344 792 q 322 778 332 778 q 310 781 314 778 q 226 799 261 799 q 174 783 192 799 q 157 743 157 767 q 206 647 157 701 q 353 554 254 593 q 513 689 424 628 q 706 786 601 750 q 925 822 810 822 q 947 822 936 822 q 967 821 957 822 q 1144 766 1086 814 q 1201 658 1201 718 q 1143 540 1201 599 q 974 456 1085 481 q 935 447 956 451 q 950 424 950 442 q 946 407 950 415 q 916 369 938 397 q 854 293 894 342 q 842 278 847 286 q 765 142 801 215 q 704 2 728 69 q 681 -108 681 -65 q 699 -169 681 -151 q 744 -186 718 -186 q 810 -168 776 -186 q 864 -128 844 -150 q 882 -118 872 -118 q 899 -125 892 -118 q 907 -142 907 -132 q 901 -157 907 -150 q 830 -211 874 -190 q 743 -232 786 -232 m 408 535 q 509 513 447 525 q 645 493 571 501 q 794 485 719 485 q 961 501 886 485 q 1105 565 1060 525 q 1150 649 1150 606 q 1101 729 1150 693 q 963 771 1053 765 q 940 772 951 772 q 918 772 929 772 q 636 706 768 772 q 404 536 504 639 l 408 535 m 182 106 q 297 -15 182 -15 q 444 17 371 -15 q 583 99 517 49 q 706 206 650 150 q 803 310 763 261 q 855 385 829 351 q 903 440 881 419 q 907 444 906 443 q 786 438 853 438 q 568 453 682 438 q 368 497 454 469 q 286 389 322 446 q 210 237 238 311 q 182 106 182 163 m 1050 904 q 989 928 1011 904 q 967 986 967 953 q 1002 1064 967 1031 q 1081 1097 1038 1097 q 1139 1074 1115 1097 q 1163 1015 1163 1051 q 1128 938 1163 972 q 1050 904 1094 904 m 1056 946 q 1099 965 1079 946 q 1119 1008 1119 983 q 1106 1041 1119 1028 q 1074 1054 1093 1054 q 1029 1036 1049 1054 q 1010 990 1010 1018 q 1023 959 1010 972 q 1056 946 1036 946 z "},"Ǻ":{"ha":906,"x_min":106,"x_max":1228,"o":"m 743 -232 q 665 -204 699 -232 q 631 -107 631 -176 q 652 3 631 -62 q 707 138 674 68 q 579 37 649 85 q 433 -40 510 -11 q 278 -64 357 -68 q 166 -11 200 -60 q 132 106 132 38 q 160 249 133 175 q 231 393 188 324 q 318 515 274 463 q 158 622 218 560 q 119 681 132 650 q 106 739 106 711 q 135 813 106 782 q 222 843 164 843 q 326 821 268 843 q 344 800 344 815 q 338 785 344 792 q 322 778 332 778 q 310 781 314 778 q 226 799 261 799 q 174 783 192 799 q 157 743 157 767 q 206 647 157 701 q 353 554 254 593 q 513 689 424 628 q 706 786 601 750 q 925 822 810 822 q 947 822 936 822 q 967 821 957 822 q 1144 766 1086 814 q 1201 658 1201 718 q 1143 540 1201 599 q 974 456 1085 481 q 935 447 956 451 q 950 424 950 442 q 946 407 950 415 q 916 369 938 397 q 854 293 894 342 q 842 278 847 286 q 765 142 801 215 q 704 2 728 69 q 681 -108 681 -65 q 699 -169 681 -151 q 744 -186 718 -186 q 810 -168 776 -186 q 864 -128 844 -150 q 882 -118 872 -118 q 899 -125 892 -118 q 907 -142 907 -132 q 901 -157 907 -150 q 830 -211 874 -190 q 743 -232 786 -232 m 408 535 q 509 513 447 525 q 645 493 571 501 q 794 485 719 485 q 961 501 886 485 q 1105 565 1060 525 q 1150 649 1150 606 q 1101 729 1150 693 q 963 771 1053 765 q 940 772 951 772 q 918 772 929 772 q 636 706 768 772 q 404 536 504 639 l 408 535 m 182 106 q 297 -15 182 -15 q 444 17 371 -15 q 583 99 517 49 q 706 206 650 150 q 803 310 763 261 q 855 385 829 351 q 903 440 881 419 q 907 444 906 443 q 786 438 853 438 q 568 453 682 438 q 368 497 454 469 q 286 389 322 446 q 210 237 238 311 q 182 106 182 163 m 1050 904 q 989 928 1011 904 q 967 986 967 953 q 1002 1064 967 1031 q 1081 1097 1038 1097 q 1139 1074 1115 1097 q 1163 1015 1163 1051 q 1128 938 1163 972 q 1050 904 1094 904 m 1056 946 q 1099 965 1079 946 q 1119 1008 1119 983 q 1106 1041 1119 1028 q 1074 1054 1093 1054 q 1029 1036 1049 1054 q 1010 990 1010 1018 q 1023 959 1010 972 q 1056 946 1036 946 m 1025 1126 q 1015 1131 1019 1128 q 1007 1146 1010 1135 l 1007 1149 q 1010 1157 1007 1154 q 1015 1163 1013 1160 l 1193 1260 q 1206 1263 1197 1263 q 1220 1251 1213 1261 q 1228 1233 1228 1240 q 1214 1217 1228 1222 l 1033 1128 q 1025 1126 1031 1126 z "},"Ã":{"ha":906,"x_min":106,"x_max":1201,"o":"m 743 -232 q 665 -204 699 -232 q 631 -107 631 -176 q 652 3 631 -62 q 707 138 674 68 q 579 37 649 85 q 433 -40 510 -11 q 278 -64 357 -68 q 166 -11 200 -60 q 132 106 132 38 q 160 249 133 175 q 231 393 188 324 q 318 515 274 463 q 158 622 218 560 q 119 681 132 650 q 106 739 106 711 q 135 813 106 782 q 222 843 164 843 q 326 821 268 843 q 344 800 344 815 q 338 785 344 792 q 322 778 332 778 q 310 781 314 778 q 226 799 261 799 q 174 783 192 799 q 157 743 157 767 q 206 647 157 701 q 353 554 254 593 q 513 689 424 628 q 706 786 601 750 q 925 822 810 822 q 947 822 936 822 q 967 821 957 822 q 1144 766 1086 814 q 1201 658 1201 718 q 1143 540 1201 599 q 974 456 1085 481 q 935 447 956 451 q 950 424 950 442 q 946 407 950 415 q 916 369 938 397 q 854 293 894 342 q 842 278 847 286 q 765 142 801 215 q 704 2 728 69 q 681 -108 681 -65 q 699 -169 681 -151 q 744 -186 718 -186 q 810 -168 776 -186 q 864 -128 844 -150 q 882 -118 872 -118 q 899 -125 892 -118 q 907 -142 907 -132 q 901 -157 907 -150 q 830 -211 874 -190 q 743 -232 786 -232 m 408 535 q 509 513 447 525 q 645 493 571 501 q 794 485 719 485 q 961 501 886 485 q 1105 565 1060 525 q 1150 649 1150 606 q 1101 729 1150 693 q 963 771 1053 765 q 940 772 951 772 q 918 772 929 772 q 636 706 768 772 q 404 536 504 639 l 408 535 m 182 106 q 297 -15 182 -15 q 444 17 371 -15 q 583 99 517 49 q 706 206 650 150 q 803 310 763 261 q 855 385 829 351 q 903 440 881 419 q 907 444 906 443 q 786 438 853 438 q 568 453 682 438 q 368 497 454 469 q 286 389 322 446 q 210 237 238 311 q 182 106 182 163 m 924 897 q 906 918 906 897 q 910 932 906 926 q 951 978 929 960 q 1003 997 974 997 q 1039 986 1022 997 q 1068 967 1056 975 q 1092 953 1079 960 q 1113 947 1106 947 q 1137 955 1122 947 q 1157 978 1151 963 q 1163 983 1160 981 q 1172 986 1167 986 q 1189 976 1183 986 q 1189 954 1194 965 q 1111 899 1163 899 q 1071 913 1089 899 q 1042 932 1053 926 q 996 950 1010 950 q 968 939 985 950 q 936 904 951 928 q 924 897 932 897 z "},"B":{"ha":1253,"x_min":110,"x_max":1375,"o":"m 268 -87 q 147 -51 185 -87 q 110 31 110 -14 q 147 117 110 78 q 247 156 183 156 q 289 151 268 156 q 376 121 332 143 q 458 82 419 99 q 488 68 472 75 q 518 54 503 61 q 618 162 565 96 q 728 308 671 228 q 844 470 785 388 q 965 628 904 553 q 1083 760 1025 704 q 1005 768 1047 765 q 914 771 963 771 q 659 744 768 771 q 474 676 550 718 q 353 585 397 633 q 294 492 310 536 q 283 432 283 456 q 313 362 283 385 q 390 339 343 339 q 493 365 436 339 q 610 447 550 392 q 719 590 669 503 q 740 603 726 603 q 758 597 750 603 q 767 579 767 590 q 763 567 767 574 q 640 410 707 471 q 507 319 574 349 q 383 290 440 290 q 276 326 318 290 q 233 429 233 363 q 247 507 233 467 q 316 618 265 563 q 450 719 367 674 q 649 793 533 765 q 914 821 765 821 q 1031 815 978 821 q 1131 800 1085 810 q 1204 846 1168 829 q 1274 863 1240 863 q 1292 855 1286 863 q 1297 839 1297 847 q 1292 822 1297 829 q 1274 814 1286 814 q 1192 783 1240 814 q 1331 701 1288 751 q 1375 596 1375 651 q 1310 463 1375 526 q 1131 369 1246 399 q 1228 298 1197 342 q 1258 204 1258 254 q 1229 101 1258 153 q 1147 8 1200 50 q 1019 -60 1093 -35 q 856 -86 946 -86 q 682 -60 771 -86 q 603 -33 642 -47 q 528 -3 565 -18 q 406 -63 478 -39 q 268 -87 333 -87 m 696 -14 q 777 -32 738 -26 q 853 -37 817 -37 q 1038 -1 958 -37 q 1162 92 1117 36 q 1207 201 1207 147 q 1190 263 1207 233 q 1135 313 1172 292 q 1033 344 1090 336 q 928 354 976 353 q 903 376 903 357 q 929 403 903 394 q 992 399 961 399 q 1162 428 1088 399 q 1279 503 1236 457 q 1322 599 1322 550 q 1280 683 1322 643 q 1143 747 1238 724 q 1046 655 1096 710 q 950 533 996 600 q 873 424 919 490 q 773 285 826 358 q 666 144 719 211 q 568 33 613 78 q 631 8 599 19 q 696 -14 664 -4 m 257 -39 q 368 -24 308 -40 q 474 21 428 -7 q 407 51 440 36 q 340 81 374 67 q 278 104 299 100 q 264 106 271 106 q 250 107 257 107 q 183 83 208 107 q 158 32 158 60 q 182 -15 158 7 q 257 -39 206 -36 z "},"C":{"ha":1104,"x_min":118,"x_max":1317,"o":"m 515 -172 q 307 -138 389 -172 q 186 -44 225 -104 q 147 90 147 15 q 194 277 147 176 q 331 475 242 378 q 332 476 331 475 q 251 511 289 492 q 185 556 214 531 q 135 617 151 583 q 118 681 118 650 q 151 756 118 725 q 253 788 185 788 q 300 784 275 788 q 353 772 325 781 q 372 749 372 767 q 362 730 372 739 q 336 726 351 721 q 257 739 290 739 q 194 722 215 739 q 172 681 172 706 q 220 595 172 643 q 369 515 268 547 q 560 663 453 597 q 793 768 668 729 q 1054 807 918 807 q 1251 763 1186 807 q 1317 660 1317 718 q 1259 548 1317 604 q 1088 463 1201 492 q 919 433 1015 444 q 719 421 822 421 q 548 430 633 421 q 386 460 463 439 q 252 273 301 369 q 203 93 203 176 q 275 -62 203 0 q 511 -125 347 -125 q 556 -123 532 -125 q 604 -119 579 -121 q 790 -72 690 -110 q 987 31 889 -33 q 1167 181 1085 96 q 1186 190 1176 190 q 1202 183 1196 190 q 1208 167 1208 176 q 1200 149 1208 157 q 1017 -9 1121 60 q 807 -119 914 -78 q 607 -168 700 -160 q 515 -172 560 -172 m 426 499 q 565 478 493 485 q 708 471 636 471 q 917 483 819 471 q 1071 511 1015 496 q 1216 575 1169 536 q 1263 651 1263 614 q 1208 726 1263 694 q 1054 757 1154 757 q 817 723 931 757 q 603 631 703 689 q 426 499 504 572 z "},"Ć":{"ha":1104,"x_min":118,"x_max":1317,"o":"m 515 -172 q 307 -138 389 -172 q 186 -44 225 -104 q 147 90 147 15 q 194 277 147 176 q 331 475 242 378 q 332 476 331 475 q 251 511 289 492 q 185 556 214 531 q 135 617 151 583 q 118 681 118 650 q 151 756 118 725 q 253 788 185 788 q 300 784 275 788 q 353 772 325 781 q 372 749 372 767 q 362 730 372 739 q 336 726 351 721 q 257 739 290 739 q 194 722 215 739 q 172 681 172 706 q 220 595 172 643 q 369 515 268 547 q 560 663 453 597 q 793 768 668 729 q 1054 807 918 807 q 1251 763 1186 807 q 1317 660 1317 718 q 1259 548 1317 604 q 1088 463 1201 492 q 919 433 1015 444 q 719 421 822 421 q 548 430 633 421 q 386 460 463 439 q 252 273 301 369 q 203 93 203 176 q 275 -62 203 0 q 511 -125 347 -125 q 556 -123 532 -125 q 604 -119 579 -121 q 790 -72 690 -110 q 987 31 889 -33 q 1167 181 1085 96 q 1186 190 1176 190 q 1202 183 1196 190 q 1208 167 1208 176 q 1200 149 1208 157 q 1017 -9 1121 60 q 807 -119 914 -78 q 607 -168 700 -160 q 515 -172 560 -172 m 426 499 q 565 478 493 485 q 708 471 636 471 q 917 483 819 471 q 1071 511 1015 496 q 1216 575 1169 536 q 1263 651 1263 614 q 1208 726 1263 694 q 1054 757 1154 757 q 817 723 931 757 q 603 631 703 689 q 426 499 504 572 m 1014 876 q 1003 881 1008 878 q 996 896 999 885 l 996 899 q 999 907 996 904 q 1004 913 1001 910 l 1182 1010 q 1194 1013 1186 1013 q 1209 1001 1201 1011 q 1217 983 1217 990 q 1203 967 1217 972 l 1022 878 q 1014 876 1019 876 z "},"Č":{"ha":1104,"x_min":118,"x_max":1317,"o":"m 1236 1006 q 1247 997 1243 1006 q 1250 982 1250 989 q 1242 964 1250 968 l 1082 879 q 1068 875 1076 875 q 1056 879 1060 875 l 965 965 q 961 975 961 969 q 972 996 961 985 q 994 997 983 1007 l 1075 929 l 1222 1000 q 1236 1006 1232 1006 m 515 -172 q 307 -138 389 -172 q 186 -44 225 -104 q 147 90 147 15 q 194 277 147 176 q 331 475 242 378 q 332 476 331 475 q 251 511 289 492 q 185 556 214 531 q 135 617 151 583 q 118 681 118 650 q 151 756 118 725 q 253 788 185 788 q 300 784 275 788 q 353 772 325 781 q 372 749 372 767 q 362 730 372 739 q 336 726 351 721 q 257 739 290 739 q 194 722 215 739 q 172 681 172 706 q 220 595 172 643 q 369 515 268 547 q 560 663 453 597 q 793 768 668 729 q 1054 807 918 807 q 1251 763 1186 807 q 1317 660 1317 718 q 1259 548 1317 604 q 1088 463 1201 492 q 919 433 1015 444 q 719 421 822 421 q 548 430 633 421 q 386 460 463 439 q 252 273 301 369 q 203 93 203 176 q 275 -62 203 0 q 511 -125 347 -125 q 556 -123 532 -125 q 604 -119 579 -121 q 790 -72 690 -110 q 987 31 889 -33 q 1167 181 1085 96 q 1186 190 1176 190 q 1202 183 1196 190 q 1208 167 1208 176 q 1200 149 1208 157 q 1017 -9 1121 60 q 807 -119 914 -78 q 607 -168 700 -160 q 515 -172 560 -172 m 426 499 q 565 478 493 485 q 708 471 636 471 q 917 483 819 471 q 1071 511 1015 496 q 1216 575 1169 536 q 1263 651 1263 614 q 1208 726 1263 694 q 1054 757 1154 757 q 817 723 931 757 q 603 631 703 689 q 426 499 504 572 z "},"Ç":{"ha":1104,"x_min":118,"x_max":1317,"o":"m 515 -172 q 307 -138 389 -172 q 186 -44 225 -104 q 147 90 147 15 q 194 277 147 176 q 331 475 242 378 q 332 476 331 475 q 251 511 289 492 q 185 556 214 531 q 135 617 151 583 q 118 681 118 650 q 151 756 118 725 q 253 788 185 788 q 300 784 275 788 q 353 772 325 781 q 372 749 372 767 q 362 730 372 739 q 336 726 351 721 q 257 739 290 739 q 194 722 215 739 q 172 681 172 706 q 220 595 172 643 q 369 515 268 547 q 560 663 453 597 q 793 768 668 729 q 1054 807 918 807 q 1251 763 1186 807 q 1317 660 1317 718 q 1259 548 1317 604 q 1088 463 1201 492 q 919 433 1015 444 q 719 421 822 421 q 548 430 633 421 q 386 460 463 439 q 252 273 301 369 q 203 93 203 176 q 275 -62 203 0 q 511 -125 347 -125 q 556 -123 532 -125 q 604 -119 579 -121 q 790 -72 690 -110 q 987 31 889 -33 q 1167 181 1085 96 q 1186 190 1176 190 q 1202 183 1196 190 q 1208 167 1208 176 q 1200 149 1208 157 q 1017 -9 1121 60 q 807 -119 914 -78 q 607 -168 700 -160 q 515 -172 560 -172 m 426 499 q 565 478 493 485 q 708 471 636 471 q 917 483 819 471 q 1071 511 1015 496 q 1216 575 1169 536 q 1263 651 1263 614 q 1208 726 1263 694 q 1054 757 1154 757 q 817 723 931 757 q 603 631 703 689 q 426 499 504 572 m 381 -432 q 367 -414 367 -432 q 371 -401 367 -407 q 382 -394 375 -394 q 487 -362 460 -385 q 514 -310 514 -340 q 467 -275 514 -275 q 448 -276 458 -275 q 426 -281 438 -278 q 417 -283 421 -282 q 410 -283 413 -283 q 383 -265 383 -283 q 389 -251 383 -260 q 408 -224 394 -243 q 435 -188 422 -206 q 449 -168 447 -171 q 461 -160 451 -162 q 481 -157 471 -157 q 499 -160 492 -157 q 504 -168 507 -162 l 456 -240 q 474 -238 465 -239 q 490 -237 483 -237 q 548 -259 533 -237 q 563 -307 563 -281 q 519 -392 563 -353 q 382 -432 476 -432 l 381 -432 z "},"Ĉ":{"ha":1104,"x_min":118,"x_max":1317,"o":"m 515 -172 q 307 -138 389 -172 q 186 -44 225 -104 q 147 90 147 15 q 194 277 147 176 q 331 475 242 378 q 332 476 331 475 q 251 511 289 492 q 185 556 214 531 q 135 617 151 583 q 118 681 118 650 q 151 756 118 725 q 253 788 185 788 q 300 784 275 788 q 353 772 325 781 q 372 749 372 767 q 362 730 372 739 q 336 726 351 721 q 257 739 290 739 q 194 722 215 739 q 172 681 172 706 q 220 595 172 643 q 369 515 268 547 q 560 663 453 597 q 793 768 668 729 q 1054 807 918 807 q 1251 763 1186 807 q 1317 660 1317 718 q 1259 548 1317 604 q 1088 463 1201 492 q 919 433 1015 444 q 719 421 822 421 q 548 430 633 421 q 386 460 463 439 q 252 273 301 369 q 203 93 203 176 q 275 -62 203 0 q 511 -125 347 -125 q 556 -123 532 -125 q 604 -119 579 -121 q 790 -72 690 -110 q 987 31 889 -33 q 1167 181 1085 96 q 1186 190 1176 190 q 1202 183 1196 190 q 1208 167 1208 176 q 1200 149 1208 157 q 1017 -9 1121 60 q 807 -119 914 -78 q 607 -168 700 -160 q 515 -172 560 -172 m 426 499 q 565 478 493 485 q 708 471 636 471 q 917 483 819 471 q 1071 511 1015 496 q 1216 575 1169 536 q 1263 651 1263 614 q 1208 726 1263 694 q 1054 757 1154 757 q 817 723 931 757 q 603 631 703 689 q 426 499 504 572 m 939 867 q 929 876 933 867 q 925 890 925 885 q 933 908 925 904 l 1093 993 q 1107 997 1100 997 q 1119 993 1115 997 l 1210 907 q 1214 897 1214 903 q 1203 876 1214 888 q 1181 875 1192 865 l 1100 943 l 953 872 q 939 867 943 867 z "},"Ċ":{"ha":1104,"x_min":118,"x_max":1317,"o":"m 515 -172 q 307 -138 389 -172 q 186 -44 225 -104 q 147 90 147 15 q 194 277 147 176 q 331 475 242 378 q 332 476 331 475 q 251 511 289 492 q 185 556 214 531 q 135 617 151 583 q 118 681 118 650 q 151 756 118 725 q 253 788 185 788 q 300 784 275 788 q 353 772 325 781 q 372 749 372 767 q 362 730 372 739 q 336 726 351 721 q 257 739 290 739 q 194 722 215 739 q 172 681 172 706 q 220 595 172 643 q 369 515 268 547 q 560 663 453 597 q 793 768 668 729 q 1054 807 918 807 q 1251 763 1186 807 q 1317 660 1317 718 q 1259 548 1317 604 q 1088 463 1201 492 q 919 433 1015 444 q 719 421 822 421 q 548 430 633 421 q 386 460 463 439 q 252 273 301 369 q 203 93 203 176 q 275 -62 203 0 q 511 -125 347 -125 q 556 -123 532 -125 q 604 -119 579 -121 q 790 -72 690 -110 q 987 31 889 -33 q 1167 181 1085 96 q 1186 190 1176 190 q 1202 183 1196 190 q 1208 167 1208 176 q 1200 149 1208 157 q 1017 -9 1121 60 q 807 -119 914 -78 q 607 -168 700 -160 q 515 -172 560 -172 m 426 499 q 565 478 493 485 q 708 471 636 471 q 917 483 819 471 q 1071 511 1015 496 q 1216 575 1169 536 q 1263 651 1263 614 q 1208 726 1263 694 q 1054 757 1154 757 q 817 723 931 757 q 603 631 703 689 q 426 499 504 572 m 1072 876 q 1044 888 1056 876 q 1033 915 1033 900 q 1044 942 1033 932 q 1072 953 1056 953 q 1099 942 1089 953 q 1110 915 1110 932 q 1099 888 1110 900 q 1072 876 1089 876 z "},"D":{"ha":1451,"x_min":157,"x_max":1439,"o":"m 950 -79 q 735 -46 850 -79 q 656 -18 694 -33 q 578 14 617 -3 q 456 -49 528 -24 q 318 -74 383 -74 q 195 -36 233 -74 q 157 47 157 1 q 194 135 157 94 q 297 175 232 175 q 406 149 350 175 q 510 100 461 122 q 539 86 524 93 q 569 72 554 79 q 668 179 615 113 q 778 326 721 246 q 894 490 835 407 q 1013 650 953 574 q 1132 783 1072 726 q 1043 809 1090 800 q 942 818 996 818 q 690 790 796 818 q 512 715 583 761 q 399 617 440 669 q 343 519 358 565 q 335 487 338 501 q 332 458 332 472 q 361 388 332 411 q 436 364 390 364 q 542 390 483 364 q 661 473 600 417 q 774 621 722 529 q 794 633 781 633 q 813 627 806 633 q 821 610 821 621 q 817 596 821 603 q 694 436 761 499 q 559 344 626 374 q 433 314 492 314 q 325 351 368 314 q 282 456 282 388 q 296 535 282 493 q 360 650 314 592 q 485 758 407 708 q 677 838 564 807 q 942 868 790 868 q 1066 856 1008 868 q 1172 821 1124 843 q 1255 878 1214 857 q 1333 899 1296 899 q 1351 891 1346 899 q 1357 874 1357 883 q 1351 856 1357 864 q 1333 849 1346 849 q 1219 796 1289 849 q 1384 618 1329 729 q 1439 389 1439 507 q 1394 182 1439 279 q 1226 -6 1343 67 q 950 -79 1110 -79 m 750 1 q 949 -29 854 -29 q 1201 37 1097 -29 q 1350 204 1304 103 q 1390 389 1390 292 q 1338 601 1390 499 q 1179 761 1285 703 q 1092 672 1136 724 q 1007 561 1049 621 q 929 449 976 517 q 828 306 882 382 q 719 163 774 231 q 619 50 664 94 q 684 24 651 36 q 750 1 717 11 m 207 49 q 233 -1 207 22 q 317 -24 258 -24 q 424 -7 367 -24 q 525 38 481 10 q 458 68 492 53 q 390 99 425 83 q 354 115 369 108 q 328 122 339 121 q 314 125 321 125 q 300 125 307 125 q 232 101 257 125 q 207 49 207 76 z "},"Ǆ":{"ha":2456,"x_min":157,"x_max":2494,"o":"m 2274 997 q 2284 989 2281 997 q 2288 974 2288 981 q 2279 956 2288 960 l 2119 871 q 2106 867 2114 867 q 2093 871 2097 867 l 2003 957 q 1999 967 1999 961 q 2010 988 1999 976 q 2032 989 2021 999 l 2113 921 l 2260 992 q 2274 997 2269 997 m 950 -79 q 735 -46 850 -79 q 656 -18 694 -33 q 578 14 617 -3 q 456 -49 528 -24 q 318 -74 383 -74 q 195 -36 233 -74 q 157 47 157 1 q 194 135 157 94 q 297 175 232 175 q 406 149 350 175 q 510 100 461 122 q 539 86 524 93 q 569 72 554 79 q 668 179 615 113 q 778 326 721 246 q 894 490 835 407 q 1013 650 953 574 q 1132 783 1072 726 q 1043 809 1090 800 q 942 818 996 818 q 690 790 796 818 q 512 715 583 761 q 399 617 440 669 q 343 519 358 565 q 335 487 338 501 q 332 458 332 472 q 361 388 332 411 q 436 364 390 364 q 542 390 483 364 q 661 473 600 417 q 774 621 722 529 q 794 633 781 633 q 813 627 806 633 q 821 610 821 621 q 817 596 821 603 q 694 436 761 499 q 559 344 626 374 q 433 314 492 314 q 325 351 368 314 q 282 456 282 388 q 296 535 282 493 q 360 650 314 592 q 485 758 407 708 q 677 838 564 807 q 942 868 790 868 q 1066 856 1008 868 q 1172 821 1124 843 q 1255 878 1214 857 q 1333 899 1296 899 q 1351 891 1346 899 q 1357 874 1357 883 q 1351 856 1357 864 q 1333 849 1346 849 q 1219 796 1289 849 q 1384 618 1329 729 q 1439 389 1439 507 q 1394 182 1439 279 q 1226 -6 1343 67 q 950 -79 1110 -79 m 750 1 q 949 -29 854 -29 q 1201 37 1097 -29 q 1350 204 1304 103 q 1390 389 1390 292 q 1338 601 1390 499 q 1179 761 1285 703 q 1092 672 1136 724 q 1007 561 1049 621 q 929 449 976 517 q 828 306 882 382 q 719 163 774 231 q 619 50 664 94 q 684 24 651 36 q 750 1 717 11 m 207 49 q 233 -1 207 22 q 317 -24 258 -24 q 424 -7 367 -24 q 525 38 481 10 q 458 68 492 53 q 390 99 425 83 q 354 115 369 108 q 328 122 339 121 q 314 125 321 125 q 300 125 307 125 q 232 101 257 125 q 207 49 207 76 m 2153 -156 q 1994 -131 2076 -156 q 1854 -76 1913 -107 l 1817 -57 q 1733 -15 1781 -37 q 1636 29 1686 7 q 1540 -36 1589 -10 q 1447 -69 1492 -62 q 1433 -71 1440 -71 q 1419 -71 1426 -71 q 1301 -35 1343 -71 q 1258 42 1258 0 q 1294 114 1258 82 q 1407 146 1331 146 q 1495 135 1444 146 q 1604 100 1546 125 l 1624 92 q 1747 212 1686 147 q 1857 333 1808 276 q 1928 421 1906 390 q 1988 491 1949 444 q 2080 592 2028 538 q 2189 697 2132 647 q 2153 708 2171 703 q 2115 719 2135 714 q 1967 758 2043 740 q 1824 776 1890 776 q 1737 765 1776 776 q 1665 725 1697 753 q 1643 695 1650 711 q 1636 664 1636 679 q 1676 590 1636 625 q 1788 543 1717 554 q 1808 518 1808 539 q 1801 499 1808 508 q 1779 492 1793 490 q 1688 524 1735 499 q 1610 585 1642 549 q 1579 665 1579 622 q 1591 715 1579 690 q 1629 763 1603 739 q 1717 812 1669 797 q 1821 826 1765 826 q 1981 806 1899 826 q 2139 763 2063 786 q 2188 749 2164 756 q 2235 736 2213 742 q 2333 800 2285 775 q 2421 825 2381 825 q 2456 819 2440 825 q 2485 799 2476 811 q 2494 771 2494 786 q 2473 719 2494 746 q 2424 681 2451 693 q 2392 673 2410 675 q 2357 671 2375 671 q 2307 674 2333 671 q 2253 683 2281 678 q 2094 529 2168 613 q 1949 363 2021 446 l 1901 308 q 1796 188 1853 253 q 1678 65 1739 122 l 1711 49 q 1854 -19 1776 17 q 2011 -81 1932 -56 q 2158 -106 2090 -106 q 2261 -80 2214 -106 q 2335 1 2308 -54 q 2353 14 2342 14 q 2372 7 2364 14 q 2379 -11 2379 0 q 2376 -24 2379 -15 q 2283 -127 2343 -99 q 2153 -156 2224 -156 m 2357 717 q 2404 725 2386 717 q 2437 749 2428 735 q 2443 765 2446 763 q 2418 778 2438 778 q 2377 767 2400 778 q 2334 743 2354 756 q 2306 724 2314 731 q 2303 722 2304 722 q 2331 718 2318 719 q 2357 717 2344 717 m 1413 -24 q 1454 -19 1433 -24 q 1512 7 1481 -12 q 1578 53 1543 26 q 1483 85 1528 72 q 1406 99 1438 99 q 1340 81 1363 99 q 1317 40 1317 63 q 1341 -3 1317 17 q 1413 -24 1365 -24 z "},"Ď":{"ha":1451,"x_min":157,"x_max":1654,"o":"m 1640 1025 q 1651 1017 1647 1025 q 1654 1001 1654 1008 q 1646 983 1654 988 l 1486 899 q 1472 894 1481 894 q 1460 899 1464 894 l 1369 985 q 1365 994 1365 989 q 1376 1015 1365 1004 q 1399 1017 1388 1026 l 1479 949 l 1626 1019 q 1640 1025 1636 1025 m 950 -79 q 735 -46 850 -79 q 656 -18 694 -33 q 578 14 617 -3 q 456 -49 528 -24 q 318 -74 383 -74 q 195 -36 233 -74 q 157 47 157 1 q 194 135 157 94 q 297 175 232 175 q 406 149 350 175 q 510 100 461 122 q 539 86 524 93 q 569 72 554 79 q 668 179 615 113 q 778 326 721 246 q 894 490 835 407 q 1013 650 953 574 q 1132 783 1072 726 q 1043 809 1090 800 q 942 818 996 818 q 690 790 796 818 q 512 715 583 761 q 399 617 440 669 q 343 519 358 565 q 335 487 338 501 q 332 458 332 472 q 361 388 332 411 q 436 364 390 364 q 542 390 483 364 q 661 473 600 417 q 774 621 722 529 q 794 633 781 633 q 813 627 806 633 q 821 610 821 621 q 817 596 821 603 q 694 436 761 499 q 559 344 626 374 q 433 314 492 314 q 325 351 368 314 q 282 456 282 388 q 296 535 282 493 q 360 650 314 592 q 485 758 407 708 q 677 838 564 807 q 942 868 790 868 q 1066 856 1008 868 q 1172 821 1124 843 q 1255 878 1214 857 q 1333 899 1296 899 q 1351 891 1346 899 q 1357 874 1357 883 q 1351 856 1357 864 q 1333 849 1346 849 q 1219 796 1289 849 q 1384 618 1329 729 q 1439 389 1439 507 q 1394 182 1439 279 q 1226 -6 1343 67 q 950 -79 1110 -79 m 750 1 q 949 -29 854 -29 q 1201 37 1097 -29 q 1350 204 1304 103 q 1390 389 1390 292 q 1338 601 1390 499 q 1179 761 1285 703 q 1092 672 1136 724 q 1007 561 1049 621 q 929 449 976 517 q 828 306 882 382 q 719 163 774 231 q 619 50 664 94 q 684 24 651 36 q 750 1 717 11 m 207 49 q 233 -1 207 22 q 317 -24 258 -24 q 424 -7 367 -24 q 525 38 481 10 q 458 68 492 53 q 390 99 425 83 q 354 115 369 108 q 328 122 339 121 q 314 125 321 125 q 300 125 307 125 q 232 101 257 125 q 207 49 207 76 z "},"Đ":{"ha":1451,"x_min":157,"x_max":1439,"o":"m 950 -79 q 735 -46 850 -79 q 656 -18 694 -33 q 578 14 617 -3 q 456 -49 528 -24 q 318 -74 383 -74 q 195 -36 233 -74 q 157 47 157 1 q 194 135 157 94 q 297 175 232 175 q 406 149 350 175 q 510 100 461 122 q 539 86 524 93 q 569 72 554 79 q 668 179 615 113 q 778 326 721 246 q 894 490 835 407 q 1013 650 953 574 q 1132 783 1072 726 q 1043 809 1090 800 q 942 818 996 818 q 690 790 796 818 q 512 715 583 761 q 399 617 440 669 q 343 519 358 565 q 335 487 338 501 q 332 458 332 472 q 361 388 332 411 q 436 364 390 364 q 542 390 483 364 q 661 473 600 417 q 774 621 722 529 q 794 633 781 633 q 813 627 806 633 q 821 610 821 621 q 817 596 821 603 q 694 436 761 499 q 559 344 626 374 q 433 314 492 314 q 325 351 368 314 q 282 456 282 388 q 296 535 282 493 q 360 650 314 592 q 485 758 407 708 q 677 838 564 807 q 942 868 790 868 q 1066 856 1008 868 q 1172 821 1124 843 q 1255 878 1214 857 q 1333 899 1296 899 q 1351 891 1346 899 q 1357 874 1357 883 q 1351 856 1357 864 q 1333 849 1346 849 q 1219 796 1289 849 q 1384 618 1329 729 q 1439 389 1439 507 q 1394 182 1439 279 q 1226 -6 1343 67 q 950 -79 1110 -79 m 750 1 q 949 -29 854 -29 q 1201 37 1097 -29 q 1350 204 1304 103 q 1390 389 1390 292 q 1338 601 1390 499 q 1179 761 1285 703 q 1092 672 1136 724 q 1007 561 1049 621 q 929 449 976 517 q 828 306 882 382 q 719 163 774 231 q 619 50 664 94 q 684 24 651 36 q 750 1 717 11 m 207 49 q 233 -1 207 22 q 317 -24 258 -24 q 424 -7 367 -24 q 525 38 481 10 q 458 68 492 53 q 390 99 425 83 q 354 115 369 108 q 328 122 339 121 q 314 125 321 125 q 300 125 307 125 q 232 101 257 125 q 207 49 207 76 m 586 221 q 567 229 574 221 q 560 247 560 238 q 567 266 560 258 q 586 274 574 274 l 903 274 q 923 266 917 274 q 929 247 929 258 q 923 229 929 238 q 903 221 917 221 l 586 221 z "},"Δ":{"ha":661,"x_min":54,"x_max":540,"o":"m 81 3 q 54 24 54 3 q 61 42 54 32 l 471 626 q 493 640 481 640 q 514 614 514 640 l 540 29 l 540 26 q 533 10 540 17 q 517 3 526 3 l 81 3 m 128 53 l 492 53 l 469 540 l 128 53 z "},"ǅ":{"ha":1894,"x_min":157,"x_max":1865,"o":"m 1849 615 q 1865 599 1865 615 q 1850 575 1865 585 l 1717 500 q 1696 492 1703 492 q 1678 501 1688 492 l 1624 576 q 1613 591 1615 586 q 1611 601 1611 596 q 1618 615 1611 608 q 1632 622 1625 622 q 1651 611 1640 622 l 1706 544 l 1821 604 q 1835 611 1828 607 q 1849 615 1843 615 m 950 -79 q 735 -46 850 -79 q 656 -18 694 -33 q 578 14 617 -3 q 456 -49 528 -24 q 318 -74 383 -74 q 195 -36 233 -74 q 157 47 157 1 q 194 135 157 94 q 297 175 232 175 q 406 149 350 175 q 510 100 461 122 q 539 86 524 93 q 569 72 554 79 q 668 179 615 113 q 778 326 721 246 q 894 490 835 407 q 1013 650 953 574 q 1132 783 1072 726 q 1043 809 1090 800 q 942 818 996 818 q 690 790 796 818 q 512 715 583 761 q 399 617 440 669 q 343 519 358 565 q 335 487 338 501 q 332 458 332 472 q 361 388 332 411 q 436 364 390 364 q 542 390 483 364 q 661 473 600 417 q 774 621 722 529 q 794 633 781 633 q 813 627 806 633 q 821 610 821 621 q 817 596 821 603 q 694 436 761 499 q 559 344 626 374 q 433 314 492 314 q 325 351 368 314 q 282 456 282 388 q 296 535 282 493 q 360 650 314 592 q 485 758 407 708 q 677 838 564 807 q 942 868 790 868 q 1066 856 1008 868 q 1172 821 1124 843 q 1255 878 1214 857 q 1333 899 1296 899 q 1351 891 1346 899 q 1357 874 1357 883 q 1351 856 1357 864 q 1333 849 1346 849 q 1219 796 1289 849 q 1384 618 1329 729 q 1439 389 1439 507 q 1394 182 1439 279 q 1226 -6 1343 67 q 950 -79 1110 -79 m 750 1 q 949 -29 854 -29 q 1201 37 1097 -29 q 1350 204 1304 103 q 1390 389 1390 292 q 1338 601 1390 499 q 1179 761 1285 703 q 1092 672 1136 724 q 1007 561 1049 621 q 929 449 976 517 q 828 306 882 382 q 719 163 774 231 q 619 50 664 94 q 684 24 651 36 q 750 1 717 11 m 207 49 q 233 -1 207 22 q 317 -24 258 -24 q 424 -7 367 -24 q 525 38 481 10 q 458 68 492 53 q 390 99 425 83 q 354 115 369 108 q 328 122 339 121 q 314 125 321 125 q 300 125 307 125 q 232 101 257 125 q 207 49 207 76 m 1279 -528 q 1194 -501 1225 -528 q 1163 -431 1163 -474 q 1187 -334 1163 -387 q 1251 -229 1211 -281 q 1371 -117 1299 -168 q 1528 -33 1443 -65 q 1704 8 1614 0 q 1710 58 1710 35 q 1705 93 1710 78 q 1688 119 1700 108 q 1663 135 1678 129 q 1624 140 1647 140 q 1540 125 1593 140 q 1528 111 1533 118 q 1519 101 1522 104 q 1503 93 1511 93 q 1485 101 1493 93 q 1476 118 1476 108 q 1483 135 1476 125 q 1549 200 1499 153 q 1657 308 1599 247 l 1694 347 q 1616 366 1649 351 q 1535 381 1583 381 q 1518 364 1518 381 q 1526 335 1518 351 q 1540 313 1535 318 q 1546 301 1546 307 q 1536 288 1546 294 q 1515 282 1526 282 q 1496 289 1503 282 q 1476 322 1485 300 q 1468 364 1468 343 q 1483 410 1468 390 q 1535 429 1497 429 q 1593 422 1569 429 q 1640 407 1617 415 q 1696 394 1664 399 q 1726 395 1711 393 q 1756 404 1742 397 q 1786 432 1772 421 q 1806 444 1800 443 l 1811 444 q 1828 438 1822 444 q 1833 422 1833 431 q 1825 401 1833 410 q 1781 363 1806 376 l 1594 179 q 1638 183 1618 183 q 1687 176 1665 183 q 1722 156 1708 168 q 1752 113 1743 138 q 1761 60 1761 88 q 1756 10 1761 36 q 1800 3 1776 10 q 1817 -18 1817 -1 q 1808 -39 1817 -29 q 1785 -44 1799 -49 q 1765 -40 1775 -42 q 1744 -39 1756 -39 q 1742 -39 1743 -39 q 1685 -167 1721 -100 q 1603 -299 1650 -235 q 1501 -415 1556 -362 q 1390 -497 1447 -467 q 1279 -528 1333 -528 m 1217 -424 q 1232 -462 1217 -447 q 1286 -478 1247 -478 q 1380 -449 1332 -478 q 1475 -372 1428 -419 q 1564 -265 1522 -324 q 1638 -149 1606 -207 q 1688 -42 1669 -90 q 1537 -81 1611 -51 q 1400 -155 1463 -110 q 1294 -257 1338 -200 q 1263 -303 1282 -274 q 1231 -364 1244 -332 q 1217 -424 1217 -396 z "},"E":{"ha":1117,"x_min":110,"x_max":1143,"o":"m 451 -153 q 259 -121 335 -153 q 147 -37 183 -89 q 110 75 110 15 q 151 208 110 142 q 274 326 193 275 q 469 394 354 376 q 419 440 435 414 q 404 494 404 467 q 415 547 404 519 q 316 591 361 565 q 239 650 271 617 q 199 710 213 678 q 185 769 185 742 q 207 828 185 804 q 278 851 229 851 q 372 832 314 851 q 388 822 383 829 q 392 807 392 814 q 384 790 392 797 q 363 786 376 782 q 296 799 324 799 q 238 756 238 799 q 286 675 238 722 q 438 592 335 628 q 471 636 451 615 q 510 674 490 657 q 687 769 581 729 q 918 808 793 808 q 946 808 932 808 q 974 806 960 807 q 1102 765 1061 797 q 1143 692 1143 732 q 1097 599 1143 646 q 968 526 1051 553 q 863 505 922 513 q 739 497 804 497 q 599 506 671 497 q 461 533 528 514 q 457 507 457 519 q 508 435 457 464 q 674 406 560 406 q 700 385 700 406 q 691 366 700 375 q 667 354 682 357 q 634 356 650 356 q 603 357 618 357 q 365 315 463 357 q 216 208 267 272 q 165 79 165 144 q 235 -50 165 6 q 453 -106 306 -106 q 681 -83 583 -106 q 847 -24 778 -60 q 961 49 917 13 q 989 78 968 56 q 1028 127 1010 100 q 1046 172 1046 154 q 1042 185 1046 181 q 1029 210 1029 197 q 1051 229 1029 229 q 1079 215 1065 229 q 1093 172 1093 201 q 1077 113 1093 143 q 1038 56 1061 82 q 996 14 1015 31 q 870 -67 946 -29 q 691 -128 794 -104 q 451 -153 588 -153 m 488 575 q 610 551 546 558 q 735 543 674 543 q 944 571 857 543 q 1053 625 1019 594 q 1088 683 1088 656 q 1056 732 1088 711 q 968 757 1025 753 q 942 759 954 758 q 915 760 929 760 q 731 733 818 760 q 580 663 644 706 q 483 576 515 621 l 488 575 z "},"É":{"ha":1117,"x_min":110,"x_max":1143,"o":"m 451 -153 q 259 -121 335 -153 q 147 -37 183 -89 q 110 75 110 15 q 151 208 110 142 q 274 326 193 275 q 469 394 354 376 q 419 440 435 414 q 404 494 404 467 q 415 547 404 519 q 316 591 361 565 q 239 650 271 617 q 199 710 213 678 q 185 769 185 742 q 207 828 185 804 q 278 851 229 851 q 372 832 314 851 q 388 822 383 829 q 392 807 392 814 q 384 790 392 797 q 363 786 376 782 q 296 799 324 799 q 238 756 238 799 q 286 675 238 722 q 438 592 335 628 q 471 636 451 615 q 510 674 490 657 q 687 769 581 729 q 918 808 793 808 q 946 808 932 808 q 974 806 960 807 q 1102 765 1061 797 q 1143 692 1143 732 q 1097 599 1143 646 q 968 526 1051 553 q 863 505 922 513 q 739 497 804 497 q 599 506 671 497 q 461 533 528 514 q 457 507 457 519 q 508 435 457 464 q 674 406 560 406 q 700 385 700 406 q 691 366 700 375 q 667 354 682 357 q 634 356 650 356 q 603 357 618 357 q 365 315 463 357 q 216 208 267 272 q 165 79 165 144 q 235 -50 165 6 q 453 -106 306 -106 q 681 -83 583 -106 q 847 -24 778 -60 q 961 49 917 13 q 989 78 968 56 q 1028 127 1010 100 q 1046 172 1046 154 q 1042 185 1046 181 q 1029 210 1029 197 q 1051 229 1029 229 q 1079 215 1065 229 q 1093 172 1093 201 q 1077 113 1093 143 q 1038 56 1061 82 q 996 14 1015 31 q 870 -67 946 -29 q 691 -128 794 -104 q 451 -153 588 -153 m 488 575 q 610 551 546 558 q 735 543 674 543 q 944 571 857 543 q 1053 625 1019 594 q 1088 683 1088 656 q 1056 732 1088 711 q 968 757 1025 753 q 942 759 954 758 q 915 760 929 760 q 731 733 818 760 q 580 663 644 706 q 483 576 515 621 l 488 575 m 896 878 q 885 883 890 879 q 878 897 881 886 l 878 900 q 881 908 878 906 q 886 914 883 911 l 1064 1011 q 1076 1014 1068 1014 q 1091 1002 1083 1013 q 1099 985 1099 992 q 1085 968 1099 974 l 904 879 q 896 878 901 878 z "},"Ĕ":{"ha":1117,"x_min":110,"x_max":1143,"o":"m 451 -153 q 259 -121 335 -153 q 147 -37 183 -89 q 110 75 110 15 q 151 208 110 142 q 274 326 193 275 q 469 394 354 376 q 419 440 435 414 q 404 494 404 467 q 415 547 404 519 q 316 591 361 565 q 239 650 271 617 q 199 710 213 678 q 185 769 185 742 q 207 828 185 804 q 278 851 229 851 q 372 832 314 851 q 388 822 383 829 q 392 807 392 814 q 384 790 392 797 q 363 786 376 782 q 296 799 324 799 q 238 756 238 799 q 286 675 238 722 q 438 592 335 628 q 471 636 451 615 q 510 674 490 657 q 687 769 581 729 q 918 808 793 808 q 946 808 932 808 q 974 806 960 807 q 1102 765 1061 797 q 1143 692 1143 732 q 1097 599 1143 646 q 968 526 1051 553 q 863 505 922 513 q 739 497 804 497 q 599 506 671 497 q 461 533 528 514 q 457 507 457 519 q 508 435 457 464 q 674 406 560 406 q 700 385 700 406 q 691 366 700 375 q 667 354 682 357 q 634 356 650 356 q 603 357 618 357 q 365 315 463 357 q 216 208 267 272 q 165 79 165 144 q 235 -50 165 6 q 453 -106 306 -106 q 681 -83 583 -106 q 847 -24 778 -60 q 961 49 917 13 q 989 78 968 56 q 1028 127 1010 100 q 1046 172 1046 154 q 1042 185 1046 181 q 1029 210 1029 197 q 1051 229 1029 229 q 1079 215 1065 229 q 1093 172 1093 201 q 1077 113 1093 143 q 1038 56 1061 82 q 996 14 1015 31 q 870 -67 946 -29 q 691 -128 794 -104 q 451 -153 588 -153 m 488 575 q 610 551 546 558 q 735 543 674 543 q 944 571 857 543 q 1053 625 1019 594 q 1088 683 1088 656 q 1056 732 1088 711 q 968 757 1025 753 q 942 759 954 758 q 915 760 929 760 q 731 733 818 760 q 580 663 644 706 q 483 576 515 621 l 488 575 m 953 876 q 858 902 889 876 q 826 958 826 928 q 836 985 826 974 q 856 996 846 996 q 865 986 865 996 q 885 938 865 954 q 956 922 906 922 q 1026 939 993 922 q 1074 985 1060 956 q 1084 997 1078 994 q 1096 1000 1090 1000 q 1107 996 1099 1000 q 1111 979 1115 992 q 1057 908 1100 940 q 953 876 1014 876 z "},"Ě":{"ha":1117,"x_min":110,"x_max":1143,"o":"m 1118 1007 q 1128 999 1125 1007 q 1132 983 1132 990 q 1124 965 1132 969 l 964 881 q 950 876 958 876 q 938 881 942 876 l 847 967 q 843 976 843 971 q 854 997 843 986 q 876 999 865 1008 l 957 931 l 1104 1001 q 1118 1007 1114 1007 m 451 -153 q 259 -121 335 -153 q 147 -37 183 -89 q 110 75 110 15 q 151 208 110 142 q 274 326 193 275 q 469 394 354 376 q 419 440 435 414 q 404 494 404 467 q 415 547 404 519 q 316 591 361 565 q 239 650 271 617 q 199 710 213 678 q 185 769 185 742 q 207 828 185 804 q 278 851 229 851 q 372 832 314 851 q 388 822 383 829 q 392 807 392 814 q 384 790 392 797 q 363 786 376 782 q 296 799 324 799 q 238 756 238 799 q 286 675 238 722 q 438 592 335 628 q 471 636 451 615 q 510 674 490 657 q 687 769 581 729 q 918 808 793 808 q 946 808 932 808 q 974 806 960 807 q 1102 765 1061 797 q 1143 692 1143 732 q 1097 599 1143 646 q 968 526 1051 553 q 863 505 922 513 q 739 497 804 497 q 599 506 671 497 q 461 533 528 514 q 457 507 457 519 q 508 435 457 464 q 674 406 560 406 q 700 385 700 406 q 691 366 700 375 q 667 354 682 357 q 634 356 650 356 q 603 357 618 357 q 365 315 463 357 q 216 208 267 272 q 165 79 165 144 q 235 -50 165 6 q 453 -106 306 -106 q 681 -83 583 -106 q 847 -24 778 -60 q 961 49 917 13 q 989 78 968 56 q 1028 127 1010 100 q 1046 172 1046 154 q 1042 185 1046 181 q 1029 210 1029 197 q 1051 229 1029 229 q 1079 215 1065 229 q 1093 172 1093 201 q 1077 113 1093 143 q 1038 56 1061 82 q 996 14 1015 31 q 870 -67 946 -29 q 691 -128 794 -104 q 451 -153 588 -153 m 488 575 q 610 551 546 558 q 735 543 674 543 q 944 571 857 543 q 1053 625 1019 594 q 1088 683 1088 656 q 1056 732 1088 711 q 968 757 1025 753 q 942 759 954 758 q 915 760 929 760 q 731 733 818 760 q 580 663 644 706 q 483 576 515 621 l 488 575 z "},"Ê":{"ha":1117,"x_min":110,"x_max":1143,"o":"m 451 -153 q 259 -121 335 -153 q 147 -37 183 -89 q 110 75 110 15 q 151 208 110 142 q 274 326 193 275 q 469 394 354 376 q 419 440 435 414 q 404 494 404 467 q 415 547 404 519 q 316 591 361 565 q 239 650 271 617 q 199 710 213 678 q 185 769 185 742 q 207 828 185 804 q 278 851 229 851 q 372 832 314 851 q 388 822 383 829 q 392 807 392 814 q 384 790 392 797 q 363 786 376 782 q 296 799 324 799 q 238 756 238 799 q 286 675 238 722 q 438 592 335 628 q 471 636 451 615 q 510 674 490 657 q 687 769 581 729 q 918 808 793 808 q 946 808 932 808 q 974 806 960 807 q 1102 765 1061 797 q 1143 692 1143 732 q 1097 599 1143 646 q 968 526 1051 553 q 863 505 922 513 q 739 497 804 497 q 599 506 671 497 q 461 533 528 514 q 457 507 457 519 q 508 435 457 464 q 674 406 560 406 q 700 385 700 406 q 691 366 700 375 q 667 354 682 357 q 634 356 650 356 q 603 357 618 357 q 365 315 463 357 q 216 208 267 272 q 165 79 165 144 q 235 -50 165 6 q 453 -106 306 -106 q 681 -83 583 -106 q 847 -24 778 -60 q 961 49 917 13 q 989 78 968 56 q 1028 127 1010 100 q 1046 172 1046 154 q 1042 185 1046 181 q 1029 210 1029 197 q 1051 229 1029 229 q 1079 215 1065 229 q 1093 172 1093 201 q 1077 113 1093 143 q 1038 56 1061 82 q 996 14 1015 31 q 870 -67 946 -29 q 691 -128 794 -104 q 451 -153 588 -153 m 488 575 q 610 551 546 558 q 735 543 674 543 q 944 571 857 543 q 1053 625 1019 594 q 1088 683 1088 656 q 1056 732 1088 711 q 968 757 1025 753 q 942 759 954 758 q 915 760 929 760 q 731 733 818 760 q 580 663 644 706 q 483 576 515 621 l 488 575 m 821 868 q 811 877 815 868 q 807 892 807 886 q 815 910 807 906 l 975 994 q 989 999 982 999 q 1001 994 997 999 l 1092 908 q 1096 899 1096 904 q 1085 878 1096 889 q 1063 876 1074 867 l 982 944 l 835 874 q 821 868 825 868 z "},"Ế":{"ha":1117,"x_min":110,"x_max":1299,"o":"m 451 -153 q 259 -121 335 -153 q 147 -37 183 -89 q 110 75 110 15 q 151 208 110 142 q 274 326 193 275 q 469 394 354 376 q 419 440 435 414 q 404 494 404 467 q 415 547 404 519 q 316 591 361 565 q 239 650 271 617 q 199 710 213 678 q 185 769 185 742 q 207 828 185 804 q 278 851 229 851 q 372 832 314 851 q 388 822 383 829 q 392 807 392 814 q 384 790 392 797 q 363 786 376 782 q 296 799 324 799 q 238 756 238 799 q 286 675 238 722 q 438 592 335 628 q 471 636 451 615 q 510 674 490 657 q 687 769 581 729 q 918 808 793 808 q 946 808 932 808 q 974 806 960 807 q 1102 765 1061 797 q 1143 692 1143 732 q 1097 599 1143 646 q 968 526 1051 553 q 863 505 922 513 q 739 497 804 497 q 599 506 671 497 q 461 533 528 514 q 457 507 457 519 q 508 435 457 464 q 674 406 560 406 q 700 385 700 406 q 691 366 700 375 q 667 354 682 357 q 634 356 650 356 q 603 357 618 357 q 365 315 463 357 q 216 208 267 272 q 165 79 165 144 q 235 -50 165 6 q 453 -106 306 -106 q 681 -83 583 -106 q 847 -24 778 -60 q 961 49 917 13 q 989 78 968 56 q 1028 127 1010 100 q 1046 172 1046 154 q 1042 185 1046 181 q 1029 210 1029 197 q 1051 229 1029 229 q 1079 215 1065 229 q 1093 172 1093 201 q 1077 113 1093 143 q 1038 56 1061 82 q 996 14 1015 31 q 870 -67 946 -29 q 691 -128 794 -104 q 451 -153 588 -153 m 488 575 q 610 551 546 558 q 735 543 674 543 q 944 571 857 543 q 1053 625 1019 594 q 1088 683 1088 656 q 1056 732 1088 711 q 968 757 1025 753 q 942 759 954 758 q 915 760 929 760 q 731 733 818 760 q 580 663 644 706 q 483 576 515 621 l 488 575 m 821 868 q 811 877 815 868 q 807 892 807 886 q 815 910 807 906 l 975 994 q 989 999 982 999 q 1001 994 997 999 l 1092 908 q 1096 899 1096 904 q 1085 878 1096 889 q 1063 876 1074 867 l 982 944 l 835 874 q 821 868 825 868 m 1096 976 q 1085 981 1090 978 q 1078 996 1081 985 l 1078 999 q 1081 1007 1078 1004 q 1086 1013 1083 1010 l 1264 1110 q 1276 1113 1268 1113 q 1291 1101 1283 1111 q 1299 1083 1299 1090 q 1285 1067 1299 1072 l 1104 978 q 1096 976 1101 976 z "},"Ệ":{"ha":1117,"x_min":110,"x_max":1143,"o":"m 451 -153 q 259 -121 335 -153 q 147 -37 183 -89 q 110 75 110 15 q 151 208 110 142 q 274 326 193 275 q 469 394 354 376 q 419 440 435 414 q 404 494 404 467 q 415 547 404 519 q 316 591 361 565 q 239 650 271 617 q 199 710 213 678 q 185 769 185 742 q 207 828 185 804 q 278 851 229 851 q 372 832 314 851 q 388 822 383 829 q 392 807 392 814 q 384 790 392 797 q 363 786 376 782 q 296 799 324 799 q 238 756 238 799 q 286 675 238 722 q 438 592 335 628 q 471 636 451 615 q 510 674 490 657 q 687 769 581 729 q 918 808 793 808 q 946 808 932 808 q 974 806 960 807 q 1102 765 1061 797 q 1143 692 1143 732 q 1097 599 1143 646 q 968 526 1051 553 q 863 505 922 513 q 739 497 804 497 q 599 506 671 497 q 461 533 528 514 q 457 507 457 519 q 508 435 457 464 q 674 406 560 406 q 700 385 700 406 q 691 366 700 375 q 667 354 682 357 q 634 356 650 356 q 603 357 618 357 q 365 315 463 357 q 216 208 267 272 q 165 79 165 144 q 235 -50 165 6 q 453 -106 306 -106 q 681 -83 583 -106 q 847 -24 778 -60 q 961 49 917 13 q 989 78 968 56 q 1028 127 1010 100 q 1046 172 1046 154 q 1042 185 1046 181 q 1029 210 1029 197 q 1051 229 1029 229 q 1079 215 1065 229 q 1093 172 1093 201 q 1077 113 1093 143 q 1038 56 1061 82 q 996 14 1015 31 q 870 -67 946 -29 q 691 -128 794 -104 q 451 -153 588 -153 m 488 575 q 610 551 546 558 q 735 543 674 543 q 944 571 857 543 q 1053 625 1019 594 q 1088 683 1088 656 q 1056 732 1088 711 q 968 757 1025 753 q 942 759 954 758 q 915 760 929 760 q 731 733 818 760 q 580 663 644 706 q 483 576 515 621 l 488 575 m 389 -319 q 361 -308 372 -319 q 350 -281 350 -296 q 361 -253 350 -264 q 389 -243 372 -243 q 416 -253 406 -243 q 426 -281 426 -264 q 416 -308 426 -296 q 389 -319 406 -319 m 821 868 q 811 877 815 868 q 807 892 807 886 q 815 910 807 906 l 975 994 q 989 999 982 999 q 1001 994 997 999 l 1092 908 q 1096 899 1096 904 q 1085 878 1096 889 q 1063 876 1074 867 l 982 944 l 835 874 q 821 868 825 868 z "},"Ề":{"ha":1117,"x_min":110,"x_max":1143,"o":"m 451 -153 q 259 -121 335 -153 q 147 -37 183 -89 q 110 75 110 15 q 151 208 110 142 q 274 326 193 275 q 469 394 354 376 q 419 440 435 414 q 404 494 404 467 q 415 547 404 519 q 316 591 361 565 q 239 650 271 617 q 199 710 213 678 q 185 769 185 742 q 207 828 185 804 q 278 851 229 851 q 372 832 314 851 q 388 822 383 829 q 392 807 392 814 q 384 790 392 797 q 363 786 376 782 q 296 799 324 799 q 238 756 238 799 q 286 675 238 722 q 438 592 335 628 q 471 636 451 615 q 510 674 490 657 q 687 769 581 729 q 918 808 793 808 q 946 808 932 808 q 974 806 960 807 q 1102 765 1061 797 q 1143 692 1143 732 q 1097 599 1143 646 q 968 526 1051 553 q 863 505 922 513 q 739 497 804 497 q 599 506 671 497 q 461 533 528 514 q 457 507 457 519 q 508 435 457 464 q 674 406 560 406 q 700 385 700 406 q 691 366 700 375 q 667 354 682 357 q 634 356 650 356 q 603 357 618 357 q 365 315 463 357 q 216 208 267 272 q 165 79 165 144 q 235 -50 165 6 q 453 -106 306 -106 q 681 -83 583 -106 q 847 -24 778 -60 q 961 49 917 13 q 989 78 968 56 q 1028 127 1010 100 q 1046 172 1046 154 q 1042 185 1046 181 q 1029 210 1029 197 q 1051 229 1029 229 q 1079 215 1065 229 q 1093 172 1093 201 q 1077 113 1093 143 q 1038 56 1061 82 q 996 14 1015 31 q 870 -67 946 -29 q 691 -128 794 -104 q 451 -153 588 -153 m 488 575 q 610 551 546 558 q 735 543 674 543 q 944 571 857 543 q 1053 625 1019 594 q 1088 683 1088 656 q 1056 732 1088 711 q 968 757 1025 753 q 942 759 954 758 q 915 760 929 760 q 731 733 818 760 q 580 663 644 706 q 483 576 515 621 l 488 575 m 821 868 q 811 877 815 868 q 807 892 807 886 q 815 910 807 906 l 975 994 q 989 999 982 999 q 1001 994 997 999 l 1092 908 q 1096 899 1096 904 q 1085 878 1096 889 q 1063 876 1074 867 l 982 944 l 835 874 q 821 868 825 868 m 1113 1010 q 1104 1011 1107 1010 l 924 1100 q 910 1115 913 1104 l 910 1117 q 917 1134 910 1124 q 932 1146 925 1144 q 944 1143 940 1146 l 1122 1046 q 1128 1040 1125 1043 q 1131 1029 1132 1036 q 1124 1015 1128 1018 q 1113 1010 1119 1011 z "},"Ể":{"ha":1117,"x_min":110,"x_max":1219,"o":"m 451 -153 q 259 -121 335 -153 q 147 -37 183 -89 q 110 75 110 15 q 151 208 110 142 q 274 326 193 275 q 469 394 354 376 q 419 440 435 414 q 404 494 404 467 q 415 547 404 519 q 316 591 361 565 q 239 650 271 617 q 199 710 213 678 q 185 769 185 742 q 207 828 185 804 q 278 851 229 851 q 372 832 314 851 q 388 822 383 829 q 392 807 392 814 q 384 790 392 797 q 363 786 376 782 q 296 799 324 799 q 238 756 238 799 q 286 675 238 722 q 438 592 335 628 q 471 636 451 615 q 510 674 490 657 q 687 769 581 729 q 918 808 793 808 q 946 808 932 808 q 974 806 960 807 q 1102 765 1061 797 q 1143 692 1143 732 q 1097 599 1143 646 q 968 526 1051 553 q 863 505 922 513 q 739 497 804 497 q 599 506 671 497 q 461 533 528 514 q 457 507 457 519 q 508 435 457 464 q 674 406 560 406 q 700 385 700 406 q 691 366 700 375 q 667 354 682 357 q 634 356 650 356 q 603 357 618 357 q 365 315 463 357 q 216 208 267 272 q 165 79 165 144 q 235 -50 165 6 q 453 -106 306 -106 q 681 -83 583 -106 q 847 -24 778 -60 q 961 49 917 13 q 989 78 968 56 q 1028 127 1010 100 q 1046 172 1046 154 q 1042 185 1046 181 q 1029 210 1029 197 q 1051 229 1029 229 q 1079 215 1065 229 q 1093 172 1093 201 q 1077 113 1093 143 q 1038 56 1061 82 q 996 14 1015 31 q 870 -67 946 -29 q 691 -128 794 -104 q 451 -153 588 -153 m 488 575 q 610 551 546 558 q 735 543 674 543 q 944 571 857 543 q 1053 625 1019 594 q 1088 683 1088 656 q 1056 732 1088 711 q 968 757 1025 753 q 942 759 954 758 q 915 760 929 760 q 731 733 818 760 q 580 663 644 706 q 483 576 515 621 l 488 575 m 821 868 q 811 877 815 868 q 807 892 807 886 q 815 910 807 906 l 975 994 q 989 999 982 999 q 1001 994 997 999 l 1092 908 q 1096 899 1096 904 q 1085 878 1096 889 q 1063 876 1074 867 l 982 944 l 835 874 q 821 868 825 868 m 1104 983 q 1093 993 1093 983 q 1099 1006 1093 1000 q 1144 1038 1122 1025 q 1167 1076 1167 1050 q 1158 1103 1167 1096 q 1138 1111 1149 1111 q 1099 1102 1117 1111 q 1067 1086 1081 1093 q 1054 1082 1058 1082 q 1043 1092 1043 1082 q 1044 1104 1043 1094 q 1056 1119 1046 1114 q 1103 1145 1081 1135 q 1154 1156 1125 1156 q 1203 1133 1186 1156 q 1219 1088 1219 1111 q 1194 1030 1219 1050 q 1142 994 1169 1010 q 1104 983 1124 983 z "},"Ễ":{"ha":1117,"x_min":110,"x_max":1150,"o":"m 451 -153 q 259 -121 335 -153 q 147 -37 183 -89 q 110 75 110 15 q 151 208 110 142 q 274 326 193 275 q 469 394 354 376 q 419 440 435 414 q 404 494 404 467 q 415 547 404 519 q 316 591 361 565 q 239 650 271 617 q 199 710 213 678 q 185 769 185 742 q 207 828 185 804 q 278 851 229 851 q 372 832 314 851 q 388 822 383 829 q 392 807 392 814 q 384 790 392 797 q 363 786 376 782 q 296 799 324 799 q 238 756 238 799 q 286 675 238 722 q 438 592 335 628 q 471 636 451 615 q 510 674 490 657 q 687 769 581 729 q 918 808 793 808 q 946 808 932 808 q 974 806 960 807 q 1102 765 1061 797 q 1143 692 1143 732 q 1097 599 1143 646 q 968 526 1051 553 q 863 505 922 513 q 739 497 804 497 q 599 506 671 497 q 461 533 528 514 q 457 507 457 519 q 508 435 457 464 q 674 406 560 406 q 700 385 700 406 q 691 366 700 375 q 667 354 682 357 q 634 356 650 356 q 603 357 618 357 q 365 315 463 357 q 216 208 267 272 q 165 79 165 144 q 235 -50 165 6 q 453 -106 306 -106 q 681 -83 583 -106 q 847 -24 778 -60 q 961 49 917 13 q 989 78 968 56 q 1028 127 1010 100 q 1046 172 1046 154 q 1042 185 1046 181 q 1029 210 1029 197 q 1051 229 1029 229 q 1079 215 1065 229 q 1093 172 1093 201 q 1077 113 1093 143 q 1038 56 1061 82 q 996 14 1015 31 q 870 -67 946 -29 q 691 -128 794 -104 q 451 -153 588 -153 m 488 575 q 610 551 546 558 q 735 543 674 543 q 944 571 857 543 q 1053 625 1019 594 q 1088 683 1088 656 q 1056 732 1088 711 q 968 757 1025 753 q 942 759 954 758 q 915 760 929 760 q 731 733 818 760 q 580 663 644 706 q 483 576 515 621 l 488 575 m 821 868 q 811 877 815 868 q 807 892 807 886 q 815 910 807 906 l 975 994 q 989 999 982 999 q 1001 994 997 999 l 1092 908 q 1096 899 1096 904 q 1085 878 1096 889 q 1063 876 1074 867 l 982 944 l 835 874 q 821 868 825 868 m 879 1021 q 861 1042 861 1021 q 865 1056 861 1050 q 907 1102 885 1083 q 958 1121 929 1121 q 994 1110 978 1121 q 1024 1090 1011 1099 q 1048 1077 1035 1083 q 1068 1071 1061 1071 q 1092 1078 1078 1071 q 1113 1101 1107 1086 q 1119 1107 1115 1104 q 1128 1110 1122 1110 q 1144 1099 1139 1110 q 1144 1078 1150 1089 q 1067 1022 1118 1022 q 1026 1036 1044 1022 q 997 1056 1008 1050 q 951 1074 965 1074 q 924 1063 940 1074 q 892 1028 907 1051 q 879 1021 888 1021 z "},"Ȅ":{"ha":1117,"x_min":110,"x_max":1143,"o":"m 1001 869 q 994 872 996 871 l 840 1003 q 831 1021 831 1010 l 831 1022 q 843 1038 833 1029 q 860 1044 853 1046 q 871 1039 868 1043 l 1019 901 q 1024 894 1022 899 q 1024 883 1026 890 q 1013 872 1018 874 q 1001 869 1008 869 m 897 871 q 889 874 892 872 l 718 981 q 707 997 707 986 l 707 999 q 716 1015 707 1006 q 732 1025 725 1025 q 744 1021 740 1025 l 911 906 q 917 899 914 903 q 917 889 919 894 q 908 875 913 878 q 897 871 903 872 m 451 -153 q 259 -121 335 -153 q 147 -37 183 -89 q 110 75 110 15 q 151 208 110 142 q 274 326 193 275 q 469 394 354 376 q 419 440 435 414 q 404 494 404 467 q 415 547 404 519 q 316 591 361 565 q 239 650 271 617 q 199 710 213 678 q 185 769 185 742 q 207 828 185 804 q 278 851 229 851 q 372 832 314 851 q 388 822 383 829 q 392 807 392 814 q 384 790 392 797 q 363 786 376 782 q 296 799 324 799 q 238 756 238 799 q 286 675 238 722 q 438 592 335 628 q 471 636 451 615 q 510 674 490 657 q 687 769 581 729 q 918 808 793 808 q 946 808 932 808 q 974 806 960 807 q 1102 765 1061 797 q 1143 692 1143 732 q 1097 599 1143 646 q 968 526 1051 553 q 863 505 922 513 q 739 497 804 497 q 599 506 671 497 q 461 533 528 514 q 457 507 457 519 q 508 435 457 464 q 674 406 560 406 q 700 385 700 406 q 691 366 700 375 q 667 354 682 357 q 634 356 650 356 q 603 357 618 357 q 365 315 463 357 q 216 208 267 272 q 165 79 165 144 q 235 -50 165 6 q 453 -106 306 -106 q 681 -83 583 -106 q 847 -24 778 -60 q 961 49 917 13 q 989 78 968 56 q 1028 127 1010 100 q 1046 172 1046 154 q 1042 185 1046 181 q 1029 210 1029 197 q 1051 229 1029 229 q 1079 215 1065 229 q 1093 172 1093 201 q 1077 113 1093 143 q 1038 56 1061 82 q 996 14 1015 31 q 870 -67 946 -29 q 691 -128 794 -104 q 451 -153 588 -153 m 488 575 q 610 551 546 558 q 735 543 674 543 q 944 571 857 543 q 1053 625 1019 594 q 1088 683 1088 656 q 1056 732 1088 711 q 968 757 1025 753 q 942 759 954 758 q 915 760 929 760 q 731 733 818 760 q 580 663 644 706 q 483 576 515 621 l 488 575 z "},"Ë":{"ha":1117,"x_min":110,"x_max":1143,"o":"m 451 -153 q 259 -121 335 -153 q 147 -37 183 -89 q 110 75 110 15 q 151 208 110 142 q 274 326 193 275 q 469 394 354 376 q 419 440 435 414 q 404 494 404 467 q 415 547 404 519 q 316 591 361 565 q 239 650 271 617 q 199 710 213 678 q 185 769 185 742 q 207 828 185 804 q 278 851 229 851 q 372 832 314 851 q 388 822 383 829 q 392 807 392 814 q 384 790 392 797 q 363 786 376 782 q 296 799 324 799 q 238 756 238 799 q 286 675 238 722 q 438 592 335 628 q 471 636 451 615 q 510 674 490 657 q 687 769 581 729 q 918 808 793 808 q 946 808 932 808 q 974 806 960 807 q 1102 765 1061 797 q 1143 692 1143 732 q 1097 599 1143 646 q 968 526 1051 553 q 863 505 922 513 q 739 497 804 497 q 599 506 671 497 q 461 533 528 514 q 457 507 457 519 q 508 435 457 464 q 674 406 560 406 q 700 385 700 406 q 691 366 700 375 q 667 354 682 357 q 634 356 650 356 q 603 357 618 357 q 365 315 463 357 q 216 208 267 272 q 165 79 165 144 q 235 -50 165 6 q 453 -106 306 -106 q 681 -83 583 -106 q 847 -24 778 -60 q 961 49 917 13 q 989 78 968 56 q 1028 127 1010 100 q 1046 172 1046 154 q 1042 185 1046 181 q 1029 210 1029 197 q 1051 229 1029 229 q 1079 215 1065 229 q 1093 172 1093 201 q 1077 113 1093 143 q 1038 56 1061 82 q 996 14 1015 31 q 870 -67 946 -29 q 691 -128 794 -104 q 451 -153 588 -153 m 488 575 q 610 551 546 558 q 735 543 674 543 q 944 571 857 543 q 1053 625 1019 594 q 1088 683 1088 656 q 1056 732 1088 711 q 968 757 1025 753 q 942 759 954 758 q 915 760 929 760 q 731 733 818 760 q 580 663 644 706 q 483 576 515 621 l 488 575 m 1036 878 q 1008 890 1019 878 q 997 917 997 901 q 1008 944 997 933 q 1036 954 1019 954 q 1063 944 1053 954 q 1074 917 1074 933 q 1063 890 1074 901 q 1036 878 1053 878 m 872 878 q 844 890 856 878 q 833 917 833 901 q 844 944 833 933 q 872 954 856 954 q 899 944 889 954 q 910 917 910 933 q 899 890 910 901 q 872 878 889 878 z "},"Ė":{"ha":1117,"x_min":110,"x_max":1143,"o":"m 451 -153 q 259 -121 335 -153 q 147 -37 183 -89 q 110 75 110 15 q 151 208 110 142 q 274 326 193 275 q 469 394 354 376 q 419 440 435 414 q 404 494 404 467 q 415 547 404 519 q 316 591 361 565 q 239 650 271 617 q 199 710 213 678 q 185 769 185 742 q 207 828 185 804 q 278 851 229 851 q 372 832 314 851 q 388 822 383 829 q 392 807 392 814 q 384 790 392 797 q 363 786 376 782 q 296 799 324 799 q 238 756 238 799 q 286 675 238 722 q 438 592 335 628 q 471 636 451 615 q 510 674 490 657 q 687 769 581 729 q 918 808 793 808 q 946 808 932 808 q 974 806 960 807 q 1102 765 1061 797 q 1143 692 1143 732 q 1097 599 1143 646 q 968 526 1051 553 q 863 505 922 513 q 739 497 804 497 q 599 506 671 497 q 461 533 528 514 q 457 507 457 519 q 508 435 457 464 q 674 406 560 406 q 700 385 700 406 q 691 366 700 375 q 667 354 682 357 q 634 356 650 356 q 603 357 618 357 q 365 315 463 357 q 216 208 267 272 q 165 79 165 144 q 235 -50 165 6 q 453 -106 306 -106 q 681 -83 583 -106 q 847 -24 778 -60 q 961 49 917 13 q 989 78 968 56 q 1028 127 1010 100 q 1046 172 1046 154 q 1042 185 1046 181 q 1029 210 1029 197 q 1051 229 1029 229 q 1079 215 1065 229 q 1093 172 1093 201 q 1077 113 1093 143 q 1038 56 1061 82 q 996 14 1015 31 q 870 -67 946 -29 q 691 -128 794 -104 q 451 -153 588 -153 m 488 575 q 610 551 546 558 q 735 543 674 543 q 944 571 857 543 q 1053 625 1019 594 q 1088 683 1088 656 q 1056 732 1088 711 q 968 757 1025 753 q 942 759 954 758 q 915 760 929 760 q 731 733 818 760 q 580 663 644 706 q 483 576 515 621 l 488 575 m 954 878 q 926 890 938 878 q 915 917 915 901 q 926 944 915 933 q 954 954 938 954 q 981 944 971 954 q 992 917 992 933 q 981 890 992 901 q 954 878 971 878 z "},"Ẹ":{"ha":1117,"x_min":110,"x_max":1143,"o":"m 451 -153 q 259 -121 335 -153 q 147 -37 183 -89 q 110 75 110 15 q 151 208 110 142 q 274 326 193 275 q 469 394 354 376 q 419 440 435 414 q 404 494 404 467 q 415 547 404 519 q 316 591 361 565 q 239 650 271 617 q 199 710 213 678 q 185 769 185 742 q 207 828 185 804 q 278 851 229 851 q 372 832 314 851 q 388 822 383 829 q 392 807 392 814 q 384 790 392 797 q 363 786 376 782 q 296 799 324 799 q 238 756 238 799 q 286 675 238 722 q 438 592 335 628 q 471 636 451 615 q 510 674 490 657 q 687 769 581 729 q 918 808 793 808 q 946 808 932 808 q 974 806 960 807 q 1102 765 1061 797 q 1143 692 1143 732 q 1097 599 1143 646 q 968 526 1051 553 q 863 505 922 513 q 739 497 804 497 q 599 506 671 497 q 461 533 528 514 q 457 507 457 519 q 508 435 457 464 q 674 406 560 406 q 700 385 700 406 q 691 366 700 375 q 667 354 682 357 q 634 356 650 356 q 603 357 618 357 q 365 315 463 357 q 216 208 267 272 q 165 79 165 144 q 235 -50 165 6 q 453 -106 306 -106 q 681 -83 583 -106 q 847 -24 778 -60 q 961 49 917 13 q 989 78 968 56 q 1028 127 1010 100 q 1046 172 1046 154 q 1042 185 1046 181 q 1029 210 1029 197 q 1051 229 1029 229 q 1079 215 1065 229 q 1093 172 1093 201 q 1077 113 1093 143 q 1038 56 1061 82 q 996 14 1015 31 q 870 -67 946 -29 q 691 -128 794 -104 q 451 -153 588 -153 m 488 575 q 610 551 546 558 q 735 543 674 543 q 944 571 857 543 q 1053 625 1019 594 q 1088 683 1088 656 q 1056 732 1088 711 q 968 757 1025 753 q 942 759 954 758 q 915 760 929 760 q 731 733 818 760 q 580 663 644 706 q 483 576 515 621 l 488 575 m 389 -319 q 361 -308 372 -319 q 350 -281 350 -296 q 361 -253 350 -264 q 389 -243 372 -243 q 416 -253 406 -243 q 426 -281 426 -264 q 416 -308 426 -296 q 389 -319 406 -319 z "},"È":{"ha":1117,"x_min":110,"x_max":1143,"o":"m 451 -153 q 259 -121 335 -153 q 147 -37 183 -89 q 110 75 110 15 q 151 208 110 142 q 274 326 193 275 q 469 394 354 376 q 419 440 435 414 q 404 494 404 467 q 415 547 404 519 q 316 591 361 565 q 239 650 271 617 q 199 710 213 678 q 185 769 185 742 q 207 828 185 804 q 278 851 229 851 q 372 832 314 851 q 388 822 383 829 q 392 807 392 814 q 384 790 392 797 q 363 786 376 782 q 296 799 324 799 q 238 756 238 799 q 286 675 238 722 q 438 592 335 628 q 471 636 451 615 q 510 674 490 657 q 687 769 581 729 q 918 808 793 808 q 946 808 932 808 q 974 806 960 807 q 1102 765 1061 797 q 1143 692 1143 732 q 1097 599 1143 646 q 968 526 1051 553 q 863 505 922 513 q 739 497 804 497 q 599 506 671 497 q 461 533 528 514 q 457 507 457 519 q 508 435 457 464 q 674 406 560 406 q 700 385 700 406 q 691 366 700 375 q 667 354 682 357 q 634 356 650 356 q 603 357 618 357 q 365 315 463 357 q 216 208 267 272 q 165 79 165 144 q 235 -50 165 6 q 453 -106 306 -106 q 681 -83 583 -106 q 847 -24 778 -60 q 961 49 917 13 q 989 78 968 56 q 1028 127 1010 100 q 1046 172 1046 154 q 1042 185 1046 181 q 1029 210 1029 197 q 1051 229 1029 229 q 1079 215 1065 229 q 1093 172 1093 201 q 1077 113 1093 143 q 1038 56 1061 82 q 996 14 1015 31 q 870 -67 946 -29 q 691 -128 794 -104 q 451 -153 588 -153 m 488 575 q 610 551 546 558 q 735 543 674 543 q 944 571 857 543 q 1053 625 1019 594 q 1088 683 1088 656 q 1056 732 1088 711 q 968 757 1025 753 q 942 759 954 758 q 915 760 929 760 q 731 733 818 760 q 580 663 644 706 q 483 576 515 621 l 488 575 m 1008 878 q 1000 879 1003 878 l 819 968 q 806 983 808 972 l 806 985 q 813 1002 806 992 q 828 1014 821 1013 q 840 1011 836 1014 l 1018 914 q 1024 908 1021 911 q 1026 897 1028 904 q 1019 883 1024 886 q 1008 878 1015 879 z "},"Ẻ":{"ha":1117,"x_min":110,"x_max":1143,"o":"m 451 -153 q 259 -121 335 -153 q 147 -37 183 -89 q 110 75 110 15 q 151 208 110 142 q 274 326 193 275 q 469 394 354 376 q 419 440 435 414 q 404 494 404 467 q 415 547 404 519 q 316 591 361 565 q 239 650 271 617 q 199 710 213 678 q 185 769 185 742 q 207 828 185 804 q 278 851 229 851 q 372 832 314 851 q 388 822 383 829 q 392 807 392 814 q 384 790 392 797 q 363 786 376 782 q 296 799 324 799 q 238 756 238 799 q 286 675 238 722 q 438 592 335 628 q 471 636 451 615 q 510 674 490 657 q 687 769 581 729 q 918 808 793 808 q 946 808 932 808 q 974 806 960 807 q 1102 765 1061 797 q 1143 692 1143 732 q 1097 599 1143 646 q 968 526 1051 553 q 863 505 922 513 q 739 497 804 497 q 599 506 671 497 q 461 533 528 514 q 457 507 457 519 q 508 435 457 464 q 674 406 560 406 q 700 385 700 406 q 691 366 700 375 q 667 354 682 357 q 634 356 650 356 q 603 357 618 357 q 365 315 463 357 q 216 208 267 272 q 165 79 165 144 q 235 -50 165 6 q 453 -106 306 -106 q 681 -83 583 -106 q 847 -24 778 -60 q 961 49 917 13 q 989 78 968 56 q 1028 127 1010 100 q 1046 172 1046 154 q 1042 185 1046 181 q 1029 210 1029 197 q 1051 229 1029 229 q 1079 215 1065 229 q 1093 172 1093 201 q 1077 113 1093 143 q 1038 56 1061 82 q 996 14 1015 31 q 870 -67 946 -29 q 691 -128 794 -104 q 451 -153 588 -153 m 488 575 q 610 551 546 558 q 735 543 674 543 q 944 571 857 543 q 1053 625 1019 594 q 1088 683 1088 656 q 1056 732 1088 711 q 968 757 1025 753 q 942 759 954 758 q 915 760 929 760 q 731 733 818 760 q 580 663 644 706 q 483 576 515 621 l 488 575 m 947 864 q 936 874 936 864 q 942 886 936 881 q 988 918 965 906 q 1010 957 1010 931 q 1001 984 1010 976 q 981 992 992 992 q 942 983 960 992 q 910 967 924 974 q 897 963 901 963 q 886 972 886 963 q 888 985 886 975 q 899 1000 889 994 q 946 1026 924 1015 q 997 1036 968 1036 q 1046 1014 1029 1036 q 1063 968 1063 992 q 1038 910 1063 931 q 985 875 1013 890 q 947 864 967 864 z "},"Ȇ":{"ha":1117,"x_min":110,"x_max":1143,"o":"m 972 992 q 1068 967 1038 992 q 1099 910 1099 942 q 1090 883 1099 894 q 1069 872 1081 872 q 1060 882 1060 872 q 1040 930 1060 914 q 969 946 1019 946 q 899 929 932 946 q 851 883 867 913 q 841 871 847 874 q 829 868 835 868 q 818 872 826 868 q 814 889 810 876 q 868 960 825 929 q 972 992 911 992 m 451 -153 q 259 -121 335 -153 q 147 -37 183 -89 q 110 75 110 15 q 151 208 110 142 q 274 326 193 275 q 469 394 354 376 q 419 440 435 414 q 404 494 404 467 q 415 547 404 519 q 316 591 361 565 q 239 650 271 617 q 199 710 213 678 q 185 769 185 742 q 207 828 185 804 q 278 851 229 851 q 372 832 314 851 q 388 822 383 829 q 392 807 392 814 q 384 790 392 797 q 363 786 376 782 q 296 799 324 799 q 238 756 238 799 q 286 675 238 722 q 438 592 335 628 q 471 636 451 615 q 510 674 490 657 q 687 769 581 729 q 918 808 793 808 q 946 808 932 808 q 974 806 960 807 q 1102 765 1061 797 q 1143 692 1143 732 q 1097 599 1143 646 q 968 526 1051 553 q 863 505 922 513 q 739 497 804 497 q 599 506 671 497 q 461 533 528 514 q 457 507 457 519 q 508 435 457 464 q 674 406 560 406 q 700 385 700 406 q 691 366 700 375 q 667 354 682 357 q 634 356 650 356 q 603 357 618 357 q 365 315 463 357 q 216 208 267 272 q 165 79 165 144 q 235 -50 165 6 q 453 -106 306 -106 q 681 -83 583 -106 q 847 -24 778 -60 q 961 49 917 13 q 989 78 968 56 q 1028 127 1010 100 q 1046 172 1046 154 q 1042 185 1046 181 q 1029 210 1029 197 q 1051 229 1029 229 q 1079 215 1065 229 q 1093 172 1093 201 q 1077 113 1093 143 q 1038 56 1061 82 q 996 14 1015 31 q 870 -67 946 -29 q 691 -128 794 -104 q 451 -153 588 -153 m 488 575 q 610 551 546 558 q 735 543 674 543 q 944 571 857 543 q 1053 625 1019 594 q 1088 683 1088 656 q 1056 732 1088 711 q 968 757 1025 753 q 942 759 954 758 q 915 760 929 760 q 731 733 818 760 q 580 663 644 706 q 483 576 515 621 l 488 575 z "},"Ē":{"ha":1117,"x_min":110,"x_max":1143,"o":"m 451 -153 q 259 -121 335 -153 q 147 -37 183 -89 q 110 75 110 15 q 151 208 110 142 q 274 326 193 275 q 469 394 354 376 q 419 440 435 414 q 404 494 404 467 q 415 547 404 519 q 316 591 361 565 q 239 650 271 617 q 199 710 213 678 q 185 769 185 742 q 207 828 185 804 q 278 851 229 851 q 372 832 314 851 q 388 822 383 829 q 392 807 392 814 q 384 790 392 797 q 363 786 376 782 q 296 799 324 799 q 238 756 238 799 q 286 675 238 722 q 438 592 335 628 q 471 636 451 615 q 510 674 490 657 q 687 769 581 729 q 918 808 793 808 q 946 808 932 808 q 974 806 960 807 q 1102 765 1061 797 q 1143 692 1143 732 q 1097 599 1143 646 q 968 526 1051 553 q 863 505 922 513 q 739 497 804 497 q 599 506 671 497 q 461 533 528 514 q 457 507 457 519 q 508 435 457 464 q 674 406 560 406 q 700 385 700 406 q 691 366 700 375 q 667 354 682 357 q 634 356 650 356 q 603 357 618 357 q 365 315 463 357 q 216 208 267 272 q 165 79 165 144 q 235 -50 165 6 q 453 -106 306 -106 q 681 -83 583 -106 q 847 -24 778 -60 q 961 49 917 13 q 989 78 968 56 q 1028 127 1010 100 q 1046 172 1046 154 q 1042 185 1046 181 q 1029 210 1029 197 q 1051 229 1029 229 q 1079 215 1065 229 q 1093 172 1093 201 q 1077 113 1093 143 q 1038 56 1061 82 q 996 14 1015 31 q 870 -67 946 -29 q 691 -128 794 -104 q 451 -153 588 -153 m 488 575 q 610 551 546 558 q 735 543 674 543 q 944 571 857 543 q 1053 625 1019 594 q 1088 683 1088 656 q 1056 732 1088 711 q 968 757 1025 753 q 942 759 954 758 q 915 760 929 760 q 731 733 818 760 q 580 663 644 706 q 483 576 515 621 l 488 575 m 821 888 q 801 896 808 888 q 794 911 794 904 q 801 927 794 919 q 821 935 808 935 l 1054 935 q 1074 927 1068 935 q 1081 911 1081 919 q 1074 896 1081 904 q 1054 888 1068 888 l 821 888 z "},"Ŋ":{"ha":833,"x_min":-25,"x_max":974,"o":"m 117 -425 q 103 -424 111 -425 q 89 -422 96 -424 q 42 -399 60 -418 q 25 -347 25 -379 q 69 -242 25 -297 q 188 -153 113 -187 q 193 -151 190 -151 q 199 -150 196 -150 q 217 -165 217 -150 q 200 -189 217 -178 q 83 -328 100 -264 q 81 -337 82 -333 q 81 -346 81 -342 q 114 -378 81 -378 q 200 -351 158 -378 q 279 -276 242 -324 q 339 -181 304 -246 q 417 -22 374 -115 q 463 153 447 61 q 483 334 478 246 q 489 492 489 422 q 486 606 489 563 q 483 649 483 649 q 191 202 301 381 q 21 -71 81 24 q 4 -79 15 -79 q -15 -70 -6 -79 q -25 -51 -25 -61 q -21 -39 -25 -44 q 40 58 0 -6 q 131 206 79 122 q 241 381 183 289 q 356 560 299 472 q 463 722 413 649 q 479 738 469 733 q 499 743 489 743 q 523 735 513 743 q 535 710 533 726 q 541 635 538 692 q 544 500 544 579 q 540 352 544 432 q 525 186 536 272 q 640 394 581 290 q 755 589 700 499 q 851 743 810 679 q 910 831 892 807 q 950 854 929 854 q 967 849 960 854 q 974 832 974 843 q 968 815 974 822 q 726 429 838 626 q 525 54 615 232 q 429 -139 472 -53 q 338 -289 386 -225 q 236 -386 293 -347 q 117 -425 179 -425 z "},"Ę":{"ha":1117,"x_min":110,"x_max":1143,"o":"m 451 -153 q 259 -121 335 -153 q 147 -37 183 -89 q 110 75 110 15 q 151 208 110 142 q 274 326 193 275 q 469 394 354 376 q 419 440 435 414 q 404 494 404 467 q 415 547 404 519 q 316 591 361 565 q 239 650 271 617 q 199 710 213 678 q 185 769 185 742 q 207 828 185 804 q 278 851 229 851 q 372 832 314 851 q 388 822 383 829 q 392 807 392 814 q 384 790 392 797 q 363 786 376 782 q 296 799 324 799 q 238 756 238 799 q 286 675 238 722 q 438 592 335 628 q 471 636 451 615 q 510 674 490 657 q 687 769 581 729 q 918 808 793 808 q 946 808 932 808 q 974 806 960 807 q 1102 765 1061 797 q 1143 692 1143 732 q 1097 599 1143 646 q 968 526 1051 553 q 863 505 922 513 q 739 497 804 497 q 599 506 671 497 q 461 533 528 514 q 457 507 457 519 q 508 435 457 464 q 674 406 560 406 q 700 385 700 406 q 691 366 700 375 q 667 354 682 357 q 634 356 650 356 q 603 357 618 357 q 365 315 463 357 q 216 208 267 272 q 165 79 165 144 q 235 -50 165 6 q 453 -106 306 -106 q 681 -83 583 -106 q 847 -24 778 -60 q 961 49 917 13 q 989 78 968 56 q 1028 127 1010 100 q 1046 172 1046 154 q 1042 185 1046 181 q 1029 210 1029 197 q 1051 229 1029 229 q 1079 215 1065 229 q 1093 172 1093 201 q 1077 113 1093 143 q 1038 56 1061 82 q 996 14 1015 31 q 870 -67 946 -29 q 691 -128 794 -104 q 451 -153 588 -153 m 488 575 q 610 551 546 558 q 735 543 674 543 q 944 571 857 543 q 1053 625 1019 594 q 1088 683 1088 656 q 1056 732 1088 711 q 968 757 1025 753 q 942 759 954 758 q 915 760 929 760 q 731 733 818 760 q 580 663 644 706 q 483 576 515 621 l 488 575 m 829 -271 q 776 -256 797 -271 q 754 -206 754 -240 q 775 -133 754 -168 q 822 -69 796 -97 q 864 -28 847 -40 q 888 -19 872 -19 q 903 -31 894 -19 q 904 -49 913 -42 q 834 -124 864 -86 q 804 -189 804 -162 q 817 -213 804 -203 q 851 -224 829 -224 q 911 -205 892 -224 q 953 -164 931 -186 q 969 -182 969 -164 q 953 -219 969 -200 q 894 -263 919 -256 q 829 -271 868 -271 z "},"Ð":{"ha":1451,"x_min":157,"x_max":1439,"o":"m 736 354 q 710 363 719 354 q 701 378 701 371 q 710 394 701 386 q 736 401 719 401 l 831 401 q 981 608 904 506 q 1132 783 1057 711 q 1043 809 1090 800 q 942 818 996 818 q 690 790 796 818 q 512 715 583 761 q 399 617 440 669 q 343 519 358 565 q 335 487 338 501 q 332 458 332 472 q 361 388 332 411 q 436 364 390 364 q 542 390 483 364 q 661 473 600 417 q 774 621 722 529 q 794 633 781 633 q 813 627 806 633 q 821 610 821 621 q 817 596 821 603 q 694 436 761 499 q 559 344 626 374 q 433 314 492 314 q 325 351 368 314 q 282 456 282 388 q 296 535 282 493 q 360 650 314 592 q 485 758 407 708 q 677 838 564 807 q 942 868 790 868 q 1066 856 1008 868 q 1172 821 1124 843 q 1255 878 1214 857 q 1333 899 1296 899 q 1351 891 1346 899 q 1357 874 1357 883 q 1351 856 1357 864 q 1333 849 1346 849 q 1219 796 1289 849 q 1384 618 1329 729 q 1439 389 1439 507 q 1394 182 1439 279 q 1226 -6 1343 67 q 950 -79 1110 -79 q 735 -46 850 -79 q 656 -18 694 -33 q 578 14 617 -3 q 456 -49 528 -24 q 318 -74 383 -74 q 195 -36 233 -74 q 157 47 157 1 q 194 135 157 94 q 297 175 232 175 q 406 149 350 175 q 510 100 461 122 q 539 86 524 93 q 569 72 554 79 q 678 192 619 117 q 797 354 736 267 l 736 354 m 750 1 q 949 -29 854 -29 q 1201 37 1097 -29 q 1350 204 1304 103 q 1390 389 1390 292 q 1338 601 1390 499 q 1179 761 1285 703 q 1092 672 1136 724 q 1007 561 1049 621 q 958 490 986 532 q 896 401 929 449 l 992 401 q 1018 394 1010 401 q 1026 378 1026 386 q 1018 363 1026 371 q 992 354 1010 354 l 863 354 q 737 185 801 269 q 619 50 672 101 q 684 24 651 36 q 750 1 717 11 m 207 49 q 233 -1 207 22 q 317 -24 258 -24 q 424 -7 367 -24 q 525 38 481 10 q 458 68 492 53 q 390 99 425 83 q 354 115 369 108 q 328 122 339 121 q 314 125 321 125 q 300 125 307 125 q 232 101 257 125 q 207 49 207 76 z "},"Ẽ":{"ha":1117,"x_min":110,"x_max":1143,"o":"m 451 -153 q 259 -121 335 -153 q 147 -37 183 -89 q 110 75 110 15 q 151 208 110 142 q 274 326 193 275 q 469 394 354 376 q 419 440 435 414 q 404 494 404 467 q 415 547 404 519 q 316 591 361 565 q 239 650 271 617 q 199 710 213 678 q 185 769 185 742 q 207 828 185 804 q 278 851 229 851 q 372 832 314 851 q 388 822 383 829 q 392 807 392 814 q 384 790 392 797 q 363 786 376 782 q 296 799 324 799 q 238 756 238 799 q 286 675 238 722 q 438 592 335 628 q 471 636 451 615 q 510 674 490 657 q 687 769 581 729 q 918 808 793 808 q 946 808 932 808 q 974 806 960 807 q 1102 765 1061 797 q 1143 692 1143 732 q 1097 599 1143 646 q 968 526 1051 553 q 863 505 922 513 q 739 497 804 497 q 599 506 671 497 q 461 533 528 514 q 457 507 457 519 q 508 435 457 464 q 674 406 560 406 q 700 385 700 406 q 691 366 700 375 q 667 354 682 357 q 634 356 650 356 q 603 357 618 357 q 365 315 463 357 q 216 208 267 272 q 165 79 165 144 q 235 -50 165 6 q 453 -106 306 -106 q 681 -83 583 -106 q 847 -24 778 -60 q 961 49 917 13 q 989 78 968 56 q 1028 127 1010 100 q 1046 172 1046 154 q 1042 185 1046 181 q 1029 210 1029 197 q 1051 229 1029 229 q 1079 215 1065 229 q 1093 172 1093 201 q 1077 113 1093 143 q 1038 56 1061 82 q 996 14 1015 31 q 870 -67 946 -29 q 691 -128 794 -104 q 451 -153 588 -153 m 488 575 q 610 551 546 558 q 735 543 674 543 q 944 571 857 543 q 1053 625 1019 594 q 1088 683 1088 656 q 1056 732 1088 711 q 968 757 1025 753 q 942 759 954 758 q 915 760 929 760 q 731 733 818 760 q 580 663 644 706 q 483 576 515 621 l 488 575 m 832 869 q 814 890 814 869 q 818 904 814 899 q 860 951 838 932 q 911 969 882 969 q 947 958 931 969 q 976 939 964 947 q 1001 926 988 932 q 1021 919 1014 919 q 1045 927 1031 919 q 1065 950 1060 935 q 1072 956 1068 953 q 1081 958 1075 958 q 1097 948 1092 958 q 1097 926 1103 938 q 1019 871 1071 871 q 979 885 997 871 q 950 904 961 899 q 904 922 918 922 q 876 911 893 922 q 844 876 860 900 q 832 869 840 869 z "},"F":{"ha":1283,"x_min":121,"x_max":1718,"o":"m 481 -175 q 274 -133 353 -175 q 158 -24 194 -90 q 121 115 121 43 q 150 247 121 183 q 233 353 179 310 q 358 403 286 396 l 361 403 q 380 395 374 403 q 386 376 386 388 q 381 361 386 368 q 364 353 375 354 q 264 313 307 349 q 197 225 221 278 q 172 114 172 172 q 203 -1 172 54 q 301 -90 233 -56 q 481 -125 369 -125 q 701 -76 606 -125 q 872 53 797 -28 q 1008 231 947 133 q 924 241 967 236 q 842 246 881 246 q 729 226 778 246 q 661 151 681 207 q 636 133 656 133 q 617 143 625 133 q 613 167 608 153 q 700 267 640 242 q 832 293 760 293 q 936 285 883 293 q 1033 271 989 278 q 1142 462 1092 365 q 1246 642 1193 558 q 1209 657 1226 650 q 1178 668 1192 664 q 1006 726 1093 701 q 826 751 918 751 q 803 751 815 751 q 778 749 790 750 q 617 694 683 740 q 515 587 550 649 q 481 468 481 525 q 514 376 481 414 q 615 339 547 339 q 727 374 676 339 q 812 459 778 408 q 857 560 846 510 q 881 579 861 579 q 900 572 892 579 q 906 549 908 564 q 873 463 897 507 q 812 378 849 418 q 727 315 775 339 q 624 289 679 290 q 480 339 526 286 q 433 467 433 392 q 456 574 433 519 q 520 678 478 629 q 626 759 563 726 q 774 799 690 792 q 804 801 789 800 q 833 801 819 801 q 1066 763 958 801 q 1276 685 1174 725 q 1339 744 1304 721 q 1408 767 1374 767 q 1456 753 1433 767 q 1467 732 1467 746 q 1460 714 1467 722 q 1443 706 1454 706 q 1429 710 1436 706 q 1408 715 1422 715 q 1370 703 1392 715 q 1325 665 1349 692 q 1440 627 1382 643 q 1558 607 1499 611 q 1596 611 1571 607 q 1643 626 1621 615 q 1668 656 1665 638 q 1665 667 1665 664 q 1688 686 1665 686 q 1708 678 1699 686 q 1718 654 1718 669 q 1710 625 1718 642 q 1653 574 1690 589 q 1569 558 1617 558 q 1432 579 1506 558 q 1294 624 1358 600 q 1201 463 1246 549 q 1106 288 1157 378 q 1090 263 1099 275 q 1144 258 1118 260 q 1192 256 1171 256 q 1213 256 1203 256 q 1231 258 1224 257 l 1236 258 q 1258 242 1258 258 q 1236 219 1258 225 q 1176 213 1208 213 q 1124 215 1151 213 q 1065 222 1096 218 q 914 25 999 115 q 722 -120 829 -65 q 481 -175 615 -175 z "},"G":{"ha":971,"x_min":22,"x_max":1083,"o":"m 175 -414 q 65 -381 107 -414 q 22 -301 22 -349 q 57 -215 22 -251 q 149 -154 92 -179 q 275 -113 207 -129 q 410 -89 343 -97 q 533 -77 478 -81 q 619 -74 589 -74 q 658 -74 636 -74 q 703 -75 679 -74 q 773 53 740 -17 q 825 194 806 122 q 739 106 786 150 q 654 42 692 61 q 528 -6 600 15 q 388 -28 457 -28 q 246 13 308 -28 q 164 154 183 54 q 161 174 163 163 q 160 194 160 185 q 194 339 160 267 q 269 467 228 411 q 154 533 200 494 q 113 591 129 560 q 97 649 97 622 q 126 719 97 690 q 213 749 156 749 q 257 745 232 749 q 297 735 282 742 q 311 714 311 729 q 305 696 311 704 q 288 688 299 688 q 276 690 285 688 q 243 699 260 697 q 215 701 226 701 q 163 687 181 701 q 146 649 146 672 q 184 576 146 617 q 301 506 222 535 q 455 635 367 575 q 649 731 543 694 q 872 768 756 768 q 1033 730 982 768 q 1083 639 1083 692 q 1034 531 1083 586 q 903 449 985 476 q 769 419 847 431 q 607 408 692 408 q 460 419 535 408 q 321 449 386 429 q 289 407 303 428 q 231 277 254 347 q 214 161 208 207 q 278 51 229 83 q 390 18 328 18 q 517 40 451 18 q 631 85 583 63 q 690 128 657 99 q 756 192 724 157 q 815 263 789 228 q 851 322 840 297 q 872 338 858 338 q 890 330 882 338 q 899 308 899 322 q 850 115 886 219 q 760 -81 814 10 q 869 -106 817 -89 q 936 -156 921 -124 q 939 -168 939 -160 q 932 -187 939 -179 q 917 -196 925 -196 q 903 -185 907 -196 q 838 -149 890 -164 q 728 -126 785 -135 q 694 -170 711 -149 q 657 -210 676 -192 q 502 -322 585 -276 q 335 -390 419 -367 q 175 -414 251 -414 m 614 457 q 762 466 692 457 q 885 493 832 475 q 998 555 963 519 q 1033 624 1033 590 q 992 691 1033 663 q 872 719 950 719 q 590 656 728 719 q 354 488 453 593 q 480 464 413 471 q 614 457 547 457 m 175 -364 q 354 -331 261 -364 q 531 -244 447 -299 q 671 -124 614 -189 q 642 -121 656 -121 q 619 -121 629 -121 q 397 -136 510 -121 q 182 -194 285 -151 q 96 -248 121 -218 q 71 -301 71 -278 q 94 -342 71 -321 q 175 -364 118 -364 z "},"Ğ":{"ha":971,"x_min":22,"x_max":1083,"o":"m 175 -414 q 65 -381 107 -414 q 22 -301 22 -349 q 57 -215 22 -251 q 149 -154 92 -179 q 275 -113 207 -129 q 410 -89 343 -97 q 533 -77 478 -81 q 619 -74 589 -74 q 658 -74 636 -74 q 703 -75 679 -74 q 773 53 740 -17 q 825 194 806 122 q 739 106 786 150 q 654 42 692 61 q 528 -6 600 15 q 388 -28 457 -28 q 246 13 308 -28 q 164 154 183 54 q 161 174 163 163 q 160 194 160 185 q 194 339 160 267 q 269 467 228 411 q 154 533 200 494 q 113 591 129 560 q 97 649 97 622 q 126 719 97 690 q 213 749 156 749 q 257 745 232 749 q 297 735 282 742 q 311 714 311 729 q 305 696 311 704 q 288 688 299 688 q 276 690 285 688 q 243 699 260 697 q 215 701 226 701 q 163 687 181 701 q 146 649 146 672 q 184 576 146 617 q 301 506 222 535 q 455 635 367 575 q 649 731 543 694 q 872 768 756 768 q 1033 730 982 768 q 1083 639 1083 692 q 1034 531 1083 586 q 903 449 985 476 q 769 419 847 431 q 607 408 692 408 q 460 419 535 408 q 321 449 386 429 q 289 407 303 428 q 231 277 254 347 q 214 161 208 207 q 278 51 229 83 q 390 18 328 18 q 517 40 451 18 q 631 85 583 63 q 690 128 657 99 q 756 192 724 157 q 815 263 789 228 q 851 322 840 297 q 872 338 858 338 q 890 330 882 338 q 899 308 899 322 q 850 115 886 219 q 760 -81 814 10 q 869 -106 817 -89 q 936 -156 921 -124 q 939 -168 939 -160 q 932 -187 939 -179 q 917 -196 925 -196 q 903 -185 907 -196 q 838 -149 890 -164 q 728 -126 785 -135 q 694 -170 711 -149 q 657 -210 676 -192 q 502 -322 585 -276 q 335 -390 419 -367 q 175 -414 251 -414 m 614 457 q 762 466 692 457 q 885 493 832 475 q 998 555 963 519 q 1033 624 1033 590 q 992 691 1033 663 q 872 719 950 719 q 590 656 728 719 q 354 488 453 593 q 480 464 413 471 q 614 457 547 457 m 175 -364 q 354 -331 261 -364 q 531 -244 447 -299 q 671 -124 614 -189 q 642 -121 656 -121 q 619 -121 629 -121 q 397 -136 510 -121 q 182 -194 285 -151 q 96 -248 121 -218 q 71 -301 71 -278 q 94 -342 71 -321 q 175 -364 118 -364 m 889 836 q 794 862 825 836 q 763 918 763 888 q 772 944 763 933 q 792 956 782 956 q 801 946 801 956 q 822 898 801 914 q 892 882 842 882 q 963 899 929 882 q 1010 944 996 915 q 1020 957 1014 954 q 1032 960 1026 960 q 1043 956 1035 960 q 1047 939 1051 951 q 993 868 1036 900 q 889 836 950 836 z "},"Ǧ":{"ha":971,"x_min":22,"x_max":1083,"o":"m 1054 967 q 1065 958 1061 967 q 1068 943 1068 950 q 1060 925 1068 929 l 900 840 q 886 836 894 836 q 874 840 878 836 l 783 926 q 779 936 779 931 q 790 957 779 946 q 813 958 801 968 l 893 890 l 1040 961 q 1054 967 1050 967 m 175 -414 q 65 -381 107 -414 q 22 -301 22 -349 q 57 -215 22 -251 q 149 -154 92 -179 q 275 -113 207 -129 q 410 -89 343 -97 q 533 -77 478 -81 q 619 -74 589 -74 q 658 -74 636 -74 q 703 -75 679 -74 q 773 53 740 -17 q 825 194 806 122 q 739 106 786 150 q 654 42 692 61 q 528 -6 600 15 q 388 -28 457 -28 q 246 13 308 -28 q 164 154 183 54 q 161 174 163 163 q 160 194 160 185 q 194 339 160 267 q 269 467 228 411 q 154 533 200 494 q 113 591 129 560 q 97 649 97 622 q 126 719 97 690 q 213 749 156 749 q 257 745 232 749 q 297 735 282 742 q 311 714 311 729 q 305 696 311 704 q 288 688 299 688 q 276 690 285 688 q 243 699 260 697 q 215 701 226 701 q 163 687 181 701 q 146 649 146 672 q 184 576 146 617 q 301 506 222 535 q 455 635 367 575 q 649 731 543 694 q 872 768 756 768 q 1033 730 982 768 q 1083 639 1083 692 q 1034 531 1083 586 q 903 449 985 476 q 769 419 847 431 q 607 408 692 408 q 460 419 535 408 q 321 449 386 429 q 289 407 303 428 q 231 277 254 347 q 214 161 208 207 q 278 51 229 83 q 390 18 328 18 q 517 40 451 18 q 631 85 583 63 q 690 128 657 99 q 756 192 724 157 q 815 263 789 228 q 851 322 840 297 q 872 338 858 338 q 890 330 882 338 q 899 308 899 322 q 850 115 886 219 q 760 -81 814 10 q 869 -106 817 -89 q 936 -156 921 -124 q 939 -168 939 -160 q 932 -187 939 -179 q 917 -196 925 -196 q 903 -185 907 -196 q 838 -149 890 -164 q 728 -126 785 -135 q 694 -170 711 -149 q 657 -210 676 -192 q 502 -322 585 -276 q 335 -390 419 -367 q 175 -414 251 -414 m 614 457 q 762 466 692 457 q 885 493 832 475 q 998 555 963 519 q 1033 624 1033 590 q 992 691 1033 663 q 872 719 950 719 q 590 656 728 719 q 354 488 453 593 q 480 464 413 471 q 614 457 547 457 m 175 -364 q 354 -331 261 -364 q 531 -244 447 -299 q 671 -124 614 -189 q 642 -121 656 -121 q 619 -121 629 -121 q 397 -136 510 -121 q 182 -194 285 -151 q 96 -248 121 -218 q 71 -301 71 -278 q 94 -342 71 -321 q 175 -364 118 -364 z "},"Ĝ":{"ha":971,"x_min":22,"x_max":1083,"o":"m 175 -414 q 65 -381 107 -414 q 22 -301 22 -349 q 57 -215 22 -251 q 149 -154 92 -179 q 275 -113 207 -129 q 410 -89 343 -97 q 533 -77 478 -81 q 619 -74 589 -74 q 658 -74 636 -74 q 703 -75 679 -74 q 773 53 740 -17 q 825 194 806 122 q 739 106 786 150 q 654 42 692 61 q 528 -6 600 15 q 388 -28 457 -28 q 246 13 308 -28 q 164 154 183 54 q 161 174 163 163 q 160 194 160 185 q 194 339 160 267 q 269 467 228 411 q 154 533 200 494 q 113 591 129 560 q 97 649 97 622 q 126 719 97 690 q 213 749 156 749 q 257 745 232 749 q 297 735 282 742 q 311 714 311 729 q 305 696 311 704 q 288 688 299 688 q 276 690 285 688 q 243 699 260 697 q 215 701 226 701 q 163 687 181 701 q 146 649 146 672 q 184 576 146 617 q 301 506 222 535 q 455 635 367 575 q 649 731 543 694 q 872 768 756 768 q 1033 730 982 768 q 1083 639 1083 692 q 1034 531 1083 586 q 903 449 985 476 q 769 419 847 431 q 607 408 692 408 q 460 419 535 408 q 321 449 386 429 q 289 407 303 428 q 231 277 254 347 q 214 161 208 207 q 278 51 229 83 q 390 18 328 18 q 517 40 451 18 q 631 85 583 63 q 690 128 657 99 q 756 192 724 157 q 815 263 789 228 q 851 322 840 297 q 872 338 858 338 q 890 330 882 338 q 899 308 899 322 q 850 115 886 219 q 760 -81 814 10 q 869 -106 817 -89 q 936 -156 921 -124 q 939 -168 939 -160 q 932 -187 939 -179 q 917 -196 925 -196 q 903 -185 907 -196 q 838 -149 890 -164 q 728 -126 785 -135 q 694 -170 711 -149 q 657 -210 676 -192 q 502 -322 585 -276 q 335 -390 419 -367 q 175 -414 251 -414 m 614 457 q 762 466 692 457 q 885 493 832 475 q 998 555 963 519 q 1033 624 1033 590 q 992 691 1033 663 q 872 719 950 719 q 590 656 728 719 q 354 488 453 593 q 480 464 413 471 q 614 457 547 457 m 175 -364 q 354 -331 261 -364 q 531 -244 447 -299 q 671 -124 614 -189 q 642 -121 656 -121 q 619 -121 629 -121 q 397 -136 510 -121 q 182 -194 285 -151 q 96 -248 121 -218 q 71 -301 71 -278 q 94 -342 71 -321 q 175 -364 118 -364 m 757 828 q 747 837 751 828 q 743 851 743 846 q 751 869 743 865 l 911 954 q 925 958 918 958 q 938 954 933 958 l 1028 868 q 1032 858 1032 864 q 1021 838 1032 849 q 999 836 1010 826 l 918 904 l 771 833 q 757 828 761 828 z "},"Ģ":{"ha":971,"x_min":22,"x_max":1083,"o":"m 175 -414 q 65 -381 107 -414 q 22 -301 22 -349 q 57 -215 22 -251 q 149 -154 92 -179 q 275 -113 207 -129 q 410 -89 343 -97 q 533 -77 478 -81 q 619 -74 589 -74 q 658 -74 636 -74 q 703 -75 679 -74 q 773 53 740 -17 q 825 194 806 122 q 739 106 786 150 q 654 42 692 61 q 528 -6 600 15 q 388 -28 457 -28 q 246 13 308 -28 q 164 154 183 54 q 161 174 163 163 q 160 194 160 185 q 194 339 160 267 q 269 467 228 411 q 154 533 200 494 q 113 591 129 560 q 97 649 97 622 q 126 719 97 690 q 213 749 156 749 q 257 745 232 749 q 297 735 282 742 q 311 714 311 729 q 305 696 311 704 q 288 688 299 688 q 276 690 285 688 q 243 699 260 697 q 215 701 226 701 q 163 687 181 701 q 146 649 146 672 q 184 576 146 617 q 301 506 222 535 q 455 635 367 575 q 649 731 543 694 q 872 768 756 768 q 1033 730 982 768 q 1083 639 1083 692 q 1034 531 1083 586 q 903 449 985 476 q 769 419 847 431 q 607 408 692 408 q 460 419 535 408 q 321 449 386 429 q 289 407 303 428 q 231 277 254 347 q 214 161 208 207 q 278 51 229 83 q 390 18 328 18 q 517 40 451 18 q 631 85 583 63 q 690 128 657 99 q 756 192 724 157 q 815 263 789 228 q 851 322 840 297 q 872 338 858 338 q 890 330 882 338 q 899 308 899 322 q 850 115 886 219 q 760 -81 814 10 q 869 -106 817 -89 q 936 -156 921 -124 q 939 -168 939 -160 q 932 -187 939 -179 q 917 -196 925 -196 q 903 -185 907 -196 q 838 -149 890 -164 q 728 -126 785 -135 q 694 -170 711 -149 q 657 -210 676 -192 q 502 -322 585 -276 q 335 -390 419 -367 q 175 -414 251 -414 m 614 457 q 762 466 692 457 q 885 493 832 475 q 998 555 963 519 q 1033 624 1033 590 q 992 691 1033 663 q 872 719 950 719 q 590 656 728 719 q 354 488 453 593 q 480 464 413 471 q 614 457 547 457 m 175 -364 q 354 -331 261 -364 q 531 -244 447 -299 q 671 -124 614 -189 q 642 -121 656 -121 q 619 -121 629 -121 q 397 -136 510 -121 q 182 -194 285 -151 q 96 -248 121 -218 q 71 -301 71 -278 q 94 -342 71 -321 q 175 -364 118 -364 m 153 -704 q 132 -697 142 -704 q 128 -686 128 -693 q 139 -667 128 -674 q 225 -583 204 -610 q 251 -540 246 -556 q 226 -511 226 -529 q 236 -492 226 -500 q 264 -485 246 -485 q 296 -497 283 -485 q 308 -526 308 -508 q 284 -583 308 -547 q 217 -660 260 -619 q 194 -679 207 -669 q 168 -700 182 -689 q 153 -704 160 -704 z "},"Ġ":{"ha":971,"x_min":22,"x_max":1083,"o":"m 175 -414 q 65 -381 107 -414 q 22 -301 22 -349 q 57 -215 22 -251 q 149 -154 92 -179 q 275 -113 207 -129 q 410 -89 343 -97 q 533 -77 478 -81 q 619 -74 589 -74 q 658 -74 636 -74 q 703 -75 679 -74 q 773 53 740 -17 q 825 194 806 122 q 739 106 786 150 q 654 42 692 61 q 528 -6 600 15 q 388 -28 457 -28 q 246 13 308 -28 q 164 154 183 54 q 161 174 163 163 q 160 194 160 185 q 194 339 160 267 q 269 467 228 411 q 154 533 200 494 q 113 591 129 560 q 97 649 97 622 q 126 719 97 690 q 213 749 156 749 q 257 745 232 749 q 297 735 282 742 q 311 714 311 729 q 305 696 311 704 q 288 688 299 688 q 276 690 285 688 q 243 699 260 697 q 215 701 226 701 q 163 687 181 701 q 146 649 146 672 q 184 576 146 617 q 301 506 222 535 q 455 635 367 575 q 649 731 543 694 q 872 768 756 768 q 1033 730 982 768 q 1083 639 1083 692 q 1034 531 1083 586 q 903 449 985 476 q 769 419 847 431 q 607 408 692 408 q 460 419 535 408 q 321 449 386 429 q 289 407 303 428 q 231 277 254 347 q 214 161 208 207 q 278 51 229 83 q 390 18 328 18 q 517 40 451 18 q 631 85 583 63 q 690 128 657 99 q 756 192 724 157 q 815 263 789 228 q 851 322 840 297 q 872 338 858 338 q 890 330 882 338 q 899 308 899 322 q 850 115 886 219 q 760 -81 814 10 q 869 -106 817 -89 q 936 -156 921 -124 q 939 -168 939 -160 q 932 -187 939 -179 q 917 -196 925 -196 q 903 -185 907 -196 q 838 -149 890 -164 q 728 -126 785 -135 q 694 -170 711 -149 q 657 -210 676 -192 q 502 -322 585 -276 q 335 -390 419 -367 q 175 -414 251 -414 m 614 457 q 762 466 692 457 q 885 493 832 475 q 998 555 963 519 q 1033 624 1033 590 q 992 691 1033 663 q 872 719 950 719 q 590 656 728 719 q 354 488 453 593 q 480 464 413 471 q 614 457 547 457 m 175 -364 q 354 -331 261 -364 q 531 -244 447 -299 q 671 -124 614 -189 q 642 -121 656 -121 q 619 -121 629 -121 q 397 -136 510 -121 q 182 -194 285 -151 q 96 -248 121 -218 q 71 -301 71 -278 q 94 -342 71 -321 q 175 -364 118 -364 m 890 838 q 863 849 874 838 q 851 876 851 861 q 863 903 851 893 q 890 914 874 914 q 917 903 907 914 q 928 876 928 893 q 917 849 928 861 q 890 838 907 838 z "},"ẞ":{"ha":690,"x_min":-168,"x_max":949,"o":"m -97 -119 q -127 -117 -112 -119 q -156 -107 -142 -114 q -168 -87 -168 -100 q -160 -68 -168 -76 q -135 -60 -151 -60 q -118 -62 -129 -60 q -101 -65 -110 -65 q -51 -56 -81 -65 q -1 -36 -21 -47 q 82 35 42 -11 q 158 138 122 82 q 226 248 194 193 q 281 344 257 303 q 358 483 319 410 q 441 624 397 556 q 537 749 485 693 q 653 837 589 804 q 799 869 718 869 q 872 853 838 869 q 927 807 906 836 q 949 738 949 778 q 916 642 949 694 q 806 535 883 590 q 717 485 763 504 q 600 438 671 465 q 642 328 626 378 q 659 246 653 285 q 665 174 665 207 q 644 69 665 117 q 572 -24 624 21 q 472 -75 529 -58 q 361 -92 414 -92 q 279 -79 313 -92 q 233 -39 246 -68 q 219 18 219 -10 q 228 60 219 46 q 261 90 246 90 q 283 56 283 90 q 279 32 283 44 q 275 11 275 19 q 301 -30 275 -17 q 364 -43 326 -43 q 455 -27 407 -43 q 536 19 503 -11 q 587 94 572 54 q 601 176 601 133 q 591 265 601 221 q 568 353 581 310 q 548 406 560 382 q 536 446 536 429 q 551 472 536 463 q 613 492 578 478 q 683 522 649 506 q 739 551 718 539 q 844 647 810 596 q 879 738 879 697 q 853 796 879 774 q 778 818 828 818 q 653 779 711 818 q 544 677 594 740 q 451 540 494 614 q 369 392 407 465 q 299 264 331 319 q 227 136 264 204 q 144 10 190 68 q 36 -82 99 -49 q -26 -108 10 -96 q -97 -119 -61 -119 z "},"H":{"ha":1550,"x_min":86,"x_max":1764,"o":"m 444 -221 q 238 -178 317 -221 q 122 -69 158 -136 q 86 69 86 -3 q 115 201 86 138 q 198 307 144 264 q 322 357 251 350 l 325 357 q 344 349 338 357 q 350 331 350 342 q 344 315 350 322 q 328 307 339 308 q 228 266 271 301 q 160 178 185 231 q 136 68 136 125 q 167 -47 136 8 q 265 -136 197 -101 q 444 -171 333 -171 q 685 -112 579 -171 q 871 46 792 -54 q 1000 272 950 146 q 1003 279 1001 276 q 908 256 949 276 q 850 185 868 235 q 841 172 847 175 q 828 168 835 168 q 808 178 817 168 q 803 201 799 188 q 889 302 829 276 q 1021 328 949 328 l 1022 328 q 1070 444 1044 382 q 1124 565 1096 507 q 1176 663 1151 622 q 996 657 1086 657 q 815 636 906 657 q 623 567 701 611 q 499 474 544 524 q 439 378 454 424 q 428 315 428 340 q 458 244 428 268 q 533 221 488 221 q 635 247 585 221 q 726 317 686 274 q 779 407 765 360 q 783 435 783 424 q 775 465 783 460 q 765 482 765 474 q 790 504 765 504 q 810 496 800 504 q 835 438 835 475 q 810 353 835 397 q 767 285 786 308 q 660 204 724 238 q 533 171 597 171 q 417 213 457 171 q 378 315 378 254 q 423 452 378 379 q 563 588 468 525 q 804 685 657 651 q 1013 707 908 708 q 1221 715 1117 706 q 1266 748 1243 736 q 1313 760 1289 760 q 1344 750 1332 760 q 1356 726 1356 740 q 1333 693 1356 710 q 1258 669 1311 676 q 1246 668 1251 668 q 1182 567 1214 629 q 1122 440 1150 506 q 1074 325 1093 375 q 1176 313 1126 321 q 1265 299 1225 304 q 1321 292 1293 294 q 1372 289 1349 290 q 1435 455 1397 369 q 1525 621 1474 540 q 1593 715 1556 671 q 1669 788 1631 760 q 1740 815 1707 815 q 1758 808 1751 815 q 1764 792 1764 800 q 1758 776 1764 783 q 1742 769 1753 769 q 1666 722 1715 768 q 1565 596 1617 675 q 1488 450 1524 529 q 1426 292 1451 371 l 1428 292 q 1447 276 1447 292 q 1426 254 1447 261 q 1414 251 1419 253 q 1387 141 1396 193 q 1378 47 1378 89 q 1394 -35 1378 -4 q 1444 -67 1410 -67 q 1510 -44 1476 -67 q 1561 0 1543 -22 q 1579 10 1569 10 q 1592 4 1586 10 q 1599 -10 1599 -1 q 1593 -25 1599 -18 q 1524 -89 1567 -64 q 1439 -114 1481 -114 q 1369 -90 1400 -114 q 1329 -10 1339 -65 q 1327 13 1328 1 q 1326 36 1326 24 q 1360 247 1326 125 q 1214 263 1296 247 q 1056 281 1132 278 q 1046 254 1049 260 q 909 16 993 124 q 709 -156 825 -92 q 444 -221 593 -221 z "},"Ħ":{"ha":1550,"x_min":86,"x_max":1764,"o":"m 444 -221 q 238 -178 317 -221 q 122 -69 158 -136 q 86 69 86 -3 q 115 201 86 138 q 198 307 144 264 q 322 357 251 350 l 325 357 q 344 349 338 357 q 350 331 350 342 q 344 315 350 322 q 328 307 339 308 q 228 266 271 301 q 160 178 185 231 q 136 68 136 125 q 167 -47 136 8 q 265 -136 197 -101 q 444 -171 333 -171 q 685 -112 579 -171 q 871 46 792 -54 q 1000 272 950 146 q 1003 279 1001 276 q 908 256 949 276 q 850 185 868 235 q 841 172 847 175 q 828 168 835 168 q 808 178 817 168 q 803 201 799 188 q 889 302 829 276 q 1021 328 949 328 l 1022 328 q 1070 444 1044 382 q 1124 565 1096 507 q 1176 663 1151 622 q 996 657 1086 657 q 815 636 906 657 q 623 567 701 611 q 499 474 544 524 q 439 378 454 424 q 428 315 428 340 q 458 244 428 268 q 533 221 488 221 q 635 247 585 221 q 726 317 686 274 q 779 407 765 360 q 783 435 783 424 q 775 465 783 460 q 765 482 765 474 q 790 504 765 504 q 810 496 800 504 q 835 438 835 475 q 810 353 835 397 q 767 285 786 308 q 660 204 724 238 q 533 171 597 171 q 417 213 457 171 q 378 315 378 254 q 423 452 378 379 q 563 588 468 525 q 804 685 657 651 q 1013 707 908 708 q 1221 715 1117 706 q 1266 748 1243 736 q 1313 760 1289 760 q 1344 750 1332 760 q 1356 726 1356 740 q 1333 693 1356 710 q 1258 669 1311 676 q 1246 668 1251 668 q 1182 567 1214 629 q 1122 440 1150 506 q 1074 325 1093 375 q 1176 313 1126 321 q 1265 299 1225 304 q 1321 292 1293 294 q 1372 289 1349 290 q 1435 455 1397 369 q 1525 621 1474 540 q 1593 715 1556 671 q 1669 788 1631 760 q 1740 815 1707 815 q 1758 808 1751 815 q 1764 792 1764 800 q 1758 776 1764 783 q 1742 769 1753 769 q 1666 722 1715 768 q 1565 596 1617 675 q 1488 450 1524 529 q 1426 292 1451 371 l 1428 292 q 1447 276 1447 292 q 1426 254 1447 261 q 1414 251 1419 253 q 1387 141 1396 193 q 1378 47 1378 89 q 1394 -35 1378 -4 q 1444 -67 1410 -67 q 1510 -44 1476 -67 q 1561 0 1543 -22 q 1579 10 1569 10 q 1592 4 1586 10 q 1599 -10 1599 -1 q 1593 -25 1599 -18 q 1524 -89 1567 -64 q 1439 -114 1481 -114 q 1369 -90 1400 -114 q 1329 -10 1339 -65 q 1327 13 1328 1 q 1326 36 1326 24 q 1360 247 1326 125 q 1214 263 1296 247 q 1056 281 1132 278 q 1046 254 1049 260 q 909 16 993 124 q 709 -156 825 -92 q 444 -221 593 -221 m 979 450 q 956 457 964 450 q 949 474 949 464 q 956 489 949 482 q 979 496 964 496 l 1554 496 q 1578 489 1571 496 q 1586 474 1586 482 q 1578 457 1586 464 q 1554 450 1571 450 l 979 450 z "},"Ĥ":{"ha":1550,"x_min":86,"x_max":1764,"o":"m 444 -221 q 238 -178 317 -221 q 122 -69 158 -136 q 86 69 86 -3 q 115 201 86 138 q 198 307 144 264 q 322 357 251 350 l 325 357 q 344 349 338 357 q 350 331 350 342 q 344 315 350 322 q 328 307 339 308 q 228 266 271 301 q 160 178 185 231 q 136 68 136 125 q 167 -47 136 8 q 265 -136 197 -101 q 444 -171 333 -171 q 685 -112 579 -171 q 871 46 792 -54 q 1000 272 950 146 q 1003 279 1001 276 q 908 256 949 276 q 850 185 868 235 q 841 172 847 175 q 828 168 835 168 q 808 178 817 168 q 803 201 799 188 q 889 302 829 276 q 1021 328 949 328 l 1022 328 q 1070 444 1044 382 q 1124 565 1096 507 q 1176 663 1151 622 q 996 657 1086 657 q 815 636 906 657 q 623 567 701 611 q 499 474 544 524 q 439 378 454 424 q 428 315 428 340 q 458 244 428 268 q 533 221 488 221 q 635 247 585 221 q 726 317 686 274 q 779 407 765 360 q 783 435 783 424 q 775 465 783 460 q 765 482 765 474 q 790 504 765 504 q 810 496 800 504 q 835 438 835 475 q 810 353 835 397 q 767 285 786 308 q 660 204 724 238 q 533 171 597 171 q 417 213 457 171 q 378 315 378 254 q 423 452 378 379 q 563 588 468 525 q 804 685 657 651 q 1013 707 908 708 q 1221 715 1117 706 q 1266 748 1243 736 q 1313 760 1289 760 q 1344 750 1332 760 q 1356 726 1356 740 q 1333 693 1356 710 q 1258 669 1311 676 q 1246 668 1251 668 q 1182 567 1214 629 q 1122 440 1150 506 q 1074 325 1093 375 q 1176 313 1126 321 q 1265 299 1225 304 q 1321 292 1293 294 q 1372 289 1349 290 q 1435 455 1397 369 q 1525 621 1474 540 q 1593 715 1556 671 q 1669 788 1631 760 q 1740 815 1707 815 q 1758 808 1751 815 q 1764 792 1764 800 q 1758 776 1764 783 q 1742 769 1753 769 q 1666 722 1715 768 q 1565 596 1617 675 q 1488 450 1524 529 q 1426 292 1451 371 l 1428 292 q 1447 276 1447 292 q 1426 254 1447 261 q 1414 251 1419 253 q 1387 141 1396 193 q 1378 47 1378 89 q 1394 -35 1378 -4 q 1444 -67 1410 -67 q 1510 -44 1476 -67 q 1561 0 1543 -22 q 1579 10 1569 10 q 1592 4 1586 10 q 1599 -10 1599 -1 q 1593 -25 1599 -18 q 1524 -89 1567 -64 q 1439 -114 1481 -114 q 1369 -90 1400 -114 q 1329 -10 1339 -65 q 1327 13 1328 1 q 1326 36 1326 24 q 1360 247 1326 125 q 1214 263 1296 247 q 1056 281 1132 278 q 1046 254 1049 260 q 909 16 993 124 q 709 -156 825 -92 q 444 -221 593 -221 m 1392 838 q 1382 847 1386 838 q 1378 861 1378 856 q 1386 879 1378 875 l 1546 964 q 1560 968 1553 968 q 1572 964 1568 968 l 1663 878 q 1667 868 1667 874 q 1656 847 1667 858 q 1633 846 1644 836 l 1553 914 l 1406 843 q 1392 838 1396 838 z "},"I":{"ha":1118,"x_min":142,"x_max":1325,"o":"m 458 -187 q 281 -144 351 -187 q 176 -33 211 -100 q 142 103 142 33 q 170 226 142 168 q 250 318 199 283 q 291 338 269 331 q 333 346 313 346 q 383 333 360 346 q 421 290 407 319 q 424 275 424 285 q 418 258 424 265 q 406 251 413 251 q 390 264 397 251 q 335 297 374 297 q 269 274 301 297 q 215 205 239 249 q 192 104 192 161 q 217 -10 192 46 q 302 -101 243 -65 q 458 -137 361 -137 q 635 -92 556 -137 q 777 30 714 -46 q 892 199 840 106 q 988 390 944 293 q 1069 574 1031 488 q 1144 722 1107 658 q 1002 702 1074 714 q 864 663 931 690 q 713 574 772 624 q 624 475 654 525 q 589 383 594 425 q 588 369 588 376 q 588 356 588 363 q 610 283 588 306 q 667 261 633 261 q 732 278 697 261 q 796 324 767 294 q 842 382 815 343 q 868 464 868 421 q 856 511 868 489 q 850 531 850 521 q 857 546 850 540 q 872 551 864 551 q 892 542 883 551 q 910 511 900 529 q 915 454 919 493 q 868 326 908 381 q 772 242 828 272 q 663 213 715 213 q 574 246 611 213 q 536 353 536 279 q 537 370 536 361 q 539 389 538 379 q 625 558 550 469 q 844 708 700 646 q 1015 756 928 743 q 1190 779 1103 768 q 1236 812 1213 800 q 1283 824 1260 824 q 1314 814 1303 824 q 1325 790 1325 804 q 1303 756 1325 774 q 1229 732 1282 739 q 1214 731 1222 731 q 1160 647 1188 697 q 1108 543 1133 597 q 1022 349 1067 450 q 922 152 976 247 q 801 -20 868 57 q 650 -142 735 -97 q 458 -187 565 -187 z "},"Í":{"ha":1118,"x_min":142,"x_max":1429,"o":"m 458 -187 q 281 -144 351 -187 q 176 -33 211 -100 q 142 103 142 33 q 170 226 142 168 q 250 318 199 283 q 291 338 269 331 q 333 346 313 346 q 383 333 360 346 q 421 290 407 319 q 424 275 424 285 q 418 258 424 265 q 406 251 413 251 q 390 264 397 251 q 335 297 374 297 q 269 274 301 297 q 215 205 239 249 q 192 104 192 161 q 217 -10 192 46 q 302 -101 243 -65 q 458 -137 361 -137 q 635 -92 556 -137 q 777 30 714 -46 q 892 199 840 106 q 988 390 944 293 q 1069 574 1031 488 q 1144 722 1107 658 q 1002 702 1074 714 q 864 663 931 690 q 713 574 772 624 q 624 475 654 525 q 589 383 594 425 q 588 369 588 376 q 588 356 588 363 q 610 283 588 306 q 667 261 633 261 q 732 278 697 261 q 796 324 767 294 q 842 382 815 343 q 868 464 868 421 q 856 511 868 489 q 850 531 850 521 q 857 546 850 540 q 872 551 864 551 q 892 542 883 551 q 910 511 900 529 q 915 454 919 493 q 868 326 908 381 q 772 242 828 272 q 663 213 715 213 q 574 246 611 213 q 536 353 536 279 q 537 370 536 361 q 539 389 538 379 q 625 558 550 469 q 844 708 700 646 q 1015 756 928 743 q 1190 779 1103 768 q 1236 812 1213 800 q 1283 824 1260 824 q 1314 814 1303 824 q 1325 790 1325 804 q 1303 756 1325 774 q 1229 732 1282 739 q 1214 731 1222 731 q 1160 647 1188 697 q 1108 543 1133 597 q 1022 349 1067 450 q 922 152 976 247 q 801 -20 868 57 q 650 -142 735 -97 q 458 -187 565 -187 m 1226 893 q 1216 898 1221 894 q 1208 913 1211 901 l 1208 915 q 1211 924 1208 921 q 1217 929 1214 926 l 1394 1026 q 1407 1029 1399 1029 q 1422 1017 1414 1028 q 1429 1000 1429 1007 q 1415 983 1429 989 l 1235 894 q 1226 893 1232 893 z "},"Ĭ":{"ha":1118,"x_min":142,"x_max":1446,"o":"m 458 -187 q 281 -144 351 -187 q 176 -33 211 -100 q 142 103 142 33 q 170 226 142 168 q 250 318 199 283 q 291 338 269 331 q 333 346 313 346 q 383 333 360 346 q 421 290 407 319 q 424 275 424 285 q 418 258 424 265 q 406 251 413 251 q 390 264 397 251 q 335 297 374 297 q 269 274 301 297 q 215 205 239 249 q 192 104 192 161 q 217 -10 192 46 q 302 -101 243 -65 q 458 -137 361 -137 q 635 -92 556 -137 q 777 30 714 -46 q 892 199 840 106 q 988 390 944 293 q 1069 574 1031 488 q 1144 722 1107 658 q 1002 702 1074 714 q 864 663 931 690 q 713 574 772 624 q 624 475 654 525 q 589 383 594 425 q 588 369 588 376 q 588 356 588 363 q 610 283 588 306 q 667 261 633 261 q 732 278 697 261 q 796 324 767 294 q 842 382 815 343 q 868 464 868 421 q 856 511 868 489 q 850 531 850 521 q 857 546 850 540 q 872 551 864 551 q 892 542 883 551 q 910 511 900 529 q 915 454 919 493 q 868 326 908 381 q 772 242 828 272 q 663 213 715 213 q 574 246 611 213 q 536 353 536 279 q 537 370 536 361 q 539 389 538 379 q 625 558 550 469 q 844 708 700 646 q 1015 756 928 743 q 1190 779 1103 768 q 1236 812 1213 800 q 1283 824 1260 824 q 1314 814 1303 824 q 1325 790 1325 804 q 1303 756 1325 774 q 1229 732 1282 739 q 1214 731 1222 731 q 1160 647 1188 697 q 1108 543 1133 597 q 1022 349 1067 450 q 922 152 976 247 q 801 -20 868 57 q 650 -142 735 -97 q 458 -187 565 -187 m 1283 892 q 1188 917 1219 892 q 1157 974 1157 943 q 1167 1000 1157 989 q 1186 1011 1176 1011 q 1196 1001 1196 1011 q 1216 953 1196 969 q 1286 938 1236 938 q 1357 954 1324 938 q 1404 1000 1390 971 q 1415 1013 1408 1010 q 1426 1015 1421 1015 q 1438 1011 1429 1015 q 1442 994 1446 1007 q 1388 924 1431 956 q 1283 892 1344 892 z "},"Ǐ":{"ha":1118,"x_min":142,"x_max":1463,"o":"m 1449 1022 q 1459 1014 1456 1022 q 1463 999 1463 1006 q 1454 981 1463 985 l 1294 896 q 1281 892 1289 892 q 1268 896 1272 892 l 1178 982 q 1174 992 1174 986 q 1185 1013 1174 1001 q 1207 1014 1196 1024 l 1288 946 l 1435 1017 q 1449 1022 1444 1022 m 458 -187 q 281 -144 351 -187 q 176 -33 211 -100 q 142 103 142 33 q 170 226 142 168 q 250 318 199 283 q 291 338 269 331 q 333 346 313 346 q 383 333 360 346 q 421 290 407 319 q 424 275 424 285 q 418 258 424 265 q 406 251 413 251 q 390 264 397 251 q 335 297 374 297 q 269 274 301 297 q 215 205 239 249 q 192 104 192 161 q 217 -10 192 46 q 302 -101 243 -65 q 458 -137 361 -137 q 635 -92 556 -137 q 777 30 714 -46 q 892 199 840 106 q 988 390 944 293 q 1069 574 1031 488 q 1144 722 1107 658 q 1002 702 1074 714 q 864 663 931 690 q 713 574 772 624 q 624 475 654 525 q 589 383 594 425 q 588 369 588 376 q 588 356 588 363 q 610 283 588 306 q 667 261 633 261 q 732 278 697 261 q 796 324 767 294 q 842 382 815 343 q 868 464 868 421 q 856 511 868 489 q 850 531 850 521 q 857 546 850 540 q 872 551 864 551 q 892 542 883 551 q 910 511 900 529 q 915 454 919 493 q 868 326 908 381 q 772 242 828 272 q 663 213 715 213 q 574 246 611 213 q 536 353 536 279 q 537 370 536 361 q 539 389 538 379 q 625 558 550 469 q 844 708 700 646 q 1015 756 928 743 q 1190 779 1103 768 q 1236 812 1213 800 q 1283 824 1260 824 q 1314 814 1303 824 q 1325 790 1325 804 q 1303 756 1325 774 q 1229 732 1282 739 q 1214 731 1222 731 q 1160 647 1188 697 q 1108 543 1133 597 q 1022 349 1067 450 q 922 152 976 247 q 801 -20 868 57 q 650 -142 735 -97 q 458 -187 565 -187 z "},"Î":{"ha":1118,"x_min":142,"x_max":1426,"o":"m 458 -187 q 281 -144 351 -187 q 176 -33 211 -100 q 142 103 142 33 q 170 226 142 168 q 250 318 199 283 q 291 338 269 331 q 333 346 313 346 q 383 333 360 346 q 421 290 407 319 q 424 275 424 285 q 418 258 424 265 q 406 251 413 251 q 390 264 397 251 q 335 297 374 297 q 269 274 301 297 q 215 205 239 249 q 192 104 192 161 q 217 -10 192 46 q 302 -101 243 -65 q 458 -137 361 -137 q 635 -92 556 -137 q 777 30 714 -46 q 892 199 840 106 q 988 390 944 293 q 1069 574 1031 488 q 1144 722 1107 658 q 1002 702 1074 714 q 864 663 931 690 q 713 574 772 624 q 624 475 654 525 q 589 383 594 425 q 588 369 588 376 q 588 356 588 363 q 610 283 588 306 q 667 261 633 261 q 732 278 697 261 q 796 324 767 294 q 842 382 815 343 q 868 464 868 421 q 856 511 868 489 q 850 531 850 521 q 857 546 850 540 q 872 551 864 551 q 892 542 883 551 q 910 511 900 529 q 915 454 919 493 q 868 326 908 381 q 772 242 828 272 q 663 213 715 213 q 574 246 611 213 q 536 353 536 279 q 537 370 536 361 q 539 389 538 379 q 625 558 550 469 q 844 708 700 646 q 1015 756 928 743 q 1190 779 1103 768 q 1236 812 1213 800 q 1283 824 1260 824 q 1314 814 1303 824 q 1325 790 1325 804 q 1303 756 1325 774 q 1229 732 1282 739 q 1214 731 1222 731 q 1160 647 1188 697 q 1108 543 1133 597 q 1022 349 1067 450 q 922 152 976 247 q 801 -20 868 57 q 650 -142 735 -97 q 458 -187 565 -187 m 1151 883 q 1142 892 1146 883 q 1138 907 1138 901 q 1146 925 1138 921 l 1306 1010 q 1319 1014 1313 1014 q 1332 1010 1328 1014 l 1422 924 q 1426 914 1426 919 q 1415 893 1426 904 q 1393 892 1404 882 l 1313 960 l 1165 889 q 1151 883 1156 883 z "},"Ȉ":{"ha":1118,"x_min":142,"x_max":1357,"o":"m 1332 885 q 1325 888 1326 886 l 1171 1018 q 1161 1036 1161 1025 l 1161 1038 q 1174 1053 1164 1044 q 1190 1060 1183 1061 q 1201 1054 1199 1058 l 1350 917 q 1355 910 1353 914 q 1354 899 1357 906 q 1344 887 1349 889 q 1332 885 1339 885 m 1228 886 q 1219 889 1222 888 l 1049 996 q 1038 1013 1038 1001 l 1038 1014 q 1047 1031 1038 1021 q 1063 1040 1056 1040 q 1075 1036 1071 1040 l 1242 921 q 1247 914 1244 918 q 1247 904 1250 910 q 1238 890 1243 893 q 1228 886 1233 888 m 458 -187 q 281 -144 351 -187 q 176 -33 211 -100 q 142 103 142 33 q 170 226 142 168 q 250 318 199 283 q 291 338 269 331 q 333 346 313 346 q 383 333 360 346 q 421 290 407 319 q 424 275 424 285 q 418 258 424 265 q 406 251 413 251 q 390 264 397 251 q 335 297 374 297 q 269 274 301 297 q 215 205 239 249 q 192 104 192 161 q 217 -10 192 46 q 302 -101 243 -65 q 458 -137 361 -137 q 635 -92 556 -137 q 777 30 714 -46 q 892 199 840 106 q 988 390 944 293 q 1069 574 1031 488 q 1144 722 1107 658 q 1002 702 1074 714 q 864 663 931 690 q 713 574 772 624 q 624 475 654 525 q 589 383 594 425 q 588 369 588 376 q 588 356 588 363 q 610 283 588 306 q 667 261 633 261 q 732 278 697 261 q 796 324 767 294 q 842 382 815 343 q 868 464 868 421 q 856 511 868 489 q 850 531 850 521 q 857 546 850 540 q 872 551 864 551 q 892 542 883 551 q 910 511 900 529 q 915 454 919 493 q 868 326 908 381 q 772 242 828 272 q 663 213 715 213 q 574 246 611 213 q 536 353 536 279 q 537 370 536 361 q 539 389 538 379 q 625 558 550 469 q 844 708 700 646 q 1015 756 928 743 q 1190 779 1103 768 q 1236 812 1213 800 q 1283 824 1260 824 q 1314 814 1303 824 q 1325 790 1325 804 q 1303 756 1325 774 q 1229 732 1282 739 q 1214 731 1222 731 q 1160 647 1188 697 q 1108 543 1133 597 q 1022 349 1067 450 q 922 152 976 247 q 801 -20 868 57 q 650 -142 735 -97 q 458 -187 565 -187 z "},"Ï":{"ha":1118,"x_min":142,"x_max":1404,"o":"m 458 -187 q 281 -144 351 -187 q 176 -33 211 -100 q 142 103 142 33 q 170 226 142 168 q 250 318 199 283 q 291 338 269 331 q 333 346 313 346 q 383 333 360 346 q 421 290 407 319 q 424 275 424 285 q 418 258 424 265 q 406 251 413 251 q 390 264 397 251 q 335 297 374 297 q 269 274 301 297 q 215 205 239 249 q 192 104 192 161 q 217 -10 192 46 q 302 -101 243 -65 q 458 -137 361 -137 q 635 -92 556 -137 q 777 30 714 -46 q 892 199 840 106 q 988 390 944 293 q 1069 574 1031 488 q 1144 722 1107 658 q 1002 702 1074 714 q 864 663 931 690 q 713 574 772 624 q 624 475 654 525 q 589 383 594 425 q 588 369 588 376 q 588 356 588 363 q 610 283 588 306 q 667 261 633 261 q 732 278 697 261 q 796 324 767 294 q 842 382 815 343 q 868 464 868 421 q 856 511 868 489 q 850 531 850 521 q 857 546 850 540 q 872 551 864 551 q 892 542 883 551 q 910 511 900 529 q 915 454 919 493 q 868 326 908 381 q 772 242 828 272 q 663 213 715 213 q 574 246 611 213 q 536 353 536 279 q 537 370 536 361 q 539 389 538 379 q 625 558 550 469 q 844 708 700 646 q 1015 756 928 743 q 1190 779 1103 768 q 1236 812 1213 800 q 1283 824 1260 824 q 1314 814 1303 824 q 1325 790 1325 804 q 1303 756 1325 774 q 1229 732 1282 739 q 1214 731 1222 731 q 1160 647 1188 697 q 1108 543 1133 597 q 1022 349 1067 450 q 922 152 976 247 q 801 -20 868 57 q 650 -142 735 -97 q 458 -187 565 -187 m 1367 893 q 1339 905 1350 893 q 1328 932 1328 917 q 1339 959 1328 949 q 1367 969 1350 969 q 1394 959 1383 969 q 1404 932 1404 949 q 1394 905 1404 917 q 1367 893 1383 893 m 1203 893 q 1175 905 1186 893 q 1164 932 1164 917 q 1175 959 1164 949 q 1203 969 1186 969 q 1230 959 1219 969 q 1240 932 1240 949 q 1230 905 1240 917 q 1203 893 1219 893 z "},"İ":{"ha":1118,"x_min":142,"x_max":1325,"o":"m 458 -187 q 281 -144 351 -187 q 176 -33 211 -100 q 142 103 142 33 q 170 226 142 168 q 250 318 199 283 q 291 338 269 331 q 333 346 313 346 q 383 333 360 346 q 421 290 407 319 q 424 275 424 285 q 418 258 424 265 q 406 251 413 251 q 390 264 397 251 q 335 297 374 297 q 269 274 301 297 q 215 205 239 249 q 192 104 192 161 q 217 -10 192 46 q 302 -101 243 -65 q 458 -137 361 -137 q 635 -92 556 -137 q 777 30 714 -46 q 892 199 840 106 q 988 390 944 293 q 1069 574 1031 488 q 1144 722 1107 658 q 1002 702 1074 714 q 864 663 931 690 q 713 574 772 624 q 624 475 654 525 q 589 383 594 425 q 588 369 588 376 q 588 356 588 363 q 610 283 588 306 q 667 261 633 261 q 732 278 697 261 q 796 324 767 294 q 842 382 815 343 q 868 464 868 421 q 856 511 868 489 q 850 531 850 521 q 857 546 850 540 q 872 551 864 551 q 892 542 883 551 q 910 511 900 529 q 915 454 919 493 q 868 326 908 381 q 772 242 828 272 q 663 213 715 213 q 574 246 611 213 q 536 353 536 279 q 537 370 536 361 q 539 389 538 379 q 625 558 550 469 q 844 708 700 646 q 1015 756 928 743 q 1190 779 1103 768 q 1236 812 1213 800 q 1283 824 1260 824 q 1314 814 1303 824 q 1325 790 1325 804 q 1303 756 1325 774 q 1229 732 1282 739 q 1214 731 1222 731 q 1160 647 1188 697 q 1108 543 1133 597 q 1022 349 1067 450 q 922 152 976 247 q 801 -20 868 57 q 650 -142 735 -97 q 458 -187 565 -187 m 1285 893 q 1257 905 1268 893 q 1246 932 1246 917 q 1257 959 1246 949 q 1285 969 1268 969 q 1312 959 1301 969 q 1322 932 1322 949 q 1312 905 1322 917 q 1285 893 1301 893 z "},"Ị":{"ha":1118,"x_min":142,"x_max":1325,"o":"m 458 -187 q 281 -144 351 -187 q 176 -33 211 -100 q 142 103 142 33 q 170 226 142 168 q 250 318 199 283 q 291 338 269 331 q 333 346 313 346 q 383 333 360 346 q 421 290 407 319 q 424 275 424 285 q 418 258 424 265 q 406 251 413 251 q 390 264 397 251 q 335 297 374 297 q 269 274 301 297 q 215 205 239 249 q 192 104 192 161 q 217 -10 192 46 q 302 -101 243 -65 q 458 -137 361 -137 q 635 -92 556 -137 q 777 30 714 -46 q 892 199 840 106 q 988 390 944 293 q 1069 574 1031 488 q 1144 722 1107 658 q 1002 702 1074 714 q 864 663 931 690 q 713 574 772 624 q 624 475 654 525 q 589 383 594 425 q 588 369 588 376 q 588 356 588 363 q 610 283 588 306 q 667 261 633 261 q 732 278 697 261 q 796 324 767 294 q 842 382 815 343 q 868 464 868 421 q 856 511 868 489 q 850 531 850 521 q 857 546 850 540 q 872 551 864 551 q 892 542 883 551 q 910 511 900 529 q 915 454 919 493 q 868 326 908 381 q 772 242 828 272 q 663 213 715 213 q 574 246 611 213 q 536 353 536 279 q 537 370 536 361 q 539 389 538 379 q 625 558 550 469 q 844 708 700 646 q 1015 756 928 743 q 1190 779 1103 768 q 1236 812 1213 800 q 1283 824 1260 824 q 1314 814 1303 824 q 1325 790 1325 804 q 1303 756 1325 774 q 1229 732 1282 739 q 1214 731 1222 731 q 1160 647 1188 697 q 1108 543 1133 597 q 1022 349 1067 450 q 922 152 976 247 q 801 -20 868 57 q 650 -142 735 -97 q 458 -187 565 -187 m 392 -361 q 364 -349 375 -361 q 353 -322 353 -337 q 364 -295 353 -306 q 392 -285 375 -285 q 419 -295 408 -285 q 429 -322 429 -306 q 419 -349 429 -337 q 392 -361 408 -361 z "},"Ì":{"ha":1118,"x_min":142,"x_max":1358,"o":"m 458 -187 q 281 -144 351 -187 q 176 -33 211 -100 q 142 103 142 33 q 170 226 142 168 q 250 318 199 283 q 291 338 269 331 q 333 346 313 346 q 383 333 360 346 q 421 290 407 319 q 424 275 424 285 q 418 258 424 265 q 406 251 413 251 q 390 264 397 251 q 335 297 374 297 q 269 274 301 297 q 215 205 239 249 q 192 104 192 161 q 217 -10 192 46 q 302 -101 243 -65 q 458 -137 361 -137 q 635 -92 556 -137 q 777 30 714 -46 q 892 199 840 106 q 988 390 944 293 q 1069 574 1031 488 q 1144 722 1107 658 q 1002 702 1074 714 q 864 663 931 690 q 713 574 772 624 q 624 475 654 525 q 589 383 594 425 q 588 369 588 376 q 588 356 588 363 q 610 283 588 306 q 667 261 633 261 q 732 278 697 261 q 796 324 767 294 q 842 382 815 343 q 868 464 868 421 q 856 511 868 489 q 850 531 850 521 q 857 546 850 540 q 872 551 864 551 q 892 542 883 551 q 910 511 900 529 q 915 454 919 493 q 868 326 908 381 q 772 242 828 272 q 663 213 715 213 q 574 246 611 213 q 536 353 536 279 q 537 370 536 361 q 539 389 538 379 q 625 558 550 469 q 844 708 700 646 q 1015 756 928 743 q 1190 779 1103 768 q 1236 812 1213 800 q 1283 824 1260 824 q 1314 814 1303 824 q 1325 790 1325 804 q 1303 756 1325 774 q 1229 732 1282 739 q 1214 731 1222 731 q 1160 647 1188 697 q 1108 543 1133 597 q 1022 349 1067 450 q 922 152 976 247 q 801 -20 868 57 q 650 -142 735 -97 q 458 -187 565 -187 m 1339 893 q 1331 894 1333 893 l 1150 983 q 1136 999 1139 988 l 1136 1000 q 1144 1017 1136 1007 q 1158 1029 1151 1028 q 1171 1026 1167 1029 l 1349 929 q 1355 923 1351 926 q 1357 913 1358 919 q 1350 898 1354 901 q 1339 893 1346 894 z "},"Ỉ":{"ha":1118,"x_min":142,"x_max":1393,"o":"m 458 -187 q 281 -144 351 -187 q 176 -33 211 -100 q 142 103 142 33 q 170 226 142 168 q 250 318 199 283 q 291 338 269 331 q 333 346 313 346 q 383 333 360 346 q 421 290 407 319 q 424 275 424 285 q 418 258 424 265 q 406 251 413 251 q 390 264 397 251 q 335 297 374 297 q 269 274 301 297 q 215 205 239 249 q 192 104 192 161 q 217 -10 192 46 q 302 -101 243 -65 q 458 -137 361 -137 q 635 -92 556 -137 q 777 30 714 -46 q 892 199 840 106 q 988 390 944 293 q 1069 574 1031 488 q 1144 722 1107 658 q 1002 702 1074 714 q 864 663 931 690 q 713 574 772 624 q 624 475 654 525 q 589 383 594 425 q 588 369 588 376 q 588 356 588 363 q 610 283 588 306 q 667 261 633 261 q 732 278 697 261 q 796 324 767 294 q 842 382 815 343 q 868 464 868 421 q 856 511 868 489 q 850 531 850 521 q 857 546 850 540 q 872 551 864 551 q 892 542 883 551 q 910 511 900 529 q 915 454 919 493 q 868 326 908 381 q 772 242 828 272 q 663 213 715 213 q 574 246 611 213 q 536 353 536 279 q 537 370 536 361 q 539 389 538 379 q 625 558 550 469 q 844 708 700 646 q 1015 756 928 743 q 1190 779 1103 768 q 1236 812 1213 800 q 1283 824 1260 824 q 1314 814 1303 824 q 1325 790 1325 804 q 1303 756 1325 774 q 1229 732 1282 739 q 1214 731 1222 731 q 1160 647 1188 697 q 1108 543 1133 597 q 1022 349 1067 450 q 922 152 976 247 q 801 -20 868 57 q 650 -142 735 -97 q 458 -187 565 -187 m 1278 879 q 1267 889 1267 879 q 1272 901 1267 896 q 1318 933 1296 921 q 1340 972 1340 946 q 1331 999 1340 992 q 1311 1007 1322 1007 q 1272 998 1290 1007 q 1240 982 1254 989 q 1228 978 1232 978 q 1217 988 1217 978 q 1218 1000 1217 990 q 1229 1015 1219 1010 q 1276 1041 1254 1031 q 1328 1051 1299 1051 q 1376 1029 1360 1051 q 1393 983 1393 1007 q 1368 926 1393 946 q 1315 890 1343 906 q 1278 879 1297 879 z "},"Ȋ":{"ha":1118,"x_min":142,"x_max":1429,"o":"m 1303 1007 q 1399 982 1368 1007 q 1429 925 1429 957 q 1420 899 1429 910 q 1400 888 1411 888 q 1390 897 1390 888 q 1370 945 1390 929 q 1300 961 1350 961 q 1230 944 1263 961 q 1182 899 1197 928 q 1172 886 1178 889 q 1160 883 1165 883 q 1149 888 1157 883 q 1144 904 1140 892 q 1199 976 1156 944 q 1303 1007 1242 1007 m 458 -187 q 281 -144 351 -187 q 176 -33 211 -100 q 142 103 142 33 q 170 226 142 168 q 250 318 199 283 q 291 338 269 331 q 333 346 313 346 q 383 333 360 346 q 421 290 407 319 q 424 275 424 285 q 418 258 424 265 q 406 251 413 251 q 390 264 397 251 q 335 297 374 297 q 269 274 301 297 q 215 205 239 249 q 192 104 192 161 q 217 -10 192 46 q 302 -101 243 -65 q 458 -137 361 -137 q 635 -92 556 -137 q 777 30 714 -46 q 892 199 840 106 q 988 390 944 293 q 1069 574 1031 488 q 1144 722 1107 658 q 1002 702 1074 714 q 864 663 931 690 q 713 574 772 624 q 624 475 654 525 q 589 383 594 425 q 588 369 588 376 q 588 356 588 363 q 610 283 588 306 q 667 261 633 261 q 732 278 697 261 q 796 324 767 294 q 842 382 815 343 q 868 464 868 421 q 856 511 868 489 q 850 531 850 521 q 857 546 850 540 q 872 551 864 551 q 892 542 883 551 q 910 511 900 529 q 915 454 919 493 q 868 326 908 381 q 772 242 828 272 q 663 213 715 213 q 574 246 611 213 q 536 353 536 279 q 537 370 536 361 q 539 389 538 379 q 625 558 550 469 q 844 708 700 646 q 1015 756 928 743 q 1190 779 1103 768 q 1236 812 1213 800 q 1283 824 1260 824 q 1314 814 1303 824 q 1325 790 1325 804 q 1303 756 1325 774 q 1229 732 1282 739 q 1214 731 1222 731 q 1160 647 1188 697 q 1108 543 1133 597 q 1022 349 1067 450 q 922 152 976 247 q 801 -20 868 57 q 650 -142 735 -97 q 458 -187 565 -187 z "},"Ī":{"ha":1118,"x_min":142,"x_max":1411,"o":"m 458 -187 q 281 -144 351 -187 q 176 -33 211 -100 q 142 103 142 33 q 170 226 142 168 q 250 318 199 283 q 291 338 269 331 q 333 346 313 346 q 383 333 360 346 q 421 290 407 319 q 424 275 424 285 q 418 258 424 265 q 406 251 413 251 q 390 264 397 251 q 335 297 374 297 q 269 274 301 297 q 215 205 239 249 q 192 104 192 161 q 217 -10 192 46 q 302 -101 243 -65 q 458 -137 361 -137 q 635 -92 556 -137 q 777 30 714 -46 q 892 199 840 106 q 988 390 944 293 q 1069 574 1031 488 q 1144 722 1107 658 q 1002 702 1074 714 q 864 663 931 690 q 713 574 772 624 q 624 475 654 525 q 589 383 594 425 q 588 369 588 376 q 588 356 588 363 q 610 283 588 306 q 667 261 633 261 q 732 278 697 261 q 796 324 767 294 q 842 382 815 343 q 868 464 868 421 q 856 511 868 489 q 850 531 850 521 q 857 546 850 540 q 872 551 864 551 q 892 542 883 551 q 910 511 900 529 q 915 454 919 493 q 868 326 908 381 q 772 242 828 272 q 663 213 715 213 q 574 246 611 213 q 536 353 536 279 q 537 370 536 361 q 539 389 538 379 q 625 558 550 469 q 844 708 700 646 q 1015 756 928 743 q 1190 779 1103 768 q 1236 812 1213 800 q 1283 824 1260 824 q 1314 814 1303 824 q 1325 790 1325 804 q 1303 756 1325 774 q 1229 732 1282 739 q 1214 731 1222 731 q 1160 647 1188 697 q 1108 543 1133 597 q 1022 349 1067 450 q 922 152 976 247 q 801 -20 868 57 q 650 -142 735 -97 q 458 -187 565 -187 m 1151 903 q 1132 911 1139 903 q 1125 926 1125 919 q 1132 942 1125 935 q 1151 950 1139 950 l 1385 950 q 1405 942 1399 950 q 1411 926 1411 935 q 1405 911 1411 919 q 1385 903 1399 903 l 1151 903 z "},"Į":{"ha":1118,"x_min":142,"x_max":1325,"o":"m 458 -187 q 281 -144 351 -187 q 176 -33 211 -100 q 142 103 142 33 q 170 226 142 168 q 250 318 199 283 q 291 338 269 331 q 333 346 313 346 q 383 333 360 346 q 421 290 407 319 q 424 275 424 285 q 418 258 424 265 q 406 251 413 251 q 390 264 397 251 q 335 297 374 297 q 269 274 301 297 q 215 205 239 249 q 192 104 192 161 q 217 -10 192 46 q 302 -101 243 -65 q 458 -137 361 -137 q 635 -92 556 -137 q 777 30 714 -46 q 892 199 840 106 q 988 390 944 293 q 1069 574 1031 488 q 1144 722 1107 658 q 1002 702 1074 714 q 864 663 931 690 q 713 574 772 624 q 624 475 654 525 q 589 383 594 425 q 588 369 588 376 q 588 356 588 363 q 610 283 588 306 q 667 261 633 261 q 732 278 697 261 q 796 324 767 294 q 842 382 815 343 q 868 464 868 421 q 856 511 868 489 q 850 531 850 521 q 857 546 850 540 q 872 551 864 551 q 892 542 883 551 q 910 511 900 529 q 915 454 919 493 q 868 326 908 381 q 772 242 828 272 q 663 213 715 213 q 574 246 611 213 q 536 353 536 279 q 537 370 536 361 q 539 389 538 379 q 625 558 550 469 q 844 708 700 646 q 1015 756 928 743 q 1190 779 1103 768 q 1236 812 1213 800 q 1283 824 1260 824 q 1314 814 1303 824 q 1325 790 1325 804 q 1303 756 1325 774 q 1229 732 1282 739 q 1214 731 1222 731 q 1160 647 1188 697 q 1108 543 1133 597 q 1022 349 1067 450 q 922 152 976 247 q 801 -20 868 57 q 650 -142 735 -97 q 458 -187 565 -187 m 385 -410 q 331 -394 353 -410 q 310 -344 310 -379 q 331 -272 310 -307 q 377 -208 351 -236 q 419 -167 403 -179 q 443 -158 428 -158 q 459 -169 450 -158 q 460 -187 468 -181 q 390 -263 419 -225 q 360 -328 360 -301 q 372 -352 360 -342 q 407 -362 385 -362 q 467 -344 447 -362 q 508 -303 486 -325 q 525 -321 525 -303 q 508 -358 525 -339 q 449 -402 475 -394 q 385 -410 424 -410 z "},"Ĩ":{"ha":1118,"x_min":142,"x_max":1433,"o":"m 458 -187 q 281 -144 351 -187 q 176 -33 211 -100 q 142 103 142 33 q 170 226 142 168 q 250 318 199 283 q 291 338 269 331 q 333 346 313 346 q 383 333 360 346 q 421 290 407 319 q 424 275 424 285 q 418 258 424 265 q 406 251 413 251 q 390 264 397 251 q 335 297 374 297 q 269 274 301 297 q 215 205 239 249 q 192 104 192 161 q 217 -10 192 46 q 302 -101 243 -65 q 458 -137 361 -137 q 635 -92 556 -137 q 777 30 714 -46 q 892 199 840 106 q 988 390 944 293 q 1069 574 1031 488 q 1144 722 1107 658 q 1002 702 1074 714 q 864 663 931 690 q 713 574 772 624 q 624 475 654 525 q 589 383 594 425 q 588 369 588 376 q 588 356 588 363 q 610 283 588 306 q 667 261 633 261 q 732 278 697 261 q 796 324 767 294 q 842 382 815 343 q 868 464 868 421 q 856 511 868 489 q 850 531 850 521 q 857 546 850 540 q 872 551 864 551 q 892 542 883 551 q 910 511 900 529 q 915 454 919 493 q 868 326 908 381 q 772 242 828 272 q 663 213 715 213 q 574 246 611 213 q 536 353 536 279 q 537 370 536 361 q 539 389 538 379 q 625 558 550 469 q 844 708 700 646 q 1015 756 928 743 q 1190 779 1103 768 q 1236 812 1213 800 q 1283 824 1260 824 q 1314 814 1303 824 q 1325 790 1325 804 q 1303 756 1325 774 q 1229 732 1282 739 q 1214 731 1222 731 q 1160 647 1188 697 q 1108 543 1133 597 q 1022 349 1067 450 q 922 152 976 247 q 801 -20 868 57 q 650 -142 735 -97 q 458 -187 565 -187 m 1163 885 q 1144 906 1144 885 q 1149 919 1144 914 q 1190 966 1168 947 q 1242 985 1213 985 q 1278 974 1261 985 q 1307 954 1294 963 q 1331 941 1318 947 q 1351 935 1344 935 q 1376 942 1361 935 q 1396 965 1390 950 q 1402 971 1399 968 q 1411 974 1406 974 q 1428 963 1422 974 q 1428 942 1433 953 q 1350 886 1401 886 q 1310 900 1328 886 q 1281 919 1292 914 q 1235 938 1249 938 q 1207 926 1224 938 q 1175 892 1190 915 q 1163 885 1171 885 z "},"J":{"ha":1029,"x_min":-6,"x_max":1232,"o":"m 254 -303 q 125 -280 185 -303 q 30 -213 65 -257 q -6 -108 -6 -169 q 32 7 -6 -42 q 129 89 69 56 q 259 143 189 122 q 396 175 329 164 q 511 189 463 186 q 535 190 519 189 q 574 190 551 190 q 687 188 621 190 q 813 176 753 185 q 894 357 858 265 q 966 538 929 449 q 1054 710 1003 628 q 924 697 989 704 q 797 663 858 689 q 611 536 671 608 q 544 407 551 464 q 543 394 543 400 q 543 382 543 388 q 563 319 543 339 q 614 299 583 299 q 690 322 650 299 q 760 387 729 346 q 794 478 790 428 l 794 490 q 792 509 794 504 q 788 515 790 514 q 772 536 772 525 q 782 553 772 546 q 803 560 792 560 q 832 545 818 560 q 846 494 846 531 q 808 367 846 422 q 716 281 771 311 q 610 250 661 250 q 526 281 561 250 q 492 381 492 313 q 492 397 492 389 q 494 414 493 406 q 574 570 504 488 q 778 708 643 653 q 934 747 853 740 q 1096 764 1015 754 q 1141 796 1117 783 q 1190 808 1165 808 q 1221 799 1210 808 q 1232 775 1232 789 q 1210 742 1232 758 q 1136 718 1189 725 q 1117 715 1126 717 q 1064 630 1092 682 q 1013 525 1036 578 q 936 338 968 425 q 864 168 904 250 q 922 149 897 160 q 954 125 946 139 q 960 106 960 115 q 943 88 960 88 q 917 99 929 88 q 892 108 913 101 q 840 121 872 114 q 736 -39 794 38 q 606 -175 678 -115 q 447 -269 535 -235 q 254 -303 360 -303 m 44 -108 q 101 -210 44 -168 q 254 -253 157 -253 q 480 -199 381 -253 q 656 -59 579 -146 q 788 131 732 28 l 786 131 q 700 139 744 136 q 611 142 656 142 q 408 126 510 142 q 218 75 306 111 q 93 -1 142 44 q 44 -108 44 -46 z "},"Ĵ":{"ha":1029,"x_min":-6,"x_max":1300,"o":"m 254 -303 q 125 -280 185 -303 q 30 -213 65 -257 q -6 -108 -6 -169 q 32 7 -6 -42 q 129 89 69 56 q 259 143 189 122 q 396 175 329 164 q 511 189 463 186 q 535 190 519 189 q 574 190 551 190 q 687 188 621 190 q 813 176 753 185 q 894 357 858 265 q 966 538 929 449 q 1054 710 1003 628 q 924 697 989 704 q 797 663 858 689 q 611 536 671 608 q 544 407 551 464 q 543 394 543 400 q 543 382 543 388 q 563 319 543 339 q 614 299 583 299 q 690 322 650 299 q 760 387 729 346 q 794 478 790 428 l 794 490 q 792 509 794 504 q 788 515 790 514 q 772 536 772 525 q 782 553 772 546 q 803 560 792 560 q 832 545 818 560 q 846 494 846 531 q 808 367 846 422 q 716 281 771 311 q 610 250 661 250 q 526 281 561 250 q 492 381 492 313 q 492 397 492 389 q 494 414 493 406 q 574 570 504 488 q 778 708 643 653 q 934 747 853 740 q 1096 764 1015 754 q 1141 796 1117 783 q 1190 808 1165 808 q 1221 799 1210 808 q 1232 775 1232 789 q 1210 742 1232 758 q 1136 718 1189 725 q 1117 715 1126 717 q 1064 630 1092 682 q 1013 525 1036 578 q 936 338 968 425 q 864 168 904 250 q 922 149 897 160 q 954 125 946 139 q 960 106 960 115 q 943 88 960 88 q 917 99 929 88 q 892 108 913 101 q 840 121 872 114 q 736 -39 794 38 q 606 -175 678 -115 q 447 -269 535 -235 q 254 -303 360 -303 m 44 -108 q 101 -210 44 -168 q 254 -253 157 -253 q 480 -199 381 -253 q 656 -59 579 -146 q 788 131 732 28 l 786 131 q 700 139 744 136 q 611 142 656 142 q 408 126 510 142 q 218 75 306 111 q 93 -1 142 44 q 44 -108 44 -46 m 1025 868 q 1015 877 1019 868 q 1011 892 1011 886 q 1019 910 1011 906 l 1179 994 q 1193 999 1186 999 q 1206 994 1201 999 l 1296 908 q 1300 899 1300 904 q 1289 878 1300 889 q 1267 876 1278 867 l 1186 944 l 1039 874 q 1025 868 1029 868 z "},"K":{"ha":1306,"x_min":118,"x_max":1835,"o":"m 1393 -157 q 1293 -124 1339 -157 q 1210 -35 1247 -90 q 1147 85 1174 19 q 1106 213 1121 150 q 1086 325 1090 276 q 1084 352 1085 340 q 1083 374 1083 364 q 1090 389 1083 381 q 1103 399 1097 397 q 1265 471 1181 419 q 1430 590 1349 522 q 1583 730 1511 657 q 1708 867 1654 803 q 1792 975 1763 932 q 1808 985 1797 985 q 1827 976 1819 985 q 1835 957 1835 968 q 1831 943 1835 950 q 1750 838 1803 901 q 1627 701 1697 774 q 1475 558 1557 628 q 1306 434 1393 489 q 1136 353 1219 379 q 1151 258 1139 315 q 1184 136 1163 200 q 1236 17 1206 72 q 1307 -74 1267 -39 q 1397 -110 1347 -110 q 1535 -74 1485 -110 q 1607 1 1586 -39 q 1628 15 1613 15 q 1644 9 1638 15 q 1651 -7 1651 3 q 1649 -19 1651 -15 q 1563 -115 1622 -72 q 1393 -157 1503 -157 m 461 -178 q 268 -136 344 -178 q 155 -31 192 -94 q 118 99 118 32 q 149 216 118 160 q 235 306 179 272 q 278 324 254 317 q 324 332 303 332 q 378 320 353 332 q 419 276 404 308 q 425 261 425 265 q 417 245 425 251 q 399 239 410 239 q 374 253 382 239 q 352 275 367 268 q 322 282 338 282 q 256 259 292 282 q 196 194 221 236 q 171 96 171 153 q 199 -10 171 42 q 292 -94 228 -61 q 461 -128 356 -128 q 627 -90 546 -128 q 780 14 708 -51 q 907 162 851 79 q 996 335 963 244 l 1010 372 q 1053 483 1029 422 q 1106 601 1078 543 q 1158 700 1133 658 q 1026 680 1092 692 q 897 642 960 668 q 756 560 811 606 q 672 467 700 514 q 639 379 644 419 q 638 365 638 372 q 638 351 638 358 q 658 285 638 306 q 708 265 679 265 q 787 290 746 265 q 859 356 828 314 q 894 451 890 399 q 895 458 894 454 q 896 464 896 463 q 894 483 896 476 q 889 492 892 490 q 875 513 875 501 q 904 535 875 535 q 933 520 919 535 q 947 468 947 506 q 908 335 947 392 q 814 247 869 278 q 706 217 758 217 q 619 249 654 217 q 585 351 585 281 q 585 367 585 358 q 586 385 585 375 q 667 546 596 463 q 876 689 738 629 q 1023 728 946 717 q 1174 750 1100 740 l 1204 754 q 1247 785 1224 772 q 1292 799 1269 799 q 1324 789 1311 799 q 1336 767 1336 779 q 1315 733 1336 749 q 1242 710 1293 718 l 1233 708 q 1177 624 1206 675 q 1124 519 1149 574 q 1079 415 1099 464 q 1050 338 1060 367 l 1043 317 q 947 138 1006 225 q 812 -22 888 50 q 647 -135 736 -93 q 461 -178 558 -178 z "},"Ķ":{"ha":1306,"x_min":118,"x_max":1835,"o":"m 1393 -157 q 1293 -124 1339 -157 q 1210 -35 1247 -90 q 1147 85 1174 19 q 1106 213 1121 150 q 1086 325 1090 276 q 1084 352 1085 340 q 1083 374 1083 364 q 1090 389 1083 381 q 1103 399 1097 397 q 1265 471 1181 419 q 1430 590 1349 522 q 1583 730 1511 657 q 1708 867 1654 803 q 1792 975 1763 932 q 1808 985 1797 985 q 1827 976 1819 985 q 1835 957 1835 968 q 1831 943 1835 950 q 1750 838 1803 901 q 1627 701 1697 774 q 1475 558 1557 628 q 1306 434 1393 489 q 1136 353 1219 379 q 1151 258 1139 315 q 1184 136 1163 200 q 1236 17 1206 72 q 1307 -74 1267 -39 q 1397 -110 1347 -110 q 1535 -74 1485 -110 q 1607 1 1586 -39 q 1628 15 1613 15 q 1644 9 1638 15 q 1651 -7 1651 3 q 1649 -19 1651 -15 q 1563 -115 1622 -72 q 1393 -157 1503 -157 m 461 -178 q 268 -136 344 -178 q 155 -31 192 -94 q 118 99 118 32 q 149 216 118 160 q 235 306 179 272 q 278 324 254 317 q 324 332 303 332 q 378 320 353 332 q 419 276 404 308 q 425 261 425 265 q 417 245 425 251 q 399 239 410 239 q 374 253 382 239 q 352 275 367 268 q 322 282 338 282 q 256 259 292 282 q 196 194 221 236 q 171 96 171 153 q 199 -10 171 42 q 292 -94 228 -61 q 461 -128 356 -128 q 627 -90 546 -128 q 780 14 708 -51 q 907 162 851 79 q 996 335 963 244 l 1010 372 q 1053 483 1029 422 q 1106 601 1078 543 q 1158 700 1133 658 q 1026 680 1092 692 q 897 642 960 668 q 756 560 811 606 q 672 467 700 514 q 639 379 644 419 q 638 365 638 372 q 638 351 638 358 q 658 285 638 306 q 708 265 679 265 q 787 290 746 265 q 859 356 828 314 q 894 451 890 399 q 895 458 894 454 q 896 464 896 463 q 894 483 896 476 q 889 492 892 490 q 875 513 875 501 q 904 535 875 535 q 933 520 919 535 q 947 468 947 506 q 908 335 947 392 q 814 247 869 278 q 706 217 758 217 q 619 249 654 217 q 585 351 585 281 q 585 367 585 358 q 586 385 585 375 q 667 546 596 463 q 876 689 738 629 q 1023 728 946 717 q 1174 750 1100 740 l 1204 754 q 1247 785 1224 772 q 1292 799 1269 799 q 1324 789 1311 799 q 1336 767 1336 779 q 1315 733 1336 749 q 1242 710 1293 718 l 1233 708 q 1177 624 1206 675 q 1124 519 1149 574 q 1079 415 1099 464 q 1050 338 1060 367 l 1043 317 q 947 138 1006 225 q 812 -22 888 50 q 647 -135 736 -93 q 461 -178 558 -178 m 850 -414 q 829 -407 839 -414 q 825 -396 825 -403 q 836 -376 825 -383 q 922 -292 901 -319 q 949 -250 943 -265 q 924 -221 924 -239 q 933 -202 924 -210 q 961 -194 943 -194 q 993 -206 981 -194 q 1006 -236 1006 -218 q 981 -293 1006 -257 q 914 -369 957 -329 q 892 -389 904 -379 q 865 -410 879 -399 q 850 -414 857 -414 z "},"L":{"ha":1008,"x_min":71,"x_max":1331,"o":"m 1261 -194 q 1108 -170 1193 -194 q 931 -110 1022 -146 q 756 -35 840 -74 q 604 31 671 3 q 460 -83 542 -37 q 272 -128 378 -128 q 121 -87 171 -128 q 71 4 71 -47 q 97 74 71 40 q 174 131 122 108 q 301 153 225 153 q 451 134 381 153 q 590 89 522 115 q 658 187 626 133 q 719 296 690 240 q 626 292 674 292 q 426 313 529 292 q 298 377 342 331 q 254 478 254 424 q 314 601 254 542 q 496 682 374 660 l 501 682 q 520 674 513 682 q 528 657 528 667 q 507 635 528 639 q 353 573 400 615 q 307 486 307 531 q 342 408 307 443 q 438 361 378 372 q 629 340 536 340 q 744 349 689 340 q 818 506 782 428 q 892 651 854 583 q 975 765 931 718 q 1068 836 1022 814 q 1153 858 1114 858 q 1249 819 1211 858 q 1288 718 1288 779 q 1265 626 1288 675 q 1194 528 1243 578 q 1001 381 1106 436 q 781 306 896 326 q 762 266 771 285 q 743 229 753 247 q 694 148 721 189 q 638 68 668 107 q 730 26 683 47 q 825 -15 776 4 q 915 -51 861 -29 q 1031 -96 969 -74 q 1153 -133 1093 -118 q 1261 -147 1214 -147 q 1300 -143 1283 -147 q 1304 -142 1303 -143 q 1307 -142 1306 -142 q 1324 -150 1318 -142 q 1331 -168 1331 -158 q 1311 -190 1331 -186 q 1261 -194 1289 -194 m 1013 732 q 935 626 971 688 q 867 495 899 564 q 806 360 835 426 q 992 433 903 383 q 1157 560 1081 482 q 1217 644 1199 603 q 1235 718 1235 685 q 1212 784 1235 758 q 1151 810 1189 810 q 1087 791 1122 810 q 1013 732 1051 772 m 122 4 q 159 -53 122 -28 q 272 -79 196 -79 q 431 -44 361 -79 q 557 50 501 -8 l 556 50 q 431 90 494 74 q 301 106 367 106 q 168 74 214 106 q 122 4 122 42 z "},"Ǉ":{"ha":2038,"x_min":71,"x_max":2240,"o":"m 1261 -194 q 1108 -170 1193 -194 q 931 -110 1022 -146 q 756 -35 840 -74 q 604 31 671 3 q 460 -83 542 -37 q 272 -128 378 -128 q 121 -87 171 -128 q 71 4 71 -47 q 97 74 71 40 q 174 131 122 108 q 301 153 225 153 q 451 134 381 153 q 590 89 522 115 q 658 187 626 133 q 719 296 690 240 q 626 292 674 292 q 426 313 529 292 q 298 377 342 331 q 254 478 254 424 q 314 601 254 542 q 496 682 374 660 l 501 682 q 520 674 513 682 q 528 657 528 667 q 507 635 528 639 q 353 573 400 615 q 307 486 307 531 q 342 408 307 443 q 438 361 378 372 q 629 340 536 340 q 744 349 689 340 q 818 506 782 428 q 892 651 854 583 q 975 765 931 718 q 1068 836 1022 814 q 1153 858 1114 858 q 1249 819 1211 858 q 1288 718 1288 779 q 1265 626 1288 675 q 1194 528 1243 578 q 1001 381 1106 436 q 781 306 896 326 q 762 266 771 285 q 743 229 753 247 q 694 148 721 189 q 638 68 668 107 q 730 26 683 47 q 825 -15 776 4 q 915 -51 861 -29 q 1031 -96 969 -74 q 1153 -133 1093 -118 q 1261 -147 1214 -147 q 1300 -143 1283 -147 q 1304 -142 1303 -143 q 1307 -142 1306 -142 q 1324 -150 1318 -142 q 1331 -168 1331 -158 q 1311 -190 1331 -186 q 1261 -194 1289 -194 m 1013 732 q 935 626 971 688 q 867 495 899 564 q 806 360 835 426 q 992 433 903 383 q 1157 560 1081 482 q 1217 644 1199 603 q 1235 718 1235 685 q 1212 784 1235 758 q 1151 810 1189 810 q 1087 791 1122 810 q 1013 732 1051 772 m 122 4 q 159 -53 122 -28 q 272 -79 196 -79 q 431 -44 361 -79 q 557 50 501 -8 l 556 50 q 431 90 494 74 q 301 106 367 106 q 168 74 214 106 q 122 4 122 42 m 1263 -303 q 1133 -280 1193 -303 q 1038 -213 1074 -257 q 1003 -108 1003 -169 q 1040 7 1003 -42 q 1138 89 1078 56 q 1267 143 1197 122 q 1404 175 1338 164 q 1519 189 1471 186 q 1544 190 1528 189 q 1582 190 1560 190 q 1695 188 1629 190 q 1821 176 1761 185 q 1902 357 1867 265 q 1974 538 1938 449 q 2063 710 2011 628 q 1932 697 1997 704 q 1806 663 1867 689 q 1619 536 1679 608 q 1553 407 1560 464 q 1551 394 1551 400 q 1551 382 1551 388 q 1572 319 1551 339 q 1622 299 1592 299 q 1698 322 1658 299 q 1768 387 1738 346 q 1803 478 1799 428 l 1803 490 q 1801 509 1803 504 q 1796 515 1799 514 q 1781 536 1781 525 q 1790 553 1781 546 q 1811 560 1800 560 q 1840 545 1826 560 q 1854 494 1854 531 q 1817 367 1854 422 q 1724 281 1779 311 q 1618 250 1669 250 q 1535 281 1569 250 q 1500 381 1500 313 q 1501 397 1500 389 q 1503 414 1501 406 q 1582 570 1513 488 q 1786 708 1651 653 q 1942 747 1861 740 q 2104 764 2024 754 q 2149 796 2125 783 q 2199 808 2174 808 q 2229 799 2218 808 q 2240 775 2240 789 q 2219 742 2240 758 q 2144 718 2197 725 q 2125 715 2135 717 q 2072 630 2100 682 q 2021 525 2044 578 q 1944 338 1976 425 q 1872 168 1913 250 q 1930 149 1906 160 q 1963 125 1954 139 q 1968 106 1968 115 q 1951 88 1968 88 q 1925 99 1938 88 q 1901 108 1921 101 q 1849 121 1881 114 q 1744 -39 1803 38 q 1615 -175 1686 -115 q 1456 -269 1543 -235 q 1263 -303 1368 -303 m 1053 -108 q 1109 -210 1053 -168 q 1263 -253 1165 -253 q 1488 -199 1389 -253 q 1664 -59 1588 -146 q 1796 131 1740 28 l 1794 131 q 1708 139 1753 136 q 1619 142 1664 142 q 1416 126 1518 142 q 1226 75 1314 111 q 1101 -1 1150 44 q 1053 -108 1053 -46 z "},"Ĺ":{"ha":1008,"x_min":71,"x_max":1331,"o":"m 1261 -194 q 1108 -170 1193 -194 q 931 -110 1022 -146 q 756 -35 840 -74 q 604 31 671 3 q 460 -83 542 -37 q 272 -128 378 -128 q 121 -87 171 -128 q 71 4 71 -47 q 97 74 71 40 q 174 131 122 108 q 301 153 225 153 q 451 134 381 153 q 590 89 522 115 q 658 187 626 133 q 719 296 690 240 q 626 292 674 292 q 426 313 529 292 q 298 377 342 331 q 254 478 254 424 q 314 601 254 542 q 496 682 374 660 l 501 682 q 520 674 513 682 q 528 657 528 667 q 507 635 528 639 q 353 573 400 615 q 307 486 307 531 q 342 408 307 443 q 438 361 378 372 q 629 340 536 340 q 744 349 689 340 q 818 506 782 428 q 892 651 854 583 q 975 765 931 718 q 1068 836 1022 814 q 1153 858 1114 858 q 1249 819 1211 858 q 1288 718 1288 779 q 1265 626 1288 675 q 1194 528 1243 578 q 1001 381 1106 436 q 781 306 896 326 q 762 266 771 285 q 743 229 753 247 q 694 148 721 189 q 638 68 668 107 q 730 26 683 47 q 825 -15 776 4 q 915 -51 861 -29 q 1031 -96 969 -74 q 1153 -133 1093 -118 q 1261 -147 1214 -147 q 1300 -143 1283 -147 q 1304 -142 1303 -143 q 1307 -142 1306 -142 q 1324 -150 1318 -142 q 1331 -168 1331 -158 q 1311 -190 1331 -186 q 1261 -194 1289 -194 m 1013 732 q 935 626 971 688 q 867 495 899 564 q 806 360 835 426 q 992 433 903 383 q 1157 560 1081 482 q 1217 644 1199 603 q 1235 718 1235 685 q 1212 784 1235 758 q 1151 810 1189 810 q 1087 791 1122 810 q 1013 732 1051 772 m 122 4 q 159 -53 122 -28 q 272 -79 196 -79 q 431 -44 361 -79 q 557 50 501 -8 l 556 50 q 431 90 494 74 q 301 106 367 106 q 168 74 214 106 q 122 4 122 42 m 1113 928 q 1102 933 1107 929 q 1094 947 1097 936 l 1094 950 q 1097 958 1094 956 q 1103 964 1100 961 l 1281 1061 q 1293 1064 1285 1064 q 1308 1052 1300 1063 q 1315 1035 1315 1042 q 1301 1018 1315 1024 l 1121 929 q 1113 928 1118 928 z "},"Ľ":{"ha":1008,"x_min":71,"x_max":1497,"o":"m 1261 -194 q 1108 -170 1193 -194 q 931 -110 1022 -146 q 756 -35 840 -74 q 604 31 671 3 q 460 -83 542 -37 q 272 -128 378 -128 q 121 -87 171 -128 q 71 4 71 -47 q 97 74 71 40 q 174 131 122 108 q 301 153 225 153 q 451 134 381 153 q 590 89 522 115 q 658 187 626 133 q 719 296 690 240 q 626 292 674 292 q 426 313 529 292 q 298 377 342 331 q 254 478 254 424 q 314 601 254 542 q 496 682 374 660 l 501 682 q 520 674 513 682 q 528 657 528 667 q 507 635 528 639 q 353 573 400 615 q 307 486 307 531 q 342 408 307 443 q 438 361 378 372 q 629 340 536 340 q 744 349 689 340 q 818 506 782 428 q 892 651 854 583 q 975 765 931 718 q 1068 836 1022 814 q 1153 858 1114 858 q 1249 819 1211 858 q 1288 718 1288 779 q 1265 626 1288 675 q 1194 528 1243 578 q 1001 381 1106 436 q 781 306 896 326 q 762 266 771 285 q 743 229 753 247 q 694 148 721 189 q 638 68 668 107 q 730 26 683 47 q 825 -15 776 4 q 915 -51 861 -29 q 1031 -96 969 -74 q 1153 -133 1093 -118 q 1261 -147 1214 -147 q 1300 -143 1283 -147 q 1304 -142 1303 -143 q 1307 -142 1306 -142 q 1324 -150 1318 -142 q 1331 -168 1331 -158 q 1311 -190 1331 -186 q 1261 -194 1289 -194 m 1013 732 q 935 626 971 688 q 867 495 899 564 q 806 360 835 426 q 992 433 903 383 q 1157 560 1081 482 q 1217 644 1199 603 q 1235 718 1235 685 q 1212 784 1235 758 q 1151 810 1189 810 q 1087 791 1122 810 q 1013 732 1051 772 m 122 4 q 159 -53 122 -28 q 272 -79 196 -79 q 431 -44 361 -79 q 557 50 501 -8 l 556 50 q 431 90 494 74 q 301 106 367 106 q 168 74 214 106 q 122 4 122 42 m 1379 660 q 1359 667 1369 660 q 1357 679 1349 674 q 1422 744 1393 707 q 1447 801 1450 781 q 1431 822 1431 808 q 1439 840 1431 832 q 1457 847 1447 847 q 1486 837 1475 847 q 1497 813 1497 826 q 1494 794 1497 806 q 1392 664 1471 728 q 1379 660 1386 660 z "},"Ļ":{"ha":1008,"x_min":71,"x_max":1331,"o":"m 1261 -194 q 1108 -170 1193 -194 q 931 -110 1022 -146 q 756 -35 840 -74 q 604 31 671 3 q 460 -83 542 -37 q 272 -128 378 -128 q 121 -87 171 -128 q 71 4 71 -47 q 97 74 71 40 q 174 131 122 108 q 301 153 225 153 q 451 134 381 153 q 590 89 522 115 q 658 187 626 133 q 719 296 690 240 q 626 292 674 292 q 426 313 529 292 q 298 377 342 331 q 254 478 254 424 q 314 601 254 542 q 496 682 374 660 l 501 682 q 520 674 513 682 q 528 657 528 667 q 507 635 528 639 q 353 573 400 615 q 307 486 307 531 q 342 408 307 443 q 438 361 378 372 q 629 340 536 340 q 744 349 689 340 q 818 506 782 428 q 892 651 854 583 q 975 765 931 718 q 1068 836 1022 814 q 1153 858 1114 858 q 1249 819 1211 858 q 1288 718 1288 779 q 1265 626 1288 675 q 1194 528 1243 578 q 1001 381 1106 436 q 781 306 896 326 q 762 266 771 285 q 743 229 753 247 q 694 148 721 189 q 638 68 668 107 q 730 26 683 47 q 825 -15 776 4 q 915 -51 861 -29 q 1031 -96 969 -74 q 1153 -133 1093 -118 q 1261 -147 1214 -147 q 1300 -143 1283 -147 q 1304 -142 1303 -143 q 1307 -142 1306 -142 q 1324 -150 1318 -142 q 1331 -168 1331 -158 q 1311 -190 1331 -186 q 1261 -194 1289 -194 m 1013 732 q 935 626 971 688 q 867 495 899 564 q 806 360 835 426 q 992 433 903 383 q 1157 560 1081 482 q 1217 644 1199 603 q 1235 718 1235 685 q 1212 784 1235 758 q 1151 810 1189 810 q 1087 791 1122 810 q 1013 732 1051 772 m 122 4 q 159 -53 122 -28 q 272 -79 196 -79 q 431 -44 361 -79 q 557 50 501 -8 l 556 50 q 431 90 494 74 q 301 106 367 106 q 168 74 214 106 q 122 4 122 42 m 700 -394 q 679 -387 689 -394 q 675 -376 675 -383 q 686 -357 675 -364 q 772 -273 751 -300 q 799 -231 793 -246 q 774 -201 774 -219 q 783 -183 774 -190 q 811 -175 793 -175 q 843 -187 831 -175 q 856 -217 856 -199 q 831 -274 856 -237 q 764 -350 807 -310 q 742 -369 754 -360 q 715 -390 729 -379 q 700 -394 707 -394 z "},"Ŀ":{"ha":1008,"x_min":71,"x_max":1331,"o":"m 1261 -194 q 1108 -170 1193 -194 q 931 -110 1022 -146 q 756 -35 840 -74 q 604 31 671 3 q 460 -83 542 -37 q 272 -128 378 -128 q 121 -87 171 -128 q 71 4 71 -47 q 97 74 71 40 q 174 131 122 108 q 301 153 225 153 q 451 134 381 153 q 590 89 522 115 q 658 187 626 133 q 719 296 690 240 q 626 292 674 292 q 426 313 529 292 q 298 377 342 331 q 254 478 254 424 q 314 601 254 542 q 496 682 374 660 l 501 682 q 520 674 513 682 q 528 657 528 667 q 507 635 528 639 q 353 573 400 615 q 307 486 307 531 q 342 408 307 443 q 438 361 378 372 q 629 340 536 340 q 744 349 689 340 q 818 506 782 428 q 892 651 854 583 q 975 765 931 718 q 1068 836 1022 814 q 1153 858 1114 858 q 1249 819 1211 858 q 1288 718 1288 779 q 1265 626 1288 675 q 1194 528 1243 578 q 1001 381 1106 436 q 781 306 896 326 q 762 266 771 285 q 743 229 753 247 q 694 148 721 189 q 638 68 668 107 q 730 26 683 47 q 825 -15 776 4 q 915 -51 861 -29 q 1031 -96 969 -74 q 1153 -133 1093 -118 q 1261 -147 1214 -147 q 1300 -143 1283 -147 q 1304 -142 1303 -143 q 1307 -142 1306 -142 q 1324 -150 1318 -142 q 1331 -168 1331 -158 q 1311 -190 1331 -186 q 1261 -194 1289 -194 m 1013 732 q 935 626 971 688 q 867 495 899 564 q 806 360 835 426 q 992 433 903 383 q 1157 560 1081 482 q 1217 644 1199 603 q 1235 718 1235 685 q 1212 784 1235 758 q 1151 810 1189 810 q 1087 791 1122 810 q 1013 732 1051 772 m 122 4 q 159 -53 122 -28 q 272 -79 196 -79 q 431 -44 361 -79 q 557 50 501 -8 l 556 50 q 431 90 494 74 q 301 106 367 106 q 168 74 214 106 q 122 4 122 42 m 1214 219 q 1186 231 1197 219 q 1175 258 1175 243 q 1186 285 1175 275 q 1214 296 1197 296 q 1241 285 1231 296 q 1251 258 1251 275 q 1241 231 1251 243 q 1214 219 1231 219 z "},"ǈ":{"ha":1261,"x_min":71,"x_max":1344,"o":"m 1261 -194 q 1108 -170 1193 -194 q 931 -110 1022 -146 q 756 -35 840 -74 q 604 31 671 3 q 460 -83 542 -37 q 272 -128 378 -128 q 121 -87 171 -128 q 71 4 71 -47 q 97 74 71 40 q 174 131 122 108 q 301 153 225 153 q 451 134 381 153 q 590 89 522 115 q 658 187 626 133 q 719 296 690 240 q 626 292 674 292 q 426 313 529 292 q 298 377 342 331 q 254 478 254 424 q 314 601 254 542 q 496 682 374 660 l 501 682 q 520 674 513 682 q 528 657 528 667 q 507 635 528 639 q 353 573 400 615 q 307 486 307 531 q 342 408 307 443 q 438 361 378 372 q 629 340 536 340 q 744 349 689 340 q 818 506 782 428 q 892 651 854 583 q 975 765 931 718 q 1068 836 1022 814 q 1153 858 1114 858 q 1249 819 1211 858 q 1288 718 1288 779 q 1265 626 1288 675 q 1194 528 1243 578 q 1001 381 1106 436 q 781 306 896 326 q 762 266 771 285 q 743 229 753 247 q 694 148 721 189 q 638 68 668 107 q 730 26 683 47 q 825 -15 776 4 q 915 -51 861 -29 q 1031 -96 969 -74 q 1153 -133 1093 -118 q 1261 -147 1214 -147 q 1300 -143 1283 -147 q 1304 -142 1303 -143 q 1307 -142 1306 -142 q 1324 -150 1318 -142 q 1331 -168 1331 -158 q 1311 -190 1331 -186 q 1261 -194 1289 -194 m 1013 732 q 935 626 971 688 q 867 495 899 564 q 806 360 835 426 q 992 433 903 383 q 1157 560 1081 482 q 1217 644 1199 603 q 1235 718 1235 685 q 1212 784 1235 758 q 1151 810 1189 810 q 1087 791 1122 810 q 1013 732 1051 772 m 122 4 q 159 -53 122 -28 q 272 -79 196 -79 q 431 -44 361 -79 q 557 50 501 -8 l 556 50 q 431 90 494 74 q 301 106 367 106 q 168 74 214 106 q 122 4 122 42 m 1300 432 q 1270 444 1283 432 q 1257 474 1257 456 q 1269 506 1257 493 q 1300 518 1282 518 q 1332 506 1319 518 q 1344 474 1344 493 q 1331 444 1344 456 q 1300 432 1318 432 m 658 -528 q 575 -501 604 -528 q 546 -432 546 -475 q 570 -336 546 -389 q 635 -231 594 -283 q 752 -120 682 -171 q 906 -35 822 -69 q 1075 7 989 -1 q 1164 199 1128 110 q 1211 331 1200 288 q 1231 343 1214 343 q 1251 334 1242 343 q 1257 307 1261 325 q 1208 172 1242 250 q 1133 10 1175 93 q 1181 3 1157 10 q 1197 -18 1197 -1 q 1188 -39 1197 -29 q 1165 -44 1179 -49 q 1146 -40 1156 -42 q 1125 -39 1136 -39 q 1108 -39 1117 -39 q 1018 -198 1064 -122 q 933 -328 972 -274 q 852 -424 897 -378 q 758 -499 807 -469 q 658 -528 708 -528 m 597 -425 q 612 -464 597 -449 q 664 -479 626 -479 q 758 -442 708 -479 q 858 -343 807 -406 q 957 -203 908 -281 q 1049 -44 1006 -125 q 838 -119 939 -61 q 675 -258 736 -178 q 644 -304 663 -275 q 611 -365 625 -333 q 597 -425 597 -397 z "}}}
